<?xml version="1.0" standalone="no"?>
<!DOCTYPE svg PUBLIC "-//W3C//DTD SVG 1.1//EN" "http://www.w3.org/Graphics/SVG/1.1/DTD/svg11.dtd" >
<svg xmlns="http://www.w3.org/2000/svg">
<metadata>
This is a custom SVG webfont generated by Font Squirrel.
</metadata>
<defs>
<font id="webfont3XRolORY" horiz-adv-x="268" >
<font-face units-per-em="1000" ascent="800" descent="-200" />
<missing-glyph horiz-adv-x="303" />
<glyph unicode=" "  horiz-adv-x="303" />
<glyph unicode="&#x09;" horiz-adv-x="303" />
<glyph unicode="&#xa0;" horiz-adv-x="303" />
<glyph unicode="!" horiz-adv-x="328" d="M411 641q0 39 -26 39q-46 0 -87 -95l-87 -207l-59 -137q-5 -13 -12.5 -28.5t-17.5 -32.5h11q72 115 108 168q170 245 170 293zM97 50q0 50 -42 50q-23 0 -39.5 -18.5t-16.5 -41.5q0 -48 40 -48q23 0 40.5 17.5t17.5 40.5z" />
<glyph unicode="&#x22;" horiz-adv-x="218" d="M334 624q0 19 -13 32.5t-32 13.5q-23 0 -39.5 -19t-16.5 -42q0 -30 39 -49q7 -3 7 -13q0 -18 -31 -40q-20 -11 -20 -15q0 -6 9 -7q20 0 46 29q51 55 51 110zM233 624q0 19 -13 32.5t-32 13.5q-23 0 -39.5 -19t-16.5 -42q0 -30 39 -49q7 -3 7 -13q0 -18 -31 -40 q-20 -11 -20 -15q0 -6 9 -7q20 0 46 29q51 55 51 110z" />
<glyph unicode="#" horiz-adv-x="495" d="M443 414h-102l89 162h-22l-89 -162h-119l89 162h-22l-89 -162h-96l-33 -60h96l-61 -111h-95l-33 -60h95l-99 -183h21l99 183h120l-101 -183h21l101 183h101l34 60h-102l62 111h101zM286 354l-62 -111h-119l62 111h119z" />
<glyph unicode="$" horiz-adv-x="370" d="M336 426q0 27 -18 49t-45 30l31 59l-14 6l-33 -61q-2 1 -19 1q-52 0 -87 -29q-37 -31 -37 -83q0 -27 10 -54l33 -91q16 -42 16 -58q0 -15 -7 -29.5t-19 -25t-27 -17t-30 -6.5q-34 0 -58 21.5t-24 54.5q0 12 4 25t11 23.5t17 17t22 6.5q25 0 25 -21q0 -20 -35 -25 q23 -35 44 -35q20 0 34.5 17t14.5 37q0 27 -20 44.5t-48 17.5q-18 0 -34 -8t-28 -21t-18.5 -30.5t-6.5 -36.5q0 -59 52 -96l-51 -99l15 -6l52 97q24 -6 58 -6q58 0 94 33.5t36 91.5q0 43 -16 76l-31 67q-17 39 -17 71q0 26 18 43.5t44 17.5q23 0 39.5 -13.5t16.5 -36.5 q0 -29 -24 -29q-11 0 -31 11q-1 -3 -1 -22q0 -37 38 -37q23 0 38.5 18t15.5 41z" />
<glyph unicode="%" horiz-adv-x="504" d="M491 599q0 17 -20 17q-45 0 -120 -107q-38 -16 -88 -20q2 13 3.5 24t1.5 22q0 58 -48 58q-59 0 -111 -67q-51 -63 -51 -123q0 -28 19 -49t46 -21q41 0 85 50q35 41 52 89l73 13l-95 -121l-102 -119l-37 -41l-31 -33q-87 -90 -126 -208l12 -1q12 28 25 28h12q10 0 18 6 q48 84 82 126l155 198q70 93 127 178q118 64 118 101zM381 209q0 61 -54 61q-53 0 -106 -68q-51 -65 -51 -119q0 -29 18 -51.5t46 -22.5q59 0 105 73q42 66 42 127zM474 594q0 -19 -87 -70q52 78 78 78q9 0 9 -8zM251 534q0 -16 -8 -43q-49 3 -49 41q0 14 9 25t22 11 q26 0 26 -34zM240 475q-9 -33 -37 -72q-35 -47 -61 -47q-25 0 -25 27q0 50 55 144q12 -25 23 -36q14 -8 45 -16zM362 198q0 -41 -37 -102q-39 -66 -76 -66q-21 0 -21 30q0 43 34 111q37 76 74 76q26 0 26 -49z" />
<glyph unicode="&#x26;" horiz-adv-x="854" d="M867 548q0 36 -37 72l-7 -7q26 -35 26 -64q0 -62 -97 -105q-14 -6 -50 -18l-97 -32q-192 -60 -201 -163q-23 -9 -41.5 -18.5t-34.5 -19.5q-1 5 -1 24q0 70 44 129q46 63 116 63q14 0 26.5 -1t24.5 -3l-3 11q-55 37 -55 98q0 63 45 108q46 46 109 46q35 0 61.5 -18 t26.5 -52q0 -27 -19.5 -47t-46.5 -20q-36 0 -61 37l-16 -2q28 -51 76 -51q16 0 31.5 7t26.5 18t18 26t7 32q0 51 -53 83q-46 26 -101 26q-78 0 -130 -43q-57 -47 -57 -121q0 -46 35 -93q-99 0 -160 -67q-61 -65 -61 -164q0 -31 9 -73q-17 -2 -28.5 -3.5t-19.5 -1.5 q-54 0 -87 40t-33 95l2 42q-24 -2 -36 -24q-11 -19 -11 -44q0 -61 51 -100q46 -36 109 -36q27 0 63 9q26 -62 95 -99q62 -32 135 -32q93 0 159 51q71 57 71 148q0 27 -9 51t-25.5 42t-39 29t-49.5 13l178 81q122 56 122 141zM584 182q0 -25 -18.5 -42t-43.5 -17 q-32 0 -52.5 19t-20.5 51q0 15 5 35q39 16 62 16q28 0 48 -17.5t20 -44.5zM669 190q0 -69 -49 -118q-50 -50 -117 -50q-60 0 -112 44q-51 44 -59 104q28 17 46 27l27 15q2 -47 35 -76q35 -29 81 -29q34 0 60 19t26 52q0 16 -7.5 31t-19.5 26t-28 17.5t-33 6.5q-18 0 -57 -10 q22 31 37 42q21 15 52 15q24 0 45.5 -9t37.5 -24.5t25.5 -37t9.5 -45.5z" />
<glyph unicode="'" horiz-adv-x="0" d="M137 624q0 19 -13 32.5t-32 13.5q-23 0 -39.5 -19t-16.5 -42q0 -30 39 -49q7 -3 7 -13q0 -18 -31 -40q-20 -11 -20 -15q0 -6 9 -7q20 0 46 29q51 55 51 110z" />
<glyph unicode="(" horiz-adv-x="340" d="M596 776q0 8 -20 8q-21 0 -112 -67q-123 -90 -221 -209q-130 -157 -130 -362q0 -187 126 -325q43 -48 67 -48q11 0 11 16q0 4 -51 64q-48 55 -68 116q-17 54 -17 133q0 184 101 356q58 99 144 178q20 19 50 41.5t70 49.5q50 35 50 49z" />
<glyph unicode=")" horiz-adv-x="340" d="M320 409q0 189 -126 327q-44 48 -67 48q-11 0 -11 -16q0 -4 51 -64q85 -100 85 -251q0 -184 -101 -356q-29 -49 -65 -92.5t-79 -83.5q-20 -20 -50 -42.5t-68 -48.5q-50 -35 -50 -49q0 -8 20 -8q21 0 112 67q123 91 219 207q130 157 130 362z" />
<glyph unicode="*" d="M389 516q0 24 -27 24q-20 0 -37 -13q-31 -22 -43 -22q-3 0 -5 2q0 7 31 29q35 32 35 45q0 24 -29 24q-24 0 -39 -22l-11 -52q-5 -21 -12 -24q-8 0 -15 19q-2 7 -5 13.5t-5 13.5q-8 12 -24 12q-17 0 -30 -9.5t-13 -25.5q0 -18 19 -25l13 -2q7 -1 14 -3q20 -5 20 -9 q0 -13 -63 -26q-37 -7 -37 -35q0 -25 27 -25q19 0 48 32q28 33 42 33q2 -2 2 -14q0 -5 -7 -20t-7 -20q0 -27 28 -27q17 0 31 11t14 27q0 7 -29 39q-7 7 -7 14q1 10 10 10q4 0 12 -1.5t16.5 -4t16 -4t12.5 -1.5q19 0 36.5 9.5t17.5 27.5z" />
<glyph unicode="+" horiz-adv-x="336" d="M262 276h-99l69 122h-70l-69 -122h-81l-13 -15h86l-69 -123h70l69 123h92z" />
<glyph unicode="," horiz-adv-x="244" d="M127 54q0 19 -13 32.5t-32 13.5q-23 0 -39.5 -19t-16.5 -42q0 -31 39 -47q7 -3 7 -13q0 -18 -31 -40q-20 -11 -20 -15q0 -6 9 -7q20 0 46 29q51 55 51 108z" />
<glyph unicode="-" d="M234 190q0 6 -4 6l-19 -3q-10 -2 -18.5 -3t-15.5 -1q-6 0 -16.5 1l-20.5 2l-22 4q-10 1 -16 1q-23 0 -59 -21q-25 -15 -25 -25q0 -6 6 -6q3 0 14 3.5t16 3.5q16 0 51 -6l30 -4q13 -1 21 -1q25 0 49 11q29 14 29 38z" />
<glyph unicode="." horiz-adv-x="244" d="M118 50q0 50 -42 50q-23 0 -40.5 -18.5t-17.5 -41.5q0 -48 42 -48q23 0 40.5 17.5t17.5 40.5z" />
<glyph unicode="/" horiz-adv-x="360" d="M416 656l-17 2q-138 -156 -241.5 -291.5t-175.5 -253.5q-70 -113 -70 -149q0 -6 5 -6q1 0 12 17q10 16 17 16q35 0 53 45q27 74 185 304l132 186q57 79 100 130z" />
<glyph unicode="0" horiz-adv-x="522" d="M483 489q0 57 -34.5 86.5t-91.5 29.5q-94 0 -190 -87q-78 -70 -137 -180q-63 -119 -63 -215q0 -27 9.5 -51t27 -41t41 -27t50.5 -10q97 0 192 85q82 75 137 187q59 120 59 223zM414 516q0 -78 -65 -214q-28 -59 -57.5 -107.5t-60.5 -87.5q-80 -101 -139 -101 q-24 0 -43.5 19.5t-19.5 43.5q0 66 63 195q46 96 114 192q97 138 155 138q53 0 53 -78z" />
<glyph unicode="1" horiz-adv-x="299" d="M319 531q0 5 -5 5q-24 0 -143 -113q-96 -92 -120 -123l23 11q89 83 99 83q-12 -18 -30 -42l-43 -57q-57 -73 -93.5 -132t-55.5 -105q-9 -23 -19.5 -53.5t-21.5 -68.5l21 22q9 9 14 17q8 -1 18 -1h22h6q4 0 10 1q7 1 8 1q2 0 -1 0q7 4 30 66l30 76l27 61q20 42 54 97 t83 127l60 89q22 31 27 39z" />
<glyph unicode="2" horiz-adv-x="453" d="M416 444q0 60 -34.5 95.5t-94.5 35.5q-64 0 -121 -42q-63 -45 -63 -107q0 -33 19.5 -54.5t52.5 -21.5q26 0 44.5 16t18.5 41q0 47 -41 47q-2 0 -6 -0.5t-9 -1.5q0 -4 4 -15.5t4 -16.5q0 -9 -8.5 -16.5t-17.5 -7.5q-18 0 -29 15t-11 33q0 44 38 77q37 33 83 33 q37 0 64.5 -22.5t27.5 -58.5q0 -45 -44 -110q-32 -48 -79 -92q-32 -31 -131 -81q-51 -26 -84.5 -47t-52.5 -37q-101 -89 -101 -115v-3q1 -5 7 -7q0 6 45 12q42 6 76 6q11 0 28 -2.5t39 -7.5q47 -11 68 -11q47 0 101 39q55 39 55 84q0 8 -1 10q-67 -55 -105 -55q-23 0 -68 9 t-68 9q-19 0 -51 -7q-35 -6 -51 -6q0 13 45 48q51 41 84 55l137 55q98 39 151 81q79 63 79 144z" />
<glyph unicode="3" horiz-adv-x="486" d="M519 549q-53 -24 -84 -24q-26 0 -77 12t-77 12q-94 0 -155 -102q42 17 71.5 25.5t48.5 9.5q33 2 122 -24l-263 -182q0 -7 15 -7l23 13q22 12 39 12q28 0 49 -16t21 -44q0 -69 -60 -145q-66 -85 -145 -85q-41 0 -65 21q-28 22 -28 62q0 29 17 51.5t44 22.5q30 0 30 -32 q0 -15 -34 -24q13 -28 36 -28q24 0 39.5 16.5t15.5 40.5q0 26 -20 46t-46 20q-37 0 -65 -36q-29 -35 -29 -74q0 -27 10 -49.5t27.5 -39t41 -25.5t50.5 -9q96 0 175 64q84 70 84 164q0 54 -31.5 93t-85.5 44z" />
<glyph unicode="4" horiz-adv-x="473" d="M445 585l-28 -25l-56 3l-77 -85l-49 -52q-17 -18 -61 -56l-117 -99q-98 -83 -98 -106q0 -31 82 -32l101 -3l-28 -49q-11 -18 -15 -24q-36 -61 -42 -100q14 11 23 20.5t14 16.5q31 -10 51 -10q11 0 37 56q5 13 14 34l23 53l55 -3q19 -1 34 -1.5t27 -0.5l15 28q6 12 8 19 l-129 -10q170 290 170 295q-8 0 -26 -20q-100 -109 -159 -196l-34 -52l-23 -33l-73 -4q-24 -2 -54 3q-42 6 -42 22q0 34 125 123l176 124l73 52q67 52 81 90q2 6 2 22z" />
<glyph unicode="5" horiz-adv-x="451" d="M479 584q0 4 -3 4l-9 -4q-9 -5 -28 -13q-39 -17 -56 -17q-16 0 -47 10q-33 11 -49 11q-28 0 -56.5 -15t-41.5 -38l-106 -185q-11 -21 -14 -34q0 -3 2 -3q-7 0 33 35q39 36 64 36q38 0 61 -26.5t23 -65.5q0 -72 -67 -172q-74 -108 -149 -108q-43 0 -71 20q-31 24 -31 67 q0 12 5 24.5t13 22.5t19 16t23 6q33 0 33 -29q0 -24 -28 -28q11 -29 30 -29q22 0 37 16t15 38q0 27 -20 46.5t-47 19.5q-38 0 -65 -32q-28 -31 -28 -70q0 -50 40 -81q37 -28 87 -28q111 0 197 79q87 79 87 188q0 54 -34 97q-38 47 -88 47q-45 0 -93 -20l62 107q38 29 72 29 q11 0 27.5 -1t38.5 -3q23 -2 39.5 -3t27.5 -1q8 0 34 17q8 5 17 13t19 18q25 25 25 39z" />
<glyph unicode="6" horiz-adv-x="481" d="M489 522q0 35 -36 58q-31 19 -69 19q-150 0 -280 -171q-123 -164 -123 -315q0 -57 39 -96q40 -39 97 -39q94 0 172 89q74 86 74 182q0 50 -30 88q-33 41 -81 41q-47 0 -94 -29q122 239 226 239q66 0 66 -45q0 -39 -30 -39q-12 0 -28 21q-15 -5 -15 -21q0 -19 13.5 -32.5 t32.5 -13.5q26 0 46 19t20 45zM294 291q0 -64 -62 -176q-68 -119 -125 -119q-56 0 -56 57q0 42 22 111q60 193 158 193q63 0 63 -66z" />
<glyph unicode="7" horiz-adv-x="436" d="M470 591q0 8 -11 8l-34 -16q-20 -10 -36 -10q-24 0 -79 11q-53 12 -76 12q-56 0 -90 -33q-24 -23 -55 -83q55 34 90 42q13 3 30 3q8 0 20.5 -1t28.5 -3q17 -2 29.5 -3t20.5 -1q9 0 22.5 1.5t30.5 5.5q37 8 53 8q-8 -13 -26.5 -32t-47.5 -45q-41 -37 -85 -70t-93 -64 q-84 -51 -176 -183q-83 -118 -83 -148q0 -1 -0.5 -4.5t-1.5 -9.5v-9q34 43 67 43q1 0 6.5 -2t11 -3.5t10.5 -2.5l4 -2q4 4 14 22l30 51q26 46 48 78.5t39 51.5l233 257q106 116 106 131z" />
<glyph unicode="8" horiz-adv-x="520" d="M501 479q0 52 -47 84q-41 28 -97 28q-77 0 -132 -46q-57 -50 -57 -125q0 -47 27 -99q-225 -53 -225 -184q0 -67 54 -110q52 -39 120 -39q92 0 156 52q71 56 71 145q0 62 -57 142q73 15 122 47q65 42 65 105zM438 500q0 -57 -43 -100q-37 -40 -94 -59q-27 13 -45 54 q-17 37 -17 70q0 41 38 79q37 37 80 37q81 0 81 -81zM291 161q0 -59 -45 -110q-44 -51 -102 -51q-46 0 -74 43q-25 37 -25 86q0 65 48 118q49 54 113 58q85 -94 85 -144z" />
<glyph unicode="9" horiz-adv-x="490" d="M429 473q0 28 -9 52t-25.5 42t-40 28t-51.5 10q-100 0 -178 -83q-77 -83 -77 -183q0 -48 24 -85q29 -41 74 -41q50 0 91 18q-56 -102 -90 -144q-68 -84 -138 -84q-55 0 -55 50q0 34 28 34q13 0 30 -24l10 21q3 7 4 11q0 39 -44 39q-23 0 -46 -20t-23 -43q0 -37 40 -61 q34 -19 74 -19q98 0 196 84q82 71 141 181q65 119 65 217zM363 533q0 -91 -58 -194q-62 -111 -128 -111q-27 0 -45 19.5t-18 46.5q0 67 69 180q73 120 134 120q22 0 34 -19t12 -42z" />
<glyph unicode=":" horiz-adv-x="244" d="M190 253q0 50 -42 50q-23 0 -40.5 -18.5t-17.5 -41.5q0 -50 42 -50q23 0 40.5 18.5t17.5 41.5zM74 45q0 50 -42 50q-23 0 -39.5 -18.5t-16.5 -41.5q0 -48 40 -48q23 0 40.5 17.5t17.5 40.5z" />
<glyph unicode=";" horiz-adv-x="244" d="M180 253q0 50 -42 50q-23 0 -40.5 -18.5t-17.5 -41.5q0 -50 42 -50q23 0 40.5 18.5t17.5 41.5zM83 54q0 19 -13 32.5t-32 13.5q-23 0 -38.5 -19t-15.5 -42q0 -31 37 -47q7 -3 7 -13q0 -17 -29 -40l-14 -7q-6 -3 -6 -8q0 -6 9 -7q18 0 44 29q51 55 51 108z" />
<glyph unicode="&#x3c;" horiz-adv-x="954" d="M918 172q0 32 -26 49q-22 16 -55 16q-57 0 -153 -34q-2 2 -16 13l-37 34q-53 47 -122 70q0 27 29 51q28 24 57 24q59 0 111 -38q33 -25 82 -87l18 -2q-110 153 -211 153q-44 0 -78 -27q-35 -27 -35 -69q-33 3 -45 3q-64 0 -151 -84q-48 -32 -67 -42q-37 -17 -76 -17 q-51 0 -84 37t-33 89q0 43 39 76q38 34 83 34q49 0 78 -28t29 -77q0 -74 -80 -74q-18 0 -33 13t-15 31q0 33 26 36q4 1 10 -0.5t12 -3.5t11 -4t6 -2q3 0 3 3q0 59 -49 59q-27 0 -46 -21.5t-19 -48.5q0 -36 30 -58q26 -22 63 -22q39 0 65 26t26 65q0 49 -35 84t-84 35 q-55 0 -94 -33q-42 -35 -42 -89q0 -56 38 -99q39 -41 95 -41q66 0 136 52q-19 -37 -19 -84q0 -54 41 -95q40 -40 96 -40q55 0 96 33q40 34 40 89q0 22 -8 42.5t-21.5 36t-33 24.5t-41.5 9q-37 0 -64 -23t-27 -60q0 -30 21.5 -54t51.5 -24q23 0 37.5 18.5t14.5 41.5 q0 26 -18 26l-10 -15q-10 -14 -24 -16q-31 -1 -31 36q0 23 13 39t36 16q43 0 68.5 -27t25.5 -70q0 -101 -126 -101q-40 0 -80 37q-41 38 -41 77q0 63 23 95t60 56q41 26 78 26q23 0 46 -5q0 -53 37 -94q38 -41 88 -41q27 0 61 8q101 -73 181 -73q29 0 48.5 16t19.5 44z M907 172q0 -22 -17 -34.5t-40 -12.5q-52 0 -155 67q76 32 142 32q27 0 47 -12q23 -14 23 -40zM658 195q-15 -2 -27.5 -3.5t-22.5 -1.5q-41 0 -71 39q-29 37 -29 78q20 -8 36.5 -15.5t27.5 -15.5l46 -41q21 -20 40 -40z" />
<glyph unicode="=" horiz-adv-x="481" d="M403 336q0 9 -11 9q-7 0 -17 -1t-24 -3t-24 -3t-17 -1q-15 0 -38 1l-52 4q-59 6 -89 6q-34 0 -88 -20q-43 -16 -43 -38q0 -5 5 -5q20 0 58 3q20 2 34.5 3t24.5 1q25 0 78 -6l46 -4q20 -1 33 -1q58 0 110 38q14 11 14 17zM403 200q0 9 -11 9q-7 0 -17 -1t-24 -3t-24 -3 t-17 -1q-15 0 -38 1l-52 4q-59 6 -89 6q-34 0 -88 -20q-43 -16 -43 -38q0 -5 5 -5q20 0 58 3q20 2 34.5 3t24.5 1q25 0 78 -6l46 -4q20 -1 33 -1q58 0 110 38q14 11 14 17z" />
<glyph unicode="&#x3e;" horiz-adv-x="954" d="M932 312q0 53 -41 88q-40 34 -95 34q-50 0 -85 -35q-34 -34 -34 -84q0 -39 26 -65t65 -26q18 0 35 6t29.5 16.5t20.5 25t8 32.5q0 27 -19 48.5t-46 21.5q-49 0 -49 -59q0 -3 3 -3q1 0 5.5 2t10.5 4t12.5 3.5t10.5 0.5q26 -3 26 -36q0 -18 -15 -31t-33 -13q-80 0 -80 74 q0 49 29 77t78 28q45 0 83 -34q39 -33 39 -76q0 -52 -33 -89t-84 -37q-39 0 -76 17q-19 10 -67 42q-87 84 -151 84q-12 0 -45 -3q0 42 -35 69t-78 27q-102 0 -211 -153l18 2q49 62 82 87q52 38 111 38q28 0 57 -24t29 -51q-39 -14 -59 -24q-31 -17 -63 -46l-37 -34 q-14 -11 -16 -13q-96 34 -153 34q-33 0 -55 -16q-26 -17 -26 -49q0 -28 19.5 -44t48.5 -16q80 0 181 73q34 -8 61 -8q50 0 88 41q37 41 37 94q23 5 46 5q37 0 78 -26q37 -24 60 -56t23 -95q0 -39 -41 -77q-40 -37 -80 -37q-126 0 -126 101q0 43 25.5 70t68.5 27q23 0 36 -16 t13 -39q0 -37 -31 -36q-13 1 -23 16l-11 15q-18 0 -18 -26q0 -23 14.5 -41.5t37.5 -18.5q30 0 51.5 24t21.5 54q0 37 -27 60t-64 23q-23 0 -42 -9t-32.5 -24.5t-21.5 -36t-8 -42.5q0 -55 40 -89q40 -33 96 -33t96 40q41 41 41 95q0 47 -19 84q70 -52 136 -52q56 0 94 41 q39 42 39 99zM434 307q0 -41 -29 -78q-30 -39 -71 -39q-10 0 -22.5 1.5t-27.5 3.5l61 59q21 20 25 22q20 14 64 31zM247 192q-103 -67 -155 -67q-23 0 -40 12.5t-17 34.5q0 26 23 40q19 12 47 12q66 0 142 -32z" />
<glyph unicode="?" horiz-adv-x="522" d="M506 553q0 56 -48 92q-43 34 -101 34q-95 0 -174 -61q-86 -65 -86 -156q0 -25 16 -42t41 -17q29 0 67 26l-10 3q-32 -18 -55 -18q-21 0 -34.5 14t-13.5 35q0 68 76 128q71 56 142 56q45 0 76 -24t31 -67q0 -57 -78 -130q-51 -48 -83 -68l-100 -63q-37 -24 -48 -32 q-29 -23 -29 -54q0 -41 42 -41q14 0 46 8l-11 7q-11 -4 -25 -4q-38 0 -38 30q0 12 10.5 26t21.5 20l208 103q58 29 103 80q54 60 54 115zM111 50q0 50 -42 50q-23 0 -40.5 -18.5t-17.5 -41.5q0 -48 42 -48q23 0 40.5 17.5t17.5 40.5z" />
<glyph unicode="@" horiz-adv-x="691" d="M558 228q66 102 66 186t-58 129q-53 41 -139 41q-144 0 -266 -101q-121 -100 -157 -242q-10 -41 -10 -88q0 -103 64 -161q65 -59 169 -59q148 0 272 106q26 22 48 48.5t41 58.5h-20q-135 -192 -333 -192q-98 0 -155 45q-62 50 -62 144q0 42 14 96q36 137 143 230 q112 97 250 97q79 0 125 -37q53 -41 53 -116q0 -76 -57 -166q-14 -22 -30.5 -43.5t-36.5 -41.5q-53 -54 -86 -54q-44 0 -44 38q9 29 21 52l131 246q-5 -2 -17 -14q-12 -13 -16 -13q-7 0 -21 3t-21 3q-9 0 -21 -15q-17 24 -51 24q-84 0 -154 -66t-70 -150q0 -99 68 -99 q51 0 95 59l-3 -22q-2 -9 -2 -15q0 -56 79 -56q51 0 110 51q47 40 81 94zM390 390q0 -18 -102 -192q-39 -66 -79 -66q-20 0 -20 33q0 54 57 146q64 103 123 103q21 0 21 -24z" />
<glyph unicode="A" horiz-adv-x="1061" d="M1229 -13q0 50 -43 83q-38 31 -91 31q-55 0 -107 -24q-41 -19 -212 -123l-30 28q96 50 167 151q36 53 50 91q15 41 21 101q210 82 210 262q0 124 -113 201q-101 68 -230 68q-125 0 -232 -73q-121 -82 -121 -200q0 -147 116 -195l3 13q-105 46 -105 182q0 113 117 190 q103 69 222 69q125 0 220 -64q109 -73 109 -191q0 -167 -194 -244q12 165 111 257q34 31 34 42q0 16 -10 16q-164 -48 -290 -216q-54 -71 -78 -126h-249q-103 0 -179 -55q-86 -62 -86 -160q0 -64 48 -98q43 -30 109 -30q146 0 287 208l49 73l30 47q77 0 122 9 q0 -47 -37 -137l-25 -61l-19 -44q-5 -11 -37 -40q-31 -28 -41 -28q-48 22 -80 22q-25 0 -25 -20q0 -30 55 -30q10 0 21 2l26 3l36 -32q-213 -126 -366 -126q-165 0 -274 97q-115 99 -115 262q0 154 95 252q94 97 249 97q26 0 58 -13v12q-33 12 -58 12q-162 0 -258 -99 q-95 -100 -95 -261q0 -167 117 -269q112 -100 281 -100q141 0 308 90l42 23q16 10 26 15l52 -35q22 -15 39 -24q88 -45 187 -44q65 2 121 44q62 48 62 109zM1056 617q1 0 1 -1q-5 -8 -39 -48q-115 -133 -133 -243q-48 -9 -112 -9q25 69 103 159l37 38q21 21 49 44 q70 60 94 60zM1215 -14q0 -57 -57 -99q-53 -39 -112 -39q-145 0 -260 97q165 100 200 116q57 26 110 26q24 0 45.5 -7.5t38 -20.5t26 -32t9.5 -41zM696 -8q-22 -5 -33 -5q-22 0 -22 13q0 6 9 6q13 0 46 -14zM741 299q-93 -144 -135 -190q-110 -122 -210 -122 q-110 0 -110 114q0 87 86 146q76 52 168 52h201z" />
<glyph unicode="B" horiz-adv-x="1064" d="M1304 544q0 50 -76 83q-63 27 -119 27q-62 0 -98 -13l-37 -13q-16 -6 -24 -10q-22 11 -40 19t-32 13q-57 20 -130 20q-92 0 -162 -26q-17 -7 -98 -54q-72 29 -124 29q-147 0 -250 -109q-104 -109 -104 -255q0 -130 85 -206q80 -73 212 -73q154 0 257 64q85 54 168 182 q21 33 49 128q25 89 51 124q74 101 112 120q40 -22 40 -120q0 -65 -80 -140q-25 22 -48 22q-32 0 -32 -22q0 -12 14 -20.5t26 -8.5q6 0 12.5 0.5t13.5 1.5q6 -32 6 -61q0 -81 -33 -111q-72 0 -135 -20q-90 -29 -90 -93q0 -44 68 -46q43 0 83.5 10.5t74 32t59.5 52.5t41 71 q67 28 122 76l-8 8q-55 -49 -108 -67q0 95 -48 154q59 34 86 64q37 40 37 97q0 39 -27 77l-17 20l-32 36q85 35 140 35q52 0 109 -23q71 -30 71 -75q0 -22 -30 -40q-24 -16 -49 -20l10 -10q30 5 55 22q29 21 29 48zM887 324q-11 -4 -23 -4q-20 0 -20 14q0 9 12 9 q15 0 31 -19zM629 352q0 -17 -15 -51q-36 -33 -84 -33q-63 0 -98 40t-35 103q0 53 28 94q15 22 63 70q141 -78 141 -223zM860 120l-30 -40l-22 -28q-59 -59 -116 -58q-42 1 -42 28q0 56 82 81q56 17 128 17zM931 607q-80 -31 -152 -110q-66 -72 -99 -160l-26 -65 q-9 -24 -11 -30q-35 -78 -86 -130.5t-114 -85.5q-70 -37 -136 -37q-126 0 -204 69q-82 73 -82 197q0 139 102 246q103 108 241 108q60 0 113 -29q-43 -40 -53 -54q-38 -53 -38 -114q0 -68 37 -111q40 -46 107 -46q24 0 71 15q-19 -60 -81 -92q-40 -20 -81 -20v-14 q32 0 61 10.5t53.5 29.5t43 45t29.5 57q54 54 54 102q0 21 -8 43q-1 1 -4.5 7t-10.5 19l-11 -3q23 -44 21 -67q0 -16 -11 -35l-20 -35q2 14 3 23t2 12q0 141 -143 230q59 41 106 57q60 21 144 21q100 0 183 -53z" />
<glyph unicode="C" horiz-adv-x="933" d="M1153 -252q0 81 -104 125q-78 34 -173 34q-91 0 -193 -40l-113 -45l-72 -29q-99 -40 -174 -40q-140 0 -227 99q-83 95 -83 235q0 177 131 306q132 129 309 129q20 0 46 -1t58 -3q80 -5 80 -13q-31 -17 -62 -44t-63 -63q-104 -118 -104 -235q0 -128 95 -175q41 -56 97 -56 q105 0 212 143l-8 9q-110 -138 -204 -138q-38 0 -63 31q6 -1 10.5 -1.5t8.5 -0.5q98 0 187 95q88 94 88 195q0 92 -79 92q-114 0 -196 -115q-70 -97 -70 -190q0 -14 1 -17q-23 23 -22 60q1 54 36 126q40 83 93 142q70 76 129 126q69 -10 116.5 -14.5t75.5 -4.5q57 0 101 18 q60 25 60 73q0 58 -101 58q-142 0 -325 -102q-7 1 -23 2.5t-42 4.5q-77 9 -132 9q-184 0 -318 -131q-133 -130 -133 -315q0 -149 85 -244q89 -101 236 -101q84 0 180 40l110 44l70 30q99 40 192 40q83 0 163 -34q102 -44 102 -114q0 -20 -15 -48q1 -1 2 -2.5t3 -3.5 q22 31 22 54zM1066 561q0 -80 -150 -80q-50 0 -171 18q145 109 231 109q90 0 90 -47zM798 272q0 -82 -79 -179q-83 -99 -163 -99q-22 0 -41 12q-11 31 -11 52q0 86 70 180q75 101 158 101q66 0 66 -67z" />
<glyph unicode="D" horiz-adv-x="852" d="M981 613q-49 52 -154 52q-63 0 -111 -16q-114 136 -309 136q-144 0 -236 -76q-100 -82 -100 -221v-16q0 -6 1 -11q-25 -37 -35 -55q-30 -56 -30 -119q0 -49 32 -118l9 6q-29 78 -29 112q0 86 56 157q14 -50 39 -89q59 -89 162 -89q56 0 101 39t45 95q0 69 -58 111 q-53 38 -124 38q-75 0 -157 -75v10q-1 5 -1 10q0 96 68 175q90 104 257 104q148 0 252 -89q33 -28 34 -37l-42 -24q-127 -72 -235 -289q-23 -47 -69 -168q-30 -82 -52 -95q-20 14 -35 23.5t-25 14.5q-50 28 -98 28q-37 0 -64 -18q-31 -19 -31 -55q0 -48 43 -70 q34 -19 86 -19q77 0 147 47q70 -47 147 -48q135 -1 237 146q93 133 93 275q0 140 -70 246q76 12 102 12q49 0 78 -10q16 -5 34 -14.5t38 -23.5zM743 476q0 -151 -87 -301q-101 -173 -240 -173q-19 0 -81 35q57 47 71 64q51 63 80 149l26 78q10 32 15 50q62 195 177 250 q15 -8 29 -71q10 -47 10 -81zM410 400q0 -51 -42 -87q-41 -35 -92 -35q-77 0 -128 53q-45 46 -63 126q77 80 155 80q68 0 115 -34q55 -37 55 -103zM279 58q-77 -66 -132 -66q-35 0 -60 18q-28 21 -28 54q0 27 18 43.5t45 16.5q60 -2 115 -34q24 -14 42 -32z" />
<glyph unicode="E" horiz-adv-x="973" d="M900 543q0 51 -42 87q-41 33 -92 33q-157 0 -189 -155q-128 15 -186 15q-135 0 -246 -47q-145 -61 -145 -182q0 -31 16 -62l12 8q-15 30 -15 55q0 113 142 171q108 44 236 44q82 0 186 -18q1 -1 6 -16l4 -13q4 -14 11 -28t17 -29q-5 1 -12 1h-15q-99 0 -160 -60 q-61 -58 -61 -157q0 -109 76 -167q68 -53 180 -53q98 0 169 69q72 70 72 168q0 49 -26 83q-28 37 -76 37q-66 0 -122 -53q-55 -52 -55 -119q0 -19 6 -36t17.5 -30t27 -20.5t33.5 -7.5q68 0 100 71q17 40 17 108h-12q0 -65 -21 -108q-27 -57 -84 -57q-31 0 -50.5 24t-19.5 56 q0 59 52 108q53 50 111 50q43 0 67 -33q21 -29 21 -73q0 -90 -68 -155q-67 -64 -159 -64q-72 0 -119 62q-42 57 -42 133q0 68 47 126q46 58 115 58q25 0 45 -11q18 -23 40 -23q12 1 12 12q0 10 -17 19q-21 11 -22 14q-11 15 -16 49q-2 23 -3 32q64 -23 103 -23q50 0 90 28 q44 32 44 79zM888 543q0 -48 -39 -73q-34 -22 -83 -22q-54 0 -102 30q-4 7 -4 20q0 48 44 89t94 41q36 0 63 -24.5t27 -60.5z" />
<glyph unicode="F" horiz-adv-x="1026" d="M1424 579q-50 -78 -122 -78q-68 0 -152 48l-95 54l-60 35q-90 48 -201 48q-126 0 -242 -98q-84 42 -162 42q-164 0 -273 -112t-109 -276q0 -171 106 -278q106 -109 276 -109q91 0 190 41q103 43 158 110q61 76 135 344l60 -9q-8 -91 -9 -101q-8 -48 -31 -48q-13 0 -28 7 l-7 -7q16 -16 34 -16q86 0 86 133v17q0 8 -1 13q21 3 40 19t19 36q0 34 -32 34q-45 0 -66 -68l-59 11q40 97 87 120q18 8 71 17q47 8 51 13v4q-81 -3 -117 -12q-53 -14 -102 -54l-39 -45q-15 -19 -23 -30l-40 8l-5 -15l38 -8l-81 -213q-32 -81 -47 -112q-23 -44 -63 -84 q-97 -95 -219 -95q-157 0 -256 112q-94 106 -94 265q0 151 98 263q102 115 252 115q85 0 154 -42l-24 -30l-35 -42q-51 -77 -51 -153q0 -62 29 -103q33 -45 94 -45q5 0 11.5 0.5t15.5 1.5v11q-8 -1 -14 -1.5t-10 -0.5q-56 0 -87 42q-28 37 -28 95q0 49 37 122q38 75 78 94 q39 -30 70 -81q45 -75 45 -156q0 -104 -68 -193q-74 -96 -173 -96q-57 0 -103 39q-47 39 -47 94q0 38 13 73q0 7 -7 14q-17 -57 -17 -87q0 -59 52 -102q49 -42 109 -42q105 0 181 100q71 94 71 200q0 89 -50 169q-38 60 -64 74q64 60 222 60q96 0 231 -41q29 -10 134 -63 q76 -40 143 -40q39 0 77 25q45 28 45 63zM1019 399q0 -15 -13.5 -26t-28.5 -11q-2 0 -2 3q0 11 10 27q10 18 19 18q15 0 15 -11z" />
<glyph unicode="G" horiz-adv-x="913" d="M1367 -58h-10q-13 -70 -58.5 -108.5t-117.5 -38.5q-76 0 -179 63q-218 133 -290 165q23 23 59 42q55 28 108 28l-2 10q-98 0 -174 -76l-23 13q23 45 68 120l111 183l-10 4l-30 -42q-33 14 -45 14q-45 0 -144 -264q-71 14 -104 15q-38 2 -85 -3q2 57 10 89q9 34 35 83 q70 132 181 216q15 -2 27.5 -3t23.5 -1q14 0 31 1l38 4q37 5 75 13t76 21q114 37 114 84q0 30 -38 47q-27 13 -63 13q-175 0 -383 -153q-110 21 -171 21q-173 0 -285 -114q-112 -112 -112 -285q0 -181 126 -287q-1 -4 -1 -19q0 -72 47 -119q46 -48 119 -48q143 0 256 147 q48 63 83 147l73 90q66 -29 174 -96l101 -62q43 -24 69 -37q68 -34 134 -34q149 0 186 157zM1038 574q0 -38 -108 -72q-86 -28 -142 -32q-35 -3 -113 -3q188 146 300 146q22 0 40 -9q23 -11 23 -30zM694 18l-53 -66l34 76zM615 43q-68 -48 -110 -48q-48 0 -61 58 q22 2 42.5 3.5t39.5 1.5q62 -8 89 -15zM555 470l-78 -88q-31 -36 -47 -61q-57 -87 -57 -181q0 -22 17 -85q-164 -50 -237 -171q-17 -28 -25 -56q-40 34 -71 90q-48 84 -48 185q0 166 110 278q111 112 278 112q26 0 65 -6t93 -17zM630 37q-18 -95 -33 -131 q-11 -14 -33.5 -32.5t-57.5 -40.5q-99 -63 -191 -63q-82 0 -177 50q23 87 111 157q62 48 145 69q53 -62 112 -62q38 0 124 53zM598 -109q0 -17 -34 -72q-111 -180 -273 -180q-72 0 -115 49q-40 46 -40 119q10 -11 60 -27q63 -20 119 -20q131 0 283 131z" />
<glyph unicode="H" horiz-adv-x="940" d="M1200 565q0 39 -60 39q-70 0 -149 -36q-78 -35 -124 -89q-32 -38 -54 -69t-35 -55q-48 -10 -91 -18l-81 -15q5 23 9.5 38t6.5 23q41 88 72 119q24 16 42.5 27t32.5 16q46 -30 72 -30q36 0 36 27q0 26 -56 26q-25 0 -53 -6q-21 15 -80 73q-48 48 -83 67q-49 28 -113 28 q-73 0 -140 -42q-69 -43 -103 -107q-18 -33 -18 -106q-65 -14 -120 -51q-109 -73 -109 -210q0 -96 58 -157q21 -23 69 -52q-26 -84 -26 -132q0 -121 72 -206q77 -92 194 -92q149 0 193 138l-10 -3q-44 -126 -183 -126q-95 0 -169 71q-86 83 -86 218q0 70 25 127 q29 -17 69 -17q168 0 288 127q42 44 65 94q9 16 42 105l172 34l-27 -72l-28 -72q-44 -104 -74 -136q-5 -5 -18 -16l-36 -30q-35 20 -54 20q-33 0 -33 -28q0 -26 32 -26q25 0 57 17q50 -29 81 -29q61 0 129 69v12q-77 -72 -129 -72q-23 0 -66 25q51 17 139 105q51 51 137 248 q110 28 199 77q116 65 116 130zM1191 565q0 -54 -101 -114q-45 -26 -95 -46t-107 -33q19 61 95 137q86 86 157 86q51 0 51 -30zM867 542q0 -16 -17 -16q-22 0 -64 24q31 9 53 9q28 0 28 -17zM750 557q-19 -8 -40 -19l-43 -24q-12 -7 -49 -41q-50 -47 -66 -72l-31 -55 q-14 -25 -25 -48l-42 -9q0 50 -20 85q24 13 48.5 29t49.5 36l-4 7q-20 -17 -45.5 -33t-54.5 -30q-40 54 -80 73q-38 19 -107 19q0 74 15 100q28 46 90 78q60 29 117 29q150 0 287 -125zM418 377q-56 -12 -70 -12q-90 0 -107 101q64 0 102 -18q42 -19 75 -71zM579 8 q0 -6 -19 -10q-10 -2 -16 -3.5t-10 -1.5q-18 0 -18 15q0 17 16 17q18 0 47 -17zM442 272q-52 -181 -203 -181q-19 0 -41 13q5 10 17 23.5t29 30.5q55 52 105 75q61 27 93 39zM442 283l-57 -23q-24 -10 -40 -18q-93 -45 -156 -132q-14 0 -26 29q-10 24 -10 42q0 104 111 148 l-2 6q-119 -41 -119 -154q0 -52 38 -78q-7 -4 -27 -41q-15 -28 -22 -47l-21 13l-15 10q-85 63 -85 176q0 191 220 252q17 -110 118 -110q27 0 75 12q18 -38 18 -85zM493 286l-22 -58l-14 -36q-36 -87 -95 -140q-69 -60 -154 -60q-35 0 -66 19l18 39q7 14 14.5 25.5 t15.5 21.5q22 -15 47 -15q161 0 217 195q31 9 39 9z" />
<glyph unicode="I" horiz-adv-x="789" d="M1032 609l-2 10q-5 12 -37 21q-7 2 -18 4.5t-27 5.5q-62 12 -118 12q-187 0 -291 -95q-50 -46 -70 -105q-72 54 -159 54q-153 0 -237 -111q-35 -48 -53 -111q-4 25 -6 43t-2 29q0 120 85 211q86 92 205 92q52 0 100 -22l2 9q-44 22 -101 22q-124 0 -212 -94 q-88 -92 -88 -218q0 -61 9 -107q0 -146 101 -224q80 -61 190 -61q141 0 227.5 62.5t131.5 196.5q71 14 118 65q22 23 43 73q16 36 16 48l-9 4q-27 -84 -57 -115q-14 -14 -51 -36q-41 -24 -56 -24q0 24 22 83q77 213 224 260q49 16 120 18zM1014 615q-93 -4 -137 -15 q-147 -35 -242 -218q-9 -17 -23 -51.5t-33 -86.5q-33 16 -49 27q-4 99 -29 148q-5 8 -10 17t-12 17q32 104 140 156q91 45 211 45q41 0 97 -9q76 -12 87 -30zM519 288q-28 44 -34 72q-7 54 -9 80q30 -44 36 -84l4 -34q2 -17 3 -34zM519 266q-31 -78 -58 -113 q-71 -90 -197 -90q-166 0 -240 203q57 241 286 241q90 0 155 -56q2 -60 9 -94q11 -48 45 -91zM575 232q-31 -79 -109 -158q-89 -89 -163 -89q-119 0 -196 68q-75 67 -84 187q38 -75 62 -105q69 -83 179 -81q196 1 264 204q17 -11 28.5 -17.5t18.5 -8.5z" />
<glyph unicode="J" horiz-adv-x="940" d="M1180 588q0 17 -26 20l-72 27q-72 27 -171 27q-162 0 -283 -84q-7 -5 -17 -14l-24 -19q-79 73 -195 73q-160 0 -248 -132q-47 -72 -68 -172l-28 -48q-9 -17 -11 -20q-28 -52 -28 -141q0 -135 84 -220q85 -87 219 -87q124 0 228 72q98 68 152 184q14 -2 24 -3t17 -1 q59 0 109 62q44 56 47 101q-1 3 -2 8t-3 13q-48 -172 -150 -172q-6 0 -36 6l106 236q39 84 49 104q89 170 267 170q9 0 25.5 -4t22.5 -4q12 0 12 18zM1130 594q-39 -1 -68 -2.5t-49 -5.5q-133 -24 -218 -124q-46 -53 -86 -143l-101 -223q-9 0 -25 15q12 55 12 84 q0 74 -38 135q-6 10 -18.5 24.5t-32.5 34.5q39 101 83 138q31 -34 49 -79l8 8q-22 49 -50 80q32 23 54 37.5t35 21.5q107 56 226 56q72 0 148 -22q66 -19 71 -27v-8zM580 536q-9 -7 -23 -26.5t-33 -53.5q-17 -30 -30 -60q-86 56 -155 56q-87 0 -142 -28q-61 -28 -105 -97 q31 102 64 152q85 129 236 129q62 0 125 -30q46 -23 63 -42zM581 195q0 -35 -12 -72q-75 78 -75 161q0 18 2 40.5t6 49.5q79 -73 79 -179zM562 108q0 -8 -23 -37q-74 -90 -190 -90q-124 0 -194 105q-61 91 -61 222q30 50 59 75q70 57 186 57q64 0 151 -57q-9 -66 -9 -99 q0 -94 81 -176zM601 81q-35 -95 -105 -173q-88 -97 -184 -97q-126 0 -208 85q-83 86 -83 209q0 101 61 195q-1 -9 -1.5 -16.5t-0.5 -12.5q0 -109 67 -198q78 -104 202 -104q144 0 226 130q18 -10 26 -18z" />
<glyph unicode="K" horiz-adv-x="1052" d="M1149 686v7q-38 21 -71 21q-106 0 -178 -96l-67 -90l-41 -55q-19 -25 -38.5 -42t-42 -28t-49 -16t-59.5 -6q35 167 121 213q31 -13 53 -19t36 -7q35 -2 35 31q0 25 -35 27q-30 1 -81 -17l-107 79l-45 32q-49 29 -108 29q-109 0 -192 -74t-83 -182q0 -5 0.5 -11.5 t1.5 -15.5l-38 -12q-14 -5 -19 -7q-71 -28 -109 -98q-33 -62 -33 -145q0 -99 70 -163q68 -62 168 -62q154 0 255 132q22 29 41 65.5t35 81.5q8 23 14 43l11 37q22 0 42 -24q20 -22 22 -46l11 -178q3 -54 46 -85q41 -29 95 -29q68 0 121 48q53 50 53 116q0 45 -26.5 72.5 t-71.5 27.5q-13 0 -13 -9v-1q45 0 71 -23.5t26 -66.5q0 -52 -39 -98q-41 -48 -91 -48t-84 75q-4 10 -6 40q-1 12 -0.5 28.5t1.5 38.5t1.5 38.5t0.5 27.5q0 54 -54 83q-44 23 -104 23l5 18q51 -9 93 -9q97 0 138 53q16 21 42 84q34 82 45 103q58 108 160 108q24 0 71 -19z M837 599q0 -17 -26 -17q-47 10 -66 18q38 11 66 13q26 2 26 -14zM407 391q-35 -16 -85 -16q-17 0 -34.5 6.5t-32.5 17.5t-26 25.5t-16 31.5q11 2 21 3.5t19 1.5q94 0 154 -70zM717 603q-62 -28 -127 -99q-69 -75 -85 -136q-46 -168 -81 -238q-73 -139 -186 -139 q-93 0 -160 61q-68 62 -68 152q0 175 139 233q17 5 30.5 9.5t22.5 6.5q11 -36 46 -63q37 -27 75 -27q11 0 24 1l29 4q38 6 38 13q22 -28 22 -97q0 -81 -56 -137q-55 -55 -136 -55q-42 0 -63.5 27t-21.5 69q0 93 93 138l-2 9q-45 -19 -74 -59t-29 -88q0 -46 26 -77t71 -31 q70 0 129 46q75 57 75 158q0 63 -23 104q23 14 49 37l15 15q10 9 24 25l-7 8q-39 -46 -88 -76q-67 76 -164 76q-11 0 -22 -1t-21 -3q-1 9 -1.5 15.5t-0.5 10.5q0 88 79 148q73 56 163 56q56 0 139 -30q82 -28 127 -66z" />
<glyph unicode="L" horiz-adv-x="978" d="M910 217q0 86 -87 137l-6 -11q77 -57 77 -126q0 -107 -97 -159q-77 -41 -194 -41q-111 0 -249 47q66 87 92 140q15 31 26.5 71t19.5 89q101 42 169 113q81 84 81 181q0 70 -79 70q-38 0 -84 -36q-38 -29 -66 -66q-47 -62 -60 -90q-29 -59 -61 -192q-51 -30 -103 -30 q-84 0 -140 65q-54 61 -54 147q0 113 83 184q80 68 194 68q5 0 27 -2t60 -6q-32 18 -87 18q-119 0 -201 -70q-86 -75 -86 -192q0 -90 56 -155q58 -67 148 -67q36 0 99 24q-17 -64 -42.5 -123.5t-57.5 -116.5q-103 55 -165 55q-42 0 -76 -19q-43 -22 -43 -60q0 -46 50 -69 q37 -18 91 -18q38 0 81 17q13 5 32 14l43 24l75 -35q32 -15 57 -23q70 -24 141 -24q123 0 223 70q113 80 113 197zM729 658q0 -74 -84 -165q-77 -83 -154 -112q0 91 42 201q52 136 130 136q66 0 66 -60zM271 55q-14 -13 -31.5 -24.5t-37.5 -20t-40 -13.5t-38 -5 q-38 0 -69 16q-38 21 -38 56q0 26 30 46q26 17 55 17q58 0 169 -72z" />
<glyph unicode="M" horiz-adv-x="1121" d="M1460 658q-95 -6 -161 -29q-33 -12 -124 -63q-221 -125 -426 -423q36 106 39 135q1 7 0 76q0 47 3 76q14 110 53 162q12 -5 20 -5q23 0 23 17q0 15 -21 15q-18 0 -39 -12q-165 54 -196 54q-103 0 -167 -38q-78 -48 -78 -145q0 -54 31 -88q33 -38 85 -38q39 0 70 46h-6 q-21 -21 -51 -21q-44 0 -72 37q-25 34 -25 79q0 84 68 126q55 34 145 34q35 0 187 -52q-63 -38 -129 -140q-21 -32 -59 -98l-94 -167q-115 -208 -258 -208q-125 0 -204 79q-67 67 -67 148q0 98 63 172q65 77 163 77q72 0 127 -44q57 -47 57 -119q0 -68 -49 -121 q-51 -57 -117 -57q-52 0 -80.5 35.5t-28.5 89.5q0 33 21 84l-12 3q-20 -58 -20 -87q0 -59 30 -96q31 -40 90 -40q71 0 125 60q52 56 52 129q0 77 -60 127q-58 47 -135 47q-102 0 -169 -79q-66 -78 -66 -181t89 -174q83 -64 191 -64q67 0 142 32q82 36 109 92l57 122l36 78 q65 138 121 199q-44 -92 -54 -150q-12 -65 -12 -228q0 -48 -7 -66q-5 -15 -11.5 -32t-14.5 -36q0 -5 5 -13q30 33 103 139l83 117q35 48 58 77q73 91 170 165q-212 -269 -212 -390q0 -43 19 -69q22 -31 62 -31q60 0 113 111l-7 -2h-4q-4 -10 -10.5 -22.5t-17.5 -26.5 q-33 -45 -60 -45q-32 0 -32 46q0 61 68 205q124 261 201 306q75 44 127 63q68 23 149 29z" />
<glyph unicode="N" horiz-adv-x="1041" d="M1355 684q0 44 -66 44q-68 0 -141 -81q-23 11 -64 25l-101 33q-156 48 -230 48q-138 0 -200 -28q-63 -28 -109 -97q-47 -69 -51 -139q-19 2 -36 3.5t-31 1.5q-135 0 -231 -96q-95 -97 -95 -231q0 -121 83 -189q77 -65 201 -65q210 0 357 282l159 315q-14 -95 -15 -150 q-1 -20 1 -48.5t6 -65.5q4 -39 6 -67.5t2 -46.5q0 -30 -20 -84q-7 -17 -11.5 -29t-7.5 -19q0 -10 13 -10q12 0 41 45l72 115q55 88 117 204q8 14 35 66l74 143l20 37q10 18 21 35q49 -17 93 -17q36 0 69 14q39 18 39 52zM1346 684q0 -29 -37 -44q-30 -11 -62 -11 q-27 0 -87 15q58 75 129 75q18 0 37.5 -9.5t19.5 -25.5zM1143 638q-20 -30 -39 -68q-86 -167 -111 -219q-22 -42 -57 -102t-85 -138q34 95 34 138l-20 125l-15 95q-5 32 -5 34q0 57 34 103q11 14 31 33t50 44q-92 31 -154 31q-82 0 -169 -36q-110 -47 -110 -115 q0 -35 40 -53l2 9q-32 20 -32 44q0 62 108 106q88 36 161 36q48 0 132 -27q-117 -102 -150 -168l-97 -194l-61 -121q-139 -274 -346 -274q-120 0 -195 63q-81 66 -81 183q0 134 92 226q91 93 226 93q13 0 29.5 -1.5t37.5 -5.5q0 -64 39 -113q41 -48 103 -57q0 -110 -52 -183 q-35 -50 -95 -84q-61 -34 -118 -34q-63 0 -104 44q-40 43 -40 109q0 81 54 147q58 70 137 70q51 0 88 -37q38 -36 38 -86q0 -26 -23 -78q1 0 4 1l7 1q22 43 22 76q0 57 -40 94q-41 38 -96 38q-86 0 -144 -72q-57 -68 -57 -154q0 -35 11 -64.5t31.5 -51t48.5 -33.5t63 -12 q62 0 124 35q150 84 150 273q146 20 146 154q0 24 -18 74l-9 -2q17 -46 17 -72q0 -125 -138 -141q-16 64 -45 100q-28 37 -86 62q27 151 156 213q100 48 186 48q105 0 390 -106zM533 321q-54 11 -88 54t-34 98q56 -22 84 -61q19 -27 38 -91z" />
<glyph unicode="O" horiz-adv-x="600" d="M570 476q0 51 -29 95q-34 49 -82 49q-83 0 -158 -103q-70 -97 -70 -183q0 -36 19.5 -61t54.5 -25q67 0 119 67q49 61 49 131q0 24 -13 46.5t-35 22.5q-26 0 -65 -39l7 -7q31 36 58 36q18 0 28 -22q9 -18 9 -37q0 -51 -43 -113q-50 -74 -114 -74q-31 0 -48 23 q-15 19 -15 52q0 82 67 176q72 101 150 101q56 0 56 -81q0 -119 -108 -315q-49 -88 -102 -146q-78 -85 -147 -85q-39 0 -63 30q-21 28 -21 68q0 175 165 405q41 57 78 88t103 63h-42q-80 -11 -172 -95q-85 -77 -140 -174q-66 -114 -66 -211q0 -74 41 -126q43 -54 117 -54 q97 0 195 82q81 67 138 166q27 46 52 122q27 81 27 128z" />
<glyph unicode="P" horiz-adv-x="1046" d="M1259 630q-74 33 -159 33q-68 0 -159 -32q-92 53 -222 53q-159 0 -249 -94q-56 25 -113 25q-147 0 -252 -109q-105 -110 -105 -256q0 -135 90 -211q86 -71 222 -71q132 0 244 64q139 80 185 232q28 -3 71 -3q93 0 164 50q80 56 80 145q0 41 -25 84q-20 25 -38 45l-33 36 q71 34 140 34q83 0 157 -31zM984 487q0 -81 -59 -142q-59 -60 -140 -60h-22q-9 0 -16 1l69 182q33 86 122 139q46 -34 46 -120zM612 318q-26 -14 -52 -14q-61 0 -98 43q-38 44 -38 103q0 50 49 126q73 -32 112 -104q27 -47 27 -154zM917 621q-43 -25 -81 -55t-70 -67 q-30 -33 -70 -96l-69 -144q-64 -135 -88 -159q-115 -115 -258 -115q-121 0 -198 71q-75 72 -75 194q0 140 104 249q103 108 245 108q46 0 107 -26q-51 -74 -51 -131q0 -33 10.5 -61.5t30 -49t46.5 -32.5t60 -12q27 0 50 10q-15 -60 -55 -113q-80 -107 -211 -107 q-98 0 -166 62q-70 64 -70 162q0 21 18 75l-10 -3q-18 -36 -18 -72q0 -105 72 -169q68 -64 174 -64q204 0 280 235q28 31 38 47l-3 15q-23 -36 -35 -48q0 152 -81 221q-10 8 -26 18t-38 21q91 91 240 91q128 0 198 -55z" />
<glyph unicode="Q" horiz-adv-x="664" d="M640 497q0 72 -56 126t-127 54q-91 0 -174 -73q-87 -75 -87 -163q0 -46 22 -74q26 -32 68 -32q58 0 102 68q39 61 39 122q0 59 -49 59q-88 0 -122 -147q1 -11 8 -17q4 27 12.5 51t21.5 46q33 56 80 56q40 0 40 -48q0 -56 -38 -115q-42 -65 -94 -65q-28 0 -46 28 q-16 23 -16 53q0 44 35 102q41 67 80 99q52 42 118 42q48 0 79 -26.5t31 -72.5q0 -56 -36 -141q-33 -79 -54 -100q-54 -76 -146 -168l-41 -39l-37 -35q-2 1 -18.5 5t-45.5 12q-36 10 -66 10q-40 0 -76 -17q-43 -21 -43 -59q0 -25 24 -40q20 -13 48 -13q72 0 152 45l36 -16 q16 -7 26 -12q53 -20 116 -18q57 2 94 25q43 28 43 84q0 48 -48 71l-2 -13l25 -16q14 -14 14 -42q0 -30 -21.5 -49.5t-51.5 -19.5q-52 0 -161 38q342 235 342 435zM207 45q-67 -53 -131 -53q-21 0 -40 13t-19 33q0 18 16 30t34 12q43 0 140 -35z" />
<glyph unicode="R" horiz-adv-x="1139" d="M1234 668q-71 30 -137 30q-85 0 -151 -27q-20 -7 -23 -10q-80 48 -195 48q-182 0 -268 -101q-59 18 -108 18q-144 0 -248 -110t-104 -254q0 -130 86 -210q82 -75 216 -75q110 0 220 45q128 53 166 142l61 137q44 -29 44 -68q0 -11 -1 -27.5t-3 -39.5q-2 -22 -3 -38.5 t-1 -27.5q0 -58 49 -92q43 -31 103 -31q52 0 87 24q40 28 40 78t-40 105l-8 -6q36 -62 36 -99q0 -19 -7.5 -35t-20.5 -28t-30 -18.5t-36 -6.5q-37 0 -60.5 24t-23.5 61v92q0 44 -17 73q-5 8 -17.5 22.5t-32.5 34.5q99 13 162 55q80 54 80 143q0 74 -79 135q-21 16 -27 21 q67 37 154 37q73 0 135 -27zM976 511q0 -79 -59 -138q-58 -58 -140 -58q-4 0 -10 0.5t-14 1.5q11 51 22.5 91.5t24.5 69.5q51 124 123 165q53 -38 53 -132zM605 334q-36 -16 -77 -16q-111 0 -111 149q0 58 44 126q66 -32 107 -87q42 -59 42 -130q0 -20 -5 -42zM907 652 q-153 -87 -215 -227l-68 -157l-41 -95q-83 -182 -281 -182q-131 0 -211 68q-83 74 -83 203q0 139 103 248t241 109q42 0 100 -20q-46 -52 -46 -132q0 -161 122 -161q45 0 77 16q-26 -110 -93 -177q-74 -74 -182 -74q-161 0 -233 165q-14 0 -14 8q71 -182 247 -182 q111 0 190 79q75 73 97 185q37 21 45 56l-5 14q-4 -30 -38 -56q3 13 3 32q0 113 -88 188q-22 19 -65 44q85 97 259 97q115 0 179 -49z" />
<glyph unicode="S" horiz-adv-x="710" d="M696 616q0 48 -36 54q-34 0 -47 -12q-41 53 -141 53q-112 0 -207 -68q-104 -75 -104 -184q-60 -40 -91 -78q-68 -86 -68 -209q0 -136 96 -233q97 -97 232 -97q126 0 219 90v8q-105 -87 -219 -87q-132 0 -225 94q-92 94 -92 225q0 116 62 199q19 25 40.5 44t47.5 32 q10 -39 29 -62q-69 -86 -69 -175q0 -93 64 -156t159 -63q103 0 177 69q75 69 75 171q0 53 -24 205q8 0 62 65q60 72 60 115zM610 642q7 -13 7 -29q0 -22 -13 -44q-14 -27 -33 -28q0 51 39 101zM669 624q0 -83 -96 -171l-2 75q12 3 22.5 11.5t18.5 20t12.5 25t4.5 26.5 q0 21 -10 37q2 0 10.5 5t13.5 5q26 0 26 -34zM604 654q-23 -12 -40 -51q-14 -36 -14 -65q-48 0 -97.5 -3t-100.5 -10q-113 -14 -180 -63q3 108 112 180q92 61 188 61q89 0 132 -49zM549 528l-5 -96q-53 -36 -87 -51q-16 17 -30 28.5t-25 17.5q-28 14 -69 14q-72 0 -132 -48 q-18 21 -28 59l31 17l19 11q55 28 134 36q96 10 192 12zM445 375q-59 -32 -115 -32q-87 0 -122 41q48 48 125 48q68 0 112 -57zM543 369q0 -114 -59 -223q-71 -128 -177 -128q-87 0 -136 78q-36 57 -38 114q-1 83 65 166q37 -43 132 -43q58 0 123 31q16 -31 16 -63 q0 -44 -30 -78q-28 -34 -72 -34q-45 0 -45 42q0 31 56 36q-22 37 -45 37q-27 0 -45 -20.5t-18 -48.5q0 -30 22.5 -50t53.5 -20q48 0 92 36q45 37 45 84t-20 85q53 28 80 47v-48z" />
<glyph unicode="T" horiz-adv-x="990" d="M1416 603q-55 -11 -81 -11q-65 0 -149 42l-92 47l-59 30q-86 42 -176 42q-80 0 -183 -47q-102 112 -266 112q-180 0 -301 -142q-99 -116 -107 -246l9 -1q4 57 45 140q55 111 142 172q94 67 212 67q154 0 250 -108q-38 -17 -106 -106q-74 24 -107 24q-152 0 -251 -103 q-98 -104 -98 -256q0 -148 100 -248t249 -100q159 0 278 89q120 89 160 243q39 160 51 216q24 114 201 136l2 11q-116 -11 -174 -42q-81 -44 -110 -130l-54 -165l-39 -118q-35 -103 -122 -166q-88 -65 -193 -65q-140 0 -240 99q-100 100 -100 240q0 147 97 247t243 100 q21 0 101 -24q-51 -77 -51 -144q0 -81 42 -136q47 -62 124 -62q27 0 45 6q-10 -35 -24.5 -66.5t-34.5 -60.5q-18 -27 -73 -85l8 -6q110 95 143 231q35 38 41 47q32 50 32 108q0 73 -47 170q-31 64 -61 100q72 18 167 18q75 0 237 -62q161 -61 223 -61q40 0 84 10q2 2 6.5 7 t6.5 7zM786 414q0 -83 -57 -135q1 16 1.5 27t0.5 18q0 96 -38 157t-123 106q47 57 107 92q20 -20 57 -91q52 -97 52 -174zM712 263q-28 -11 -49 -11q-71 0 -114 61q-39 54 -39 128q0 31 21 78q16 39 33 57q152 -80 152 -253q0 -16 -1 -31t-3 -29z" />
<glyph unicode="U" horiz-adv-x="865" d="M1543 423q0 94 -89 147q-77 45 -176 45q-84 0 -132 -13q-41 -11 -147 -51q-34 26 -63 43.5t-54 27.5q-55 20 -135 20h-46v-6h54q80 0 216 -97q-204 -132 -322 -321l-43 -71l-28 -45q-70 -109 -140 -109q-37 0 -37 45q0 44 48 110l54 74l35 46l32 44q12 17 16 24 q17 32 17 73q0 108 -61.5 167.5t-169.5 59.5q-167 0 -273 -100q-94 -88 -94 -191q0 -69 47 -116q49 -47 118 -47q101 0 166 42l-3 6q-69 -39 -163 -39q-64 0 -111 44q-45 45 -45 110q0 99 93 185q106 97 265 97q79 0 129 -39q53 -44 53 -121q0 -38 -51 -108l-59 -81l-37 -52 q-51 -74 -51 -139q0 -39 22 -70q24 -35 60 -35q61 0 142 97q0 -97 59 -97q73 0 126 68v18q-56 -68 -111 -68q-15 0 -15 15q0 42 111 230q83 141 245 270q195 -207 397 -207q45 0 83 21q68 38 68 94zM1533 423q0 -46 -49 -77q-43 -28 -92 -28q-153 0 -375 216q147 71 261 71 q96 0 168 -42q87 -51 87 -140z" />
<glyph unicode="V" horiz-adv-x="597" d="M1186 443q0 98 -68 158t-166 60q-136 0 -225 -82q-40 -36 -94 -122q-179 -288 -319 -429q108 169 108 252q0 38 -12 112q-12 73 -12 112q0 69 42 101q6 -1 10.5 -1.5t8.5 -0.5q47 0 47 26q0 14 -16 14q-22 0 -54 -26l-76 26q-81 28 -140 28q-88 0 -149 -42 q-69 -48 -69 -132q0 -45 26.5 -80t69.5 -46l-20 23l-15 17q-29 38 -29 79q0 79 53 126t133 47q76 0 207 -55q-48 -30 -74 -110q-16 -48 -28 -128l-6 -221q-1 -48 -12 -74l-42 -95q7 -3 18 -3q148 152 254 305l53 78l56 91q38 62 107 112q98 71 200 71q94 0 156 -47 q68 -53 68 -144q0 -98 -67 -177q-70 -85 -166 -85q-73 0 -122 48t-49 120q0 126 122 168v7q-9 0 -34 -13q-98 -51 -98 -162q0 -77 52 -128t129 -51q102 0 174 87q68 83 68 186zM493 626q0 -15 -30 -15q-2 0 -6 0.5t-9 1.5q19 19 35 19q10 0 10 -6z" />
<glyph unicode="W" horiz-adv-x="897" d="M1500 435q0 102 -71 164q-68 60 -170 60q-84 0 -175 -55q-91 -54 -133 -127q-94 -165 -186 -277l-71 -86l-68 -78l42 72q17 29 25 45q34 69 34 128q0 17 -3 43t-8 60q-5 35 -8 61t-3 43q0 52 39 120q-50 -44 -66 -75q-107 -206 -195 -321q-19 -25 -43 -52l-54 -58 l-44 -45q-20 -20 -36 -34q117 187 117 258q0 40 -12 123q-12 82 -12 123q0 26 48 76q9 0 18 1.5t19 3.5q26 8 26 21t-24 13q-18 0 -43 -24q0 2 -71 29q-80 30 -138 30q-95 0 -157 -40q-74 -47 -74 -136q0 -84 93 -120v6q-33 26 -46 44q-17 26 -17 61q0 84 59 134 q55 45 142 45q84 0 203 -60q-60 -75 -68 -90q-42 -71 -42 -138q0 -94 -3.5 -161.5t-10.5 -110.5t-52 -122q0 -11 11 -11q14 0 85 71q44 45 76 81t52 64q87 118 144 213v-148q0 -52 -1 -63q-2 -45 -8.5 -79t-17.5 -57q-32 -69 -32 -75t9 -6q25 0 154 162l101 129q42 57 68 98 q93 141 158 194q89 73 220 73q91 0 149 -55t58 -145q0 -93 -64 -172q-68 -84 -157 -84q-79 0 -134 47q-53 48 -53 127q0 111 130 166l-3 9q-139 -54 -139 -175q0 -82 58 -134t141 -52q97 0 168 86q66 81 66 182zM497 627q0 -12 -41 -12q13 17 30 19q11 2 11 -7z" />
<glyph unicode="X" horiz-adv-x="734" d="M950 648l-9 6q-22 0 -67 -19q-95 -38 -255 -204q-22 166 -100 188q-5 1 -15 1h-26q-28 25 -61 25q-54 0 -101 -29q-33 -21 -88 -82l5 -6q29 31 51.5 51.5t38.5 30.5q42 27 93 27q29 0 51 -22q-205 -88 -259 -264q-85 -29 -142 -95q-63 -72 -63 -157q0 -29 10.5 -52.5 t28.5 -40.5t43 -26.5t55 -9.5q82 0 186 78q23 17 60 52l92 88q3 -28 6 -51.5t5 -43.5q16 -118 122 -118q27 0 59 15l-3 9q-32 -15 -56 -15q-52 0 -52 85q0 43 21 130q21 88 21 127l121 146l63 76q55 64 122 88q26 9 43 12zM483 555q0 -69 -43 -140q-41 -67 -99 -110 q-29 50 -96 50q-5 0 -11.5 -0.5t-15.5 -1.5q25 83 99 154q67 64 156 99q10 -23 10 -51zM332 299q-41 -26 -70 -26q-48 0 -48 54q0 3 0.5 7t1.5 9q9 1 15.5 1.5t11.5 0.5q64 0 89 -46zM524 512l-19 -203l-131 -156q-48 -57 -64 -73q-98 -96 -170 -96q-53 0 -89 30 q-39 33 -39 85q0 80 59 150q55 63 136 91q-1 -5 -1.5 -9t-0.5 -8q0 -25 16 -42.5t41 -17.5q36 0 75 27q1 -6 1.5 -10.5t0.5 -8.5q0 -60 -66 -132q-65 -71 -124 -71q-23 0 -38 15t-15 38q0 38 53 100l-6 4q-56 -53 -56 -104q0 -24 19 -43t43 -19q65 0 133 72q69 73 69 138 q0 12 -5 27q64 40 105 113q41 74 41 147q0 22 -8 51q40 -40 40 -95z" />
<glyph unicode="Y" horiz-adv-x="1049" d="M1611 -94q0 104 -68 181q-70 79 -176 79q-72 0 -124 -41q-55 -43 -55 -115q0 -61 39 -101q40 -40 102 -40q10 0 10 11q-137 18 -137 130q0 66 51 105q47 35 114 35q94 0 165 -75q67 -73 67 -169q0 -132 -93 -219t-226 -87q-171 0 -350 119q-91 61 -152 128l10 22l11 22 l63 151l40 94q76 186 184 324q151 193 299 193q143 0 160 -120l11 -6q0 42 -16 67q-42 67 -173 67q-236 0 -438 -327q-25 -39 -70 -139q-38 -83 -61 -118q-50 -77 -96 -77q-42 0 -42 58q0 34 10 67q17 37 58 100q21 32 35.5 56.5t22.5 41.5q27 57 27 110q0 86 -60 145 q-59 60 -145 60q-52 0 -94 -11l-71 -26q-24 78 -73.5 111t-133.5 33q-234 0 -234 -134q0 -58 56 -96q49 -33 111 -33q47 0 83 13q34 12 79.5 34.5t103.5 56.5q0 -53 -7 -80q-20 -53 -32 -76l8 -2q41 68 41 141q0 16 -1 21q90 41 164 41q33 0 60.5 -11t47.5 -30.5t31 -47 t11 -60.5q0 -55 -40 -116l-75 -117q-40 -61 -40 -136q0 -49 19 -83q24 -41 70 -41q36 0 80 41q8 8 24 26l38 44q-31 -155 -48 -200q-8 -20 -21 -38l-51 46q-19 18 -26 24q-137 117 -291 117q-118 0 -209 -56q-105 -66 -105 -178t106 -176q89 -55 208 -55q249 0 376 253 q263 -248 507 -248q138 0 234 90q97 90 97 227zM433 597q-184 -106 -264 -106q-60 0 -106 30q-54 34 -54 90q0 128 227 128q160 0 197 -142zM759 -148q-38 -71 -93 -120q-113 -101 -269 -101q-99 0 -186 43q-109 52 -109 141q0 109 97 172q82 52 198 52q120 0 225 -69 q26 -17 60 -46.5t77 -71.5z" />
<glyph unicode="Z" horiz-adv-x="676" d="M707 499q0 71 -59 118q-53 42 -128 44q-75 1 -165 -48q-17 3 -27 3q-36 0 -111 -24q-47 -15 -96 -60q-78 -71 -117 -180q2 -1 3.5 -2t3.5 -2q30 89 87 152q21 24 47.5 43.5t56 33.5t61 21.5t61.5 7.5q4 0 9 -0.5t11 -1.5l-28 -18l-37 -28q-187 -142 -187 -275 q0 -26 8.5 -48.5t24 -39t36.5 -26.5t47 -10q97 0 171 122q64 106 64 212q0 75 -72 116q22 15 62 28q42 14 66 14q51 0 79.5 -32.5t28.5 -83.5q0 -109 -122 -267q-53 -68 -183 -198q-168 -2 -168 -56q0 -26 39 -26q34 0 153 60q15 0 26 -23q10 -19 10 -35q0 -15 -10 -41h-20 q-12 0 -28 -1t-28 -1h-20q-98 0 -204 -56q-120 -66 -120 -157q0 -51 50 -77q38 -20 95 -20q112 0 216 89q105 90 121 200l67 -13l1 9l-69 16q-3 94 -72 120q78 55 136 102t96 85q134 136 134 254zM434 493q0 -99 -62 -205q-71 -120 -164 -120q-44 0 -76 35q-31 34 -31 80 q0 149 257 320q76 -31 76 -110zM278 52q-79 -52 -107 -52q-19 0 -19 13q0 24 51 35q9 2 21 3t26 2q12 1 19 0.5t9 -1.5zM348 -63q-23 -101 -139 -177q-112 -74 -217 -74q-53 0 -53 48q0 68 92 133q103 72 240 72q16 0 35 -0.5t42 -1.5z" />
<glyph unicode="[" horiz-adv-x="300" d="M702 930h-198l-585 -1049h196l12 22h-110l563 1005h110z" />
<glyph unicode="\" horiz-adv-x="237" d="M260 218l-8 7q-47 -75 -108 -130q-52 -47 -136 -99l6 -11q167 95 246 233z" />
<glyph unicode="]" horiz-adv-x="300" d="M601 930h-198l-12 -22h110l-561 -1005h-110l-12 -22h196z" />
<glyph unicode="^" horiz-adv-x="265" d="M299 493v40l-114 37l-114 -37v-40l114 38z" />
<glyph unicode="_" horiz-adv-x="500" d="M503 -123v50h-511v-50h511z" />
<glyph unicode="`" horiz-adv-x="300" d="M222 365l-64 134q-18 23 -40 23q-18 0 -30.5 -12t-12.5 -30q0 -21 21 -40l100 -75h26z" />
<glyph unicode="a" horiz-adv-x="426" d="M449 218l-8 7l-53 -61l-65 -67q-97 -97 -131 -97q-22 0 -22 20q0 14 17 46l131 246q-5 -2 -17 -14q-12 -13 -16 -13q-7 0 -21 3t-21 3q-9 0 -21 -15q-17 24 -51 24q-85 0 -154 -66q-68 -65 -68 -150q0 -97 66 -97q51 0 95 57q27 -57 76 -57q72 0 263 231zM207 258 q0 -18 -102 -192q-39 -66 -79 -66q-20 0 -20 33q0 54 57 146q64 103 123 103q21 0 21 -24z" />
<glyph unicode="b" horiz-adv-x="399" d="M422 218l-8 7q-67 -88 -172 -91q24 36 24 91q0 75 -75 75q-28 0 -44 -34q-12 -26 -12 -58q0 -57 36 -76q-18 -38 -54 -81q-44 -53 -70 -51q-32 0 -32 30t50 125l51 96l19 37q56 23 144 106q114 109 114 200q0 15 -8.5 28.5t-22.5 13.5q-88 0 -254 -229q-26 -37 -49 -76 t-43 -82q-49 -108 -49 -187q0 -32 16.5 -53.5t48.5 -21.5q50 0 116 45q61 43 88 90q115 1 186 96zM351 584q-2 -38 -58 -127q-68 -108 -152 -152q18 42 35 76t33 63l28 46l32 49q52 76 71 76q12 0 11 -31zM204 248q0 -38 -27 -104q-28 21 -28 64q0 24 7 45q10 31 29 31 t19 -36z" />
<glyph unicode="c" horiz-adv-x="389" d="M411 218l-8 7q-67 -93 -154 -154q-104 -72 -201 -72q-45 0 -45 36q0 56 61 153q64 102 109 102q34 0 34 -21q0 -9 -11 -21t-20 -12q-13 0 -29 13q-10 -13 -10 -34q0 -26 36 -26q23 0 41.5 18t18.5 41t-18.5 37.5t-41.5 14.5q-95 0 -159 -66q-65 -65 -65 -159 q0 -88 99 -88q103 0 207 72q85 60 156 159z" />
<glyph unicode="d" horiz-adv-x="432" d="M587 594q0 35 -29 35q-68 0 -183 -148q-70 -89 -139 -208q-27 27 -51 27q-97 0 -165 -64q-69 -65 -69 -159q0 -35 19 -61q23 -29 53 -29q28 0 45 13q11 8 46 51q14 -37 27 -50q20 -17 53 -17q35 0 99 59q21 20 61 63l101 112l-8 7l-93 -102q-39 -41 -62 -63 q-65 -60 -94 -60q-21 0 -21 24q0 22 113 231q80 37 184 147q113 119 113 192zM545 587q0 -70 -89 -171q-72 -82 -149 -130q183 323 220 323q18 0 18 -22zM215 260q0 -36 -83 -154l-40 -56l-13 -19q-24 -31 -52 -31q-22 0 -22 33q0 50 65 150q69 104 115 104q10 0 20 -8.5 t10 -18.5z" />
<glyph unicode="e" horiz-adv-x="308" d="M330 218l-8 7q-38 -63 -119 -134q-102 -90 -168 -90q-27 0 -27 37q0 31 18 70q46 0 116 32q91 42 91 105q0 23 -17 39t-40 16q-70 0 -143 -60q-84 -69 -84 -165q0 -38 24.5 -63t61.5 -25q73 0 178 96q81 75 117 135zM183 264q0 -35 -55 -84q-56 -48 -92 -48 q78 155 126 155q21 0 21 -23z" />
<glyph unicode="f" horiz-adv-x="237" d="M371 566q0 14 -12.5 25.5t-26.5 11.5q-63 0 -169 -138q-33 -43 -66.5 -93t-67.5 -108h-59l-10 -18h58l-62 -120l-82 -172q-75 -160 -109 -209q-56 -80 -113 -80q-32 0 -57 19q-28 19 -28 51q0 22 15 51q16 33 37 33t21 -26q0 -12 -31 -16q15 -26 33 -26q21 0 38 13t17 34 q0 20 -14.5 35.5t-34.5 15.5q-38 0 -67 -32q-28 -32 -28 -73q0 -40 28.5 -65t70.5 -25q78 0 152 80q68 74 157 245l135 267h71l10 18h-55q84 43 159 126q90 97 90 176zM332 558q0 -47 -48 -117q-62 -92 -177 -177q17 38 43 84l59 104q82 135 106 135q17 0 17 -29z" />
<glyph unicode="g" horiz-adv-x="347" d="M369 218l-8 7q-85 -142 -247 -244q26 62 46 104.5t34 66.5l52 90l44 70q-2 -1 -6 -5l-13 -11l-17 -14l-12 5q-12 4 -26 4q-8 0 -21 -9q-17 18 -39 18q-78 0 -145 -70q-66 -69 -66 -147q0 -96 70 -96q26 0 60 40l-30 -77q-38 -14 -73.5 -31.5t-67.5 -39.5 q-90 -62 -90 -122q0 -17 7.5 -31t19.5 -23.5t28 -15t34 -5.5q54 0 98 53q32 40 63 109q7 16 18.5 45t27.5 74q179 112 259 255zM179 266q0 -36 -60 -145q-65 -119 -99 -119q-18 0 -18 25q0 53 55 151q59 107 104 107q18 0 18 -19zM40 -66q-23 -70 -63 -130q-56 -83 -106 -83 q-42 0 -42 39q0 49 83 108q67 48 128 66z" />
<glyph unicode="h" horiz-adv-x="342" d="M390 608q0 30 -36 30q-68 0 -207 -201q-40 -58 -79 -123l-80 -139l-43 -81l-63 -118q9 5 22 18q10 7 16 7q5 0 17.5 -3t18.5 -3q14 0 40 48l26 53l28 54q35 63 72 93t61 30q8 0 8 -10q0 -8 -65 -108q-64 -97 -64 -122q0 -22 16 -34t39 -12q45 0 120 77q13 13 45 52 l83 102l-8 7l-79 -93l-38 -43q-77 -81 -106 -81q-14 0 -14 18l66 101q65 100 65 131q0 42 -41 42q-50 0 -129 -75l10 22l10 22q74 38 163 124q126 121 126 215zM345 593q0 -53 -60 -135q-69 -95 -172 -162q99 171 132 222q64 100 90 100q10 0 10 -25z" />
<glyph unicode="i" horiz-adv-x="236" d="M198 416q0 15 -10.5 24.5t-25.5 9.5q-21 0 -36 -15.5t-15 -36.5q0 -16 11 -27.5t27 -11.5q20 0 34.5 18t14.5 39zM258 218l-8 7q-39 -47 -111 -120q-98 -99 -121 -99q-22 0 -22 26q0 20 8 38l127 242q-6 -2 -20 -16t-18 -14q-1 0 -13 4.5t-21 4.5q-15 0 -27 -21l-38 -68 q-15 -27 -23 -43q-37 -67 -37 -114q0 -58 62 -58q65 0 262 231z" />
<glyph unicode="j" horiz-adv-x="198" d="M188 413q0 37 -35 37q-21 0 -38 -17t-17 -38q0 -38 37 -38q22 0 37.5 17t15.5 39zM221 218l-8 7q-97 -104 -162.5 -168t-99.5 -90l180 345q-4 -1 -19 -15q-14 -14 -19 -14t-16.5 4.5t-15.5 4.5q-17 0 -37 -35q-88 -155 -146 -321q-37 -8 -73 -25t-71 -42 q-86 -62 -86 -124q0 -34 29 -54q25 -19 61 -19q91 0 141 113l43 102l26 65q80 52 273 266zM-129 -84q-17 -48 -54 -108q-61 -97 -114 -97q-42 0 -42 37q0 51 80 110q75 54 130 58z" />
<glyph unicode="k" horiz-adv-x="339" d="M411 605q0 13 -13.5 22t-27.5 9q-65 0 -213 -198q-57 -75 -95 -132t-60 -99l-72 -139l-50 -93q4 2 20 15q14 11 18 11q5 0 16 -3t16 -3q20 0 38 34q23 48 38 75.5t21 36.5h37q30 -2 30 -9q0 -9 -20 -52q-19 -41 -19 -56q0 -37 44 -37t130 92q13 14 41 48l72 91l-8 7 q-173 -216 -208 -216q-11 0 -11 8q0 4 21 42q21 39 21 52q0 12 -18 39q105 55 105 111q0 39 -40 39q-49 0 -131 -70l21 32q8 12 11 17q71 32 173 137q113 118 113 189zM363 597q-2 -50 -72 -147q-75 -104 -153 -147q8 24 32 68t66 108q88 139 116 139q11 0 11 -21zM198 245 q0 -27 -27 -52q-22 -20 -51 -31q-17 -6 -66 -6q16 30 54 66q43 42 69 42q21 0 21 -19z" />
<glyph unicode="l" horiz-adv-x="234" d="M393 624q0 13 -9 24.5t-22 11.5q-55 0 -177 -155q-42 -54 -77.5 -105.5t-64.5 -102.5q-83 -146 -83 -228q0 -34 13 -56q17 -27 45 -26q74 3 144 85q40 46 95 146l-8 7q-34 -67 -86 -131q-70 -88 -118 -88q-21 0 -21 24q0 54 31 120l48 105q135 79 220 207q68 103 70 162z M350 618q0 -48 -66 -156q-77 -125 -160 -174q11 31 35.5 79.5t61.5 115.5q87 156 115 156q14 0 14 -21z" />
<glyph unicode="m" horiz-adv-x="533" d="M555 218l-8 7l-121 -135q-79 -88 -103 -88q-20 0 -20 24q0 9 15 33l97 157q17 29 17 35q0 19 -13.5 34t-32.5 15q-34 0 -56 -15q-17 -11 -63 -54q0 69 -45 69q-60 0 -142 -84l51 96q-6 -2 -19 -15q-14 -12 -17 -12q-5 0 -18.5 3t-20.5 3q-13 0 -20 -13q-5 -5 -24 -42 l-138 -261q28 28 36 28q2 0 7 -1t11.5 -2.5t13 -2.5t10.5 -1q12 0 48 71q44 86 72 116q89 92 114 92q11 0 11 -14q0 -11 -149 -286q28 28 36 28q3 0 15.5 -3.5t17.5 -3.5q20 0 27 13l49 89q21 38 35 66q91 111 117 111q18 0 18 -17q0 -12 -60 -103q-60 -92 -60 -107 q0 -26 17 -43.5t43 -17.5q32 0 64 26q16 13 66 69z" />
<glyph unicode="n" horiz-adv-x="386" d="M408 218l-8 7l-147 -162q-54 -60 -83 -60q-21 0 -21 18q0 5 18 34l93 145q19 29 19 54q0 46 -46 46q-54 0 -150 -84l51 96q-2 -1 -7 -5t-13 -11q-16 -13 -17 -13q-4 0 -16.5 4t-18.5 4q-17 0 -30 -24l-152 -292q28 28 37 28q5 0 18 -3.5t19 -3.5q15 0 33 33l25 47 q9 18 12 23q15 26 33.5 51.5t40.5 51.5q61 70 100 70q15 0 15 -9q0 -8 -14 -30l-83 -127q-22 -34 -21 -61q3 -59 58 -59q47 0 101 59l108 120q38 43 46 53z" />
<glyph unicode="o" horiz-adv-x="369" d="M392 218l-8 7q-67 -62 -121 -88q-11 -5 -18.5 -7.5t-11.5 -3.5l9 20q4 9 6 14q9 22 9 46q0 38 -22 66t-59 28q-85 0 -156 -68q-69 -68 -69 -154q0 -34 20 -62q23 -29 55 -29q56 0 114 37q52 36 84 87q30 9 45 15q88 49 123 92zM197 263q0 -52 -39 -134q-30 4 -38 30 q27 3 27 20q0 21 -21 21q-31 0 -31 -32q0 -31 55 -49q-72 -119 -124 -119q-19 0 -19 32q0 53 58 151q61 105 108 105q24 0 24 -25z" />
<glyph unicode="p" horiz-adv-x="372" d="M395 218l-8 7q-53 -86 -115 -151q-89 -92 -156 -92q-17 0 -33 18q147 108 147 218q0 32 -17 55q-20 27 -49 27q-31 0 -50 -19l17 31q-5 -2 -20 -15q-14 -14 -18 -14t-16.5 4t-17.5 4q-13 0 -20 -9.5t-9 -12.5l-78 -144l-83 -157l-96 -182l-82 -147l42 37q29 -13 50 -13 q20 0 63 106q64 157 112 242q9 -44 42 -44t71 26q20 -23 45 -23q73 0 162 92q64 67 117 156zM170 258q0 -41 -43 -118q-17 -32 -34.5 -58.5t-36.5 -49.5q-35 26 -49 26q-17 0 -24 -3q22 55 60 118q64 106 107 106q20 0 20 -21zM45 21l-15 -15q-3 -2 -7 -6q-11 -6 -23 -6 t-19.5 13t-7.5 26q0 12 26 12q20 0 46 -24z" />
<glyph unicode="q" horiz-adv-x="371" d="M393 218l-8 7q-37 -55 -72 -94.5t-67 -64.5q-23 -17 -51.5 -32t-62.5 -26l176 304q-6 -2 -19 -15t-18 -13t-16.5 3.5t-17.5 3.5q-15 0 -24 -9q-23 18 -42 18q-80 0 -150 -66q-69 -65 -69 -144q0 -103 60 -103q33 0 80 36l-58 -83q-22 -32 -32 -48q-57 -96 -57 -147 q0 -87 64 -87t112 86q43 76 43 145q0 46 -35 107q87 21 154 83q26 23 53.5 58t56.5 81zM197 264q0 -22 -10 -42q-28 -60 -54 -106t-51 -78q-23 -30 -44 -30q-26 0 -26 27q0 51 61 145q64 99 106 99q18 0 18 -15zM149 -111q0 -45 -27 -111q-32 -78 -68 -78q-34 0 -34 42 q0 65 29 128q4 8 21 37l47 80q32 -66 32 -98z" />
<glyph unicode="r" horiz-adv-x="294" d="M317 218l-8 7q-150 -216 -229 -216q-26 0 -26 27q0 10 19 41l79 135q21 36 21 49q0 16 -10 27.5t-25 11.5q-23 0 -105 -69q35 41 35 69q0 23 -24 23q-23 0 -39 -27q-17 -26 -17 -49q0 -38 23 -38q17 0 37 15q20 16 26 16q4 0 4 -7q0 -9 -41 -80t-41 -94q1 -72 52 -72 q77 0 158 83q45 46 111 148zM53 299q0 -20 -39 -69q-11 0 -11 17t13 39t28 22q9 0 9 -9z" />
<glyph unicode="s" horiz-adv-x="248" d="M270 218l-8 7q-58 -96 -109 -134q-35 -26 -94 -39q18 28 18 91q0 40 -30 109q31 55 31 77q0 18 -25 18q-29 0 -42 -36q-11 -28 -11 -60q0 -17 9 -50q10 -30 10 -47q0 -22 -10 -49t-26 -39q-5 2 -34 26q-21 18 -37 18q-22 0 -35 -16.5t-13 -39.5q0 -69 79 -69q63 0 110 53 q57 9 97 35q57 39 120 145zM66 327q0 -29 -25 -63q-6 10 -6 32q0 9 5 24q6 18 14 18q12 0 12 -11zM-27 56q-8 -12 -40 -12q-32 6 -32 28q0 20 18 20q7 0 29 -17q21 -18 25 -19z" />
<glyph unicode="t" horiz-adv-x="236" d="M258 218l-8 7l-53 -69l-43 -56q-27 -33 -60 -59q-46 -35 -74 -35q-10 0 -17.5 13.5t-7.5 24.5q0 15 21 53l104 182h75l6 15h-75l101 177h-11l-39 -59q-17 -24 -30 -39q-41 -48 -89 -79h-79l-16 -15h72l-77 -159q-21 -44 -21 -69t14.5 -44.5t38.5 -19.5q76 0 155 82 q23 25 51.5 61.5t61.5 87.5z" />
<glyph unicode="u" horiz-adv-x="416" d="M438 218l-8 7q-45 -65 -106 -127q-86 -89 -130 -89q-26 0 -26 20q0 15 16 44l127 239q-5 -1 -19 -15q-13 -13 -17 -13q-5 0 -17.5 3.5t-18.5 3.5q-16 0 -23 -13l-78 -139q-14 -25 -53 -75q-46 -58 -64 -58q-24 0 -24 26q0 25 16 56l119 224q-5 -2 -18 -15t-18 -13 q-6 0 -17.5 3.5t-15.5 3.5q-19 0 -27 -14l-73 -136q-33 -62 -33 -106q0 -48 51 -48q34 0 60 18q8 7 23.5 22.5t37.5 41.5q7 -82 59 -82q69 0 164 92q29 29 57 63t56 76z" />
<glyph unicode="v" horiz-adv-x="377" d="M399 218l-8 7q-96 -84 -164 -84q28 37 28 90q0 26 -16 51q-17 26 -41 26q-31 0 -53 -33q-20 -29 -20 -61q0 -35 32 -73q-68 -141 -130 -141q-30 0 -30 38q0 19 13 45l119 228q-7 -2 -20 -15t-15 -13q-4 0 -17 4t-20 4q-14 0 -22 -14l-70 -131q-29 -55 -29 -104 q0 -22 16.5 -38.5t38.5 -16.5q73 0 147 51q63 45 81 90q91 4 180 90zM207 240q0 -15 -42 -87q-28 34 -28 60q0 22 12 45q13 27 34 27q24 0 24 -45z" />
<glyph unicode="w" horiz-adv-x="552" d="M575 218l-8 7q-12 -29 -69 -59q-50 -27 -88 -32q31 46 31 96q0 27 -16 50q-16 28 -42 28q-36 0 -57 -31q-20 -28 -20 -64q0 -47 33 -78q-71 -135 -135 -135q-28 0 -28 32q0 20 19 55l119 225q-6 -2 -19 -15t-18 -13q-6 0 -18.5 3.5t-18.5 3.5q-14 0 -22 -14l-76 -141 q-11 -22 -25 -41.5t-31 -38.5q-44 -50 -78 -50q-14 0 -14 26q0 16 12 42l126 238q-5 -1 -19 -15q-13 -13 -17 -13q-6 0 -19.5 3.5t-19.5 3.5q-14 0 -25 -20l-78 -147q-23 -44 -23 -73q0 -27 13 -44q15 -20 40 -20q39 0 77 29q11 9 26.5 24t34.5 37q-6 -20 -6 -37 q0 -12 4 -19q19 -34 59 -34q58 0 126 41q63 39 97 91q133 26 173 99zM381 266q0 -25 -12 -62q-5 -18 -11.5 -31.5t-13.5 -23.5q-24 19 -24 64q0 25 9 46q10 28 33 28q19 0 19 -21z" />
<glyph unicode="x" horiz-adv-x="389" d="M411 218l-8 7q-25 -34 -55.5 -67.5t-67.5 -65.5q-92 -81 -142 -81q-55 0 -55 168q5 12 49 43q52 36 84 36q21 0 53 -24q16 25 16 39q0 27 -39 27q-30 0 -77 -32q-27 -18 -86 -70l-2 131q-3 -2 -9 -17t-10 -15h-35q-23 0 -23 -43q0 -12 1 -30t3 -43t3 -43t1 -30 q-13 -21 -34 -45q-35 -36 -54 -36q-18 0 -44 29q-24 -20 -24 -36q0 -33 36 -33q43 0 125 97q34 -97 90 -97q122 0 304 231z" />
<glyph unicode="y" horiz-adv-x="383" d="M405 218l-8 7l-132 -124l-69 -66q-40 -37 -77 -57l71 105q33 51 59 102l66 127q-6 -2 -19 -15q-14 -14 -18 -14q-5 0 -17 4t-19 4q-15 0 -28 -24l-105 -188q-17 -32 -57 -54q-32 -18 -45 -18t-13 28q0 19 15 49l122 228q-6 -2 -19 -15q-14 -14 -17 -14q-6 0 -19 4t-20 4 q-15 0 -28 -24l-80 -152q-17 -32 -17 -62q0 -66 53 -66q32 0 97 48l-42 -83q-108 -34 -160 -66q-77 -47 -77 -106q0 -34 23.5 -55.5t57.5 -21.5q54 0 101 47q16 17 33 42t36 59l18 35l39 77q61 34 90 60l44 42q19 17 29 27zM36 -58l-44 -74q-19 -29 -32 -46 q-62 -83 -108 -83q-42 0 -42 42q0 54 73 97q20 11 58 27.5t95 36.5z" />
<glyph unicode="z" horiz-adv-x="312" d="M335 218l-8 7q-137 -193 -273 -257q-4 18 -27 44q43 14 93 70q63 70 63 145q0 30 -19 51.5t-48 21.5q-67 0 -116 -97v-17q42 59 71 59q36 0 36 -35q0 -39 -29 -102q-28 -59 -60 -85q-32 18 -63 18q-13 0 -26.5 -7.5t-13.5 -19.5q0 -23 36 -23q19 0 54 12q6 -14 6 -54 q-92 -25 -169 -75q-103 -66 -103 -142q0 -36 22.5 -55.5t58.5 -19.5q98 0 171 70q74 71 74 166q0 22 -1.5 38t-3.5 27q153 72 275 260zM0 13q-36 -14 -49 -13q-23 0 -23 14q0 19 27 18q22 -2 45 -19zM11 -63q0 -69 -64 -166q-71 -104 -134 -104q-19 0 -33.5 12t-14.5 30 q0 68 94 144q81 66 152 84z" />
<glyph unicode="{" horiz-adv-x="863" d="M821 244v11q-55 68 -91 96q-58 44 -122 44q-90 0 -109 -78q-55 5 -101 -17q-71 -32 -71 -113q0 -19 14 -50q-83 -33 -134 -33q-65 0 -121 50q-55 51 -55 116q0 54 43 91q43 39 97 39q49 0 90 -29q45 -33 45 -80q0 -35 -24 -59t-59 -24q-21 0 -36.5 13.5t-15.5 33.5 q0 31 26 31q11 0 26 -16q5 12 5 21q0 19 -14 30.5t-33 11.5q-27 0 -44.5 -20t-17.5 -48q0 -17 8 -31t21 -24.5t30 -16.5t35 -6q41 0 72 31q32 32 32 73q0 54 -46 87q-45 33 -100 33q-70 0 -116 -40q-50 -44 -50 -111q0 -75 63 -127q59 -50 134 -50q46 0 145 42 q22 -29 44.5 -48.5t47 -32t53 -18t64.5 -5.5q72 0 131 33q70 39 70 107q0 44 -49 72q-39 21 -90 23q-26 27 -42 36q-8 5 -21 10t-32 10q31 57 95 57q58 0 113 -40q34 -25 90 -85zM604 257q-48 -2 -67 -12q-16 31 -16 57q50 -12 83 -45zM618 223q0 -25 -21 -25q-33 0 -56 35 q27 10 46 11h26q5 -13 5 -21zM748 161q0 -56 -59 -94q-50 -31 -112 -31q-120 0 -201 102l88 52q38 22 61 38q31 -46 72 -46q37 0 37 34q0 14 -11 28q46 -5 79 -22q46 -24 46 -61zM519 240l-83 -50l-66 -41q-12 34 -12 54q0 55 44 84q38 25 97 20q3 -36 20 -67z" />
<glyph unicode="}" horiz-adv-x="863" d="M819 260q0 67 -50 111q-46 40 -116 40q-55 0 -99 -32q-47 -35 -47 -88q0 -42 31 -73t73 -31q18 0 35 6t30 16.5t21 24.5t8 31q0 28 -17.5 48t-44.5 20q-19 0 -33 -11.5t-14 -30.5q0 -9 5 -21q15 16 26 16q26 0 26 -31q0 -20 -15.5 -33.5t-36.5 -13.5q-35 0 -59 24t-24 59 q0 47 45 80q41 29 90 29q53 0 97 -39q43 -37 43 -91q0 -65 -55 -116q-56 -50 -121 -50q-52 0 -134 33q14 31 14 50q0 81 -71 113q-46 22 -101 17q-20 78 -109 78q-64 0 -122 -44q-36 -28 -91 -96v-11q56 60 90 85q55 40 113 40q63 0 95 -57q-19 -5 -32.5 -10t-21.5 -10 q-14 -8 -41 -36q-51 -2 -90 -23q-49 -28 -49 -72q0 -68 70 -107q58 -33 131 -33q36 0 64.5 5.5t53 18t46.5 32t45 48.5q99 -42 145 -42q75 0 134 50q63 52 63 127zM466 203q0 -20 -12 -54l-90 55l-59 36q17 31 20 67q59 5 97 -20q44 -29 44 -84zM303 302q0 -26 -16 -57 q-14 7 -33 10q-5 1 -13 1t-21 1q33 33 83 45zM283 233q-23 -35 -56 -35q-21 0 -21 25q0 8 5 21h26q19 -1 46 -11zM448 138q-81 -102 -201 -102q-62 0 -112 31q-59 38 -59 94q0 37 46 61q33 17 79 22q-11 -14 -11 -28q0 -34 37 -34q41 0 72 46l84 -50z" />
<glyph unicode="~" horiz-adv-x="495" d="M95 156q7 58 54 58q13 0 102 -29q71 -23 96 -23q27 0 53 15q47 28 55 103h-55q-11 -57 -54 -57q-17 0 -89 24q-81 28 -110 28q-46 0 -78 -41q-26 -35 -29 -78h55z" />
<glyph unicode="&#xa2;" horiz-adv-x="355" d="M315 409q0 54 -53 71l36 67l-16 5l-36 -67q-144 0 -214 -151q-28 -59 -28 -113q0 -65 56 -83l-48 -90l16 -7l49 92q16 0 29 1.5t24 3.5q31 7 79 49l-9 13q-53 -44 -86 -44q-19 0 -31 15.5t-12 35.5q0 66 53 142q72 102 128 102q42 0 42 -33q0 -14 -12 -28t-25 -14 q-14 0 -14 19q0 9 17 20q-14 11 -21 11q-44 0 -44 -51q0 -40 48 -40q31 0 51.5 21.5t20.5 52.5z" />
<glyph unicode="&#xa9;" horiz-adv-x="800" d="M762 361q0 153 -103 257q-103 106 -251 106t-252 -107t-104 -256t104 -256q103 -105 252 -105q147 0 251 105q103 106 103 256zM112 361q0 128 87 223t209 95t208 -95t86 -223t-87 -222q-85 -94 -207 -94t-209 94t-87 222zM582 273h-20q-33 -84 -124 -84q-150 0 -148 186 q1 78 38.5 125t103.5 47q107 0 114 -88h20v72q0 16 -24 22q-54 20 -106 20q-109 0 -173 -69q-55 -58 -55 -133q0 -105 64 -159q58 -49 156 -49q56 0 110 18q28 9 28 20z" />
<glyph unicode="&#xad;" d="M234 190q0 6 -4 6l-19 -3q-10 -2 -18.5 -3t-15.5 -1q-6 0 -16.5 1l-20.5 2l-22 4q-10 1 -16 1q-23 0 -59 -21q-25 -15 -25 -25q0 -6 6 -6q3 0 14 3.5t16 3.5q16 0 51 -6l30 -4q13 -1 21 -1q25 0 49 11q29 14 29 38z" />
<glyph unicode="&#xae;" horiz-adv-x="420" d="M389 495q0 75 -53 128q-53 54 -128 54q-74 0 -127 -53t-53 -129q0 -75 53 -128q52 -52 128 -52q73 0 126 53q54 52 54 127zM354 494q0 -60 -43 -103q-44 -42 -102 -42q-61 0 -104 42q-42 43 -42 103t42 104q44 44 104 44q61 0 103 -44t42 -104zM309 403v6q-12 0 -21 11 l-62 74q54 9 54 50q0 51 -78 51h-84v-7q22 -1 22 -27v-122q0 -18 -3.5 -23.5t-18.5 -6.5v-6h76v6q-23 0 -23 26v57h21l73 -89h44zM247 543q0 -43 -76 -43v67q0 17 15 17q61 0 61 -41z" />
<glyph unicode="&#xb4;" horiz-adv-x="300" d="M255 484q0 38 -44 38q-20 0 -40 -23l-118 -134h30l151 79q21 19 21 40z" />
<glyph unicode="&#x2000;" horiz-adv-x="465" />
<glyph unicode="&#x2001;" horiz-adv-x="930" />
<glyph unicode="&#x2002;" horiz-adv-x="465" />
<glyph unicode="&#x2003;" horiz-adv-x="930" />
<glyph unicode="&#x2004;" horiz-adv-x="310" />
<glyph unicode="&#x2005;" horiz-adv-x="232" />
<glyph unicode="&#x2006;" horiz-adv-x="155" />
<glyph unicode="&#x2007;" horiz-adv-x="155" />
<glyph unicode="&#x2008;" horiz-adv-x="116" />
<glyph unicode="&#x2009;" horiz-adv-x="186" />
<glyph unicode="&#x200a;" horiz-adv-x="51" />
<glyph unicode="&#x2010;" d="M234 190q0 6 -4 6l-19 -3q-10 -2 -18.5 -3t-15.5 -1q-6 0 -16.5 1l-20.5 2l-22 4q-10 1 -16 1q-23 0 -59 -21q-25 -15 -25 -25q0 -6 6 -6q3 0 14 3.5t16 3.5q16 0 51 -6l30 -4q13 -1 21 -1q25 0 49 11q29 14 29 38z" />
<glyph unicode="&#x2011;" d="M234 190q0 6 -4 6l-19 -3q-10 -2 -18.5 -3t-15.5 -1q-6 0 -16.5 1l-20.5 2l-22 4q-10 1 -16 1q-23 0 -59 -21q-25 -15 -25 -25q0 -6 6 -6q3 0 14 3.5t16 3.5q16 0 51 -6l30 -4q13 -1 21 -1q25 0 49 11q29 14 29 38z" />
<glyph unicode="&#x2013;" horiz-adv-x="414" d="M408 200q0 9 -11 9q-7 0 -20 -7q-23 -12 -50 -12q-23 0 -43 4q-56 10 -92.5 15t-55.5 5q-34 0 -88 -22q-44 -17 -44 -38q0 -5 6 -5q51 14 98 14l160 -21q4 -1 8 -1h8h3q51 0 107 42q14 11 14 17z" />
<glyph unicode="&#x2014;" horiz-adv-x="604" d="M560 200q0 9 -11 9q-7 0 -20 -7q-23 -12 -50 -12q-23 0 -43 4t-58.5 7t-96.5 7q-101 6 -125 6q-34 0 -88 -22q-44 -17 -44 -38q0 -5 6 -5q62 17 98 14l292 -21q7 -1 11 -1h5h3q51 0 107 42q14 11 14 17z" />
<glyph unicode="&#x2018;" horiz-adv-x="158" d="M259 660q0 5 -9 7q-20 0 -46 -29q-51 -56 -51 -110q0 -18 13.5 -32t31.5 -14q23 0 39.5 19t16.5 42q0 29 -39 49q-7 3 -7 13q0 18 31 40l14 7q6 3 6 8z" />
<glyph unicode="&#x2019;" horiz-adv-x="158" d="M253 624q0 19 -13 32.5t-32 13.5q-23 0 -39.5 -19t-16.5 -42q0 -30 39 -49q7 -3 7 -13q0 -18 -31 -40q-20 -11 -20 -15q0 -6 9 -7q20 0 46 29q51 55 51 110z" />
<glyph unicode="&#x201c;" horiz-adv-x="218" d="M359 660q0 5 -9 7q-20 0 -46 -29q-51 -56 -51 -110q0 -18 13.5 -32t31.5 -14q23 0 39.5 19t16.5 42q0 29 -39 49q-7 3 -7 13q0 18 31 40l14 7q6 3 6 8zM258 660q0 5 -9 7q-20 0 -46 -29q-51 -56 -51 -110q0 -18 13.5 -32t31.5 -14q23 0 39.5 19t16.5 42q0 29 -39 49 q-7 3 -7 13q0 18 31 40l14 7q6 3 6 8z" />
<glyph unicode="&#x201d;" horiz-adv-x="218" d="M334 624q0 19 -13 32.5t-32 13.5q-23 0 -39.5 -19t-16.5 -42q0 -30 39 -49q7 -3 7 -13q0 -18 -31 -40q-20 -11 -20 -15q0 -6 9 -7q20 0 46 29q51 55 51 110zM233 624q0 19 -13 32.5t-32 13.5q-23 0 -39.5 -19t-16.5 -42q0 -30 39 -49q7 -3 7 -13q0 -18 -31 -40 q-20 -11 -20 -15q0 -6 9 -7q20 0 46 29q51 55 51 110z" />
<glyph unicode="&#x2022;" horiz-adv-x="256" d="M236 346q0 55 -54 55q-52 0 -104 -58q-53 -59 -53 -110q0 -27 18.5 -47t45.5 -20q56 0 103 63q44 59 44 117z" />
<glyph unicode="&#x2026;" horiz-adv-x="600" d="M542 50q0 50 -42 50q-23 0 -40.5 -18.5t-17.5 -41.5q0 -48 42 -48q23 0 40.5 17.5t17.5 40.5zM342 50q0 50 -42 50q-23 0 -40.5 -18.5t-17.5 -41.5q0 -48 42 -48q23 0 40.5 17.5t17.5 40.5zM142 50q0 50 -42 50q-23 0 -40.5 -18.5t-17.5 -41.5q0 -48 42 -48 q23 0 40.5 17.5t17.5 40.5z" />
<glyph unicode="&#x202f;" horiz-adv-x="186" />
<glyph unicode="&#x205f;" horiz-adv-x="232" />
<glyph unicode="&#x2122;" horiz-adv-x="625" d="M574 634q0 31 32 33v11h-68l-93 -196l-95 196h-78v-10q33 -2 41 -31v-157q0 -37 -31 -41v-11h78v11q-30 4 -30 41v140h5l93 -192h2l93 193h5v-148q1 -21 -3 -27q-13 -5 -25 -7v-11h102v11q-11 1 -16.5 2.5t-8 5t-3 9.5t-0.5 17v161zM231 628h9v50h-213v-50h8q10 40 45 40 h30v-195v-16q-2 -11 -10 -15q-3 -2 -18 -3v-11h102v11q-11 1 -16.5 2.5t-8 5t-3 9.5t-0.5 17v195h31q34 0 44 -40z" />
</font>
</defs>
</svg>
