<?xml version="1.0" standalone="no"?>
<!DOCTYPE svg PUBLIC "-//W3C//DTD SVG 1.1//EN" "http://www.w3.org/Graphics/SVG/1.1/DTD/svg11.dtd" >
<svg xmlns="http://www.w3.org/2000/svg">
<metadata>
This is a custom SVG webfont generated by Font Squirrel.
Designer    : Graham Meade
Foundry URL : www.apostrophiclab.com
</metadata>
<defs>
<font id="webfontc52wX0hc" horiz-adv-x="487" >
<font-face units-per-em="1000" ascent="800" descent="-200" />
<missing-glyph horiz-adv-x="500" />
<glyph unicode="!" horiz-adv-x="334" d="M328 682q-3 8 -11 16t-20 17q-26 18 -42 18q-7 0 -5 -3q2 -12 3.5 -23t1.5 -22q0 -17 -5.5 -32.5t-15.5 -31.5l-64 -135l-70 -158q-27 -60 -27 -96q0 -69 41 -69q13 0 28 6q-18 0 -18 21q0 47 98 273q37 86 63 141t43 78zM84 25q6 26 -24 30q-34 7 -54 -19q-13 -18 4 -29 q33 0 33 -16q0 -22 -30 -74q26 29 43 55.5t28 52.5z" />
<glyph unicode="&#x22;" horiz-adv-x="310" d="M301 576q-35 30 -57 30q-6 0 -6 -3q-2 -53 14 -68q-15 -62 -37 -104t-50 -65l-17 -17q-5 -7 -3 -13q3 -4 11 -2q8 6 14 10l8 5l24 20q43 36 66 90q13 33 33 117zM166 576q-35 30 -57 30q-6 0 -6 -3q-2 -53 14 -68q-15 -62 -37 -104t-50 -65l-17 -17q-5 -7 -3 -13 q3 -4 11 -2l13 10l9 5l24 20q43 36 66 90q13 33 33 117z" />
<glyph unicode="#" horiz-adv-x="490" d="M472 463q-81 0 -163 -112q-26 5 -45 10.5t-32 8.5v5q0 90 -73 90l-8 -26q35 0 35 -49q0 -8 -2 -11q-5 2 -11 2h-11q-77 0 -77 -54q0 -17 11 -33q25 43 69 43h6q4 0 7 -1q-3 -16 -8.5 -31.5t-13.5 -31.5q-30 6 -51 6q-75 0 -75 -53q0 -16 9 -34q24 45 70 45q6 0 12 -1 t14 -2q-8 -14 -14.5 -23t-9.5 -15q-45 -57 -81 -57q-9 0 -9 -24q55 0 117 60l22 25q11 12 20 25l44 -13q20 -5 34 -8q0 -90 73 -90l8 25q-35 0 -35 50l2 6q5 -2 10 -2h11q69 0 69 62q0 8 -1.5 15t-3.5 15q-19 -47 -67 -47q-9 0 -14 2q8 31 21 61q31 -6 51 -6q71 0 71 62 q0 8 -1.5 15t-3.5 15q-19 -47 -66 -47h-14q-6 0 -14 2l10 16l18 24q43 57 80 57q10 0 10 24zM286 313q-9 -17 -14.5 -33.5t-9.5 -33.5q-18 5 -30 8t-18 5l-10 3q8 17 14 33t10 33q11 -3 22.5 -5.5t23.5 -6.5z" />
<glyph unicode="$" horiz-adv-x="639" d="M744 607q0 59 -74 96l39 81q-6 16 -12 14q-5 5 -9 7q-17 -26 -30 -48l-24 -39l-4 2q-54 18 -99 18q-139 0 -177 -143q-2 -30 1 -76.5t14 -109.5l9 -48q1 -5 1 -10q0 -4 2 -6l-47 -57l-45 -54q-65 84 -205 94q-90 8 -137 -48q-24 -29 -24 -69q0 -33 20 -72 q43 -89 120 -130q-54 -43 -105 -77t-102 -60q-4 -2 10 -13l20 10q48 26 97.5 58.5t100.5 72.5q63 -27 145 -27q158 0 206 115q19 51 19 140q0 29 -1 58.5t-5 59.5l-3 21q65 81 117.5 160t97.5 158q23 -17 37.5 -32t17.5 -29q9 -39 -57 -62q86 0 86 45zM282 226l-100 -108 q-50 -50 -100 -93q-70 37 -103 117q-14 28 -14 56q0 48 44 75q18 11 39.5 17.5t47.5 7.5q96 3 186 -72zM394 219q-1 -122 -33 -170q-38 -56 -153 -54q-30 2 -56 6.5t-49 14.5q102 81 201 189q2 -2 4 -3t4 -3l-5 8l40 43l40 45l5 -48q2 -19 2 -28zM625 705l-97 -151l-89 -130 l-21 188q21 112 117 112q49 0 90 -19z" />
<glyph unicode="%" horiz-adv-x="719" d="M525 676h-6q-26 11 -36 11q-34 0 -94 -27q-44 -37 -74 -50q-1 87 -73 87q-56 0 -119 -61q-94 -94 -94 -200q0 -90 73 -90q60 0 119 62q42 44 64.5 87.5t28.5 87.5q87 43 108 57q14 6 24 9.5t18 5.5l-368 -663h50zM714 304l-10 11q-13 -5 -23 -8t-18 -4q-42 -36 -75 -50 q0 87 -72 87q-57 0 -118 -61q-95 -95 -95 -200q0 -90 72 -90q60 0 119 62q84 88 94 175l76 38q27 14 32 19zM254 568q-8 -24 -18 -51q-58 -145 -126 -145q-33 0 -33 51q0 90 75 192q43 57 81 57q-8 -6 -11.5 -9t-5.5 -5l-16 -16q-9 -9 -9 -21q0 -20 20.5 -35.5t42.5 -17.5z M527 211q-8 -24 -18 -51q-57 -144 -125 -144q-34 0 -34 50q0 91 76 192q45 57 81 57l-12 -9q-4 -3 -6 -5l-15 -16q-10 -9 -10 -21q0 -10 6 -19t15.5 -16.5t20.5 -12t21 -5.5zM536 271v-15q0 -7 -2 -15q-39 9 -39 33q0 5 2 6q8 6 17 8.5t20 3.5q2 -5 2 -10v-11zM263 628 q0 -7 -1 -14l-2 -16q-38 9 -38 33v6q8 6 17.5 8.5t20.5 3.5l2 -10q1 -5 1 -11z" />
<glyph unicode="&#x26;" horiz-adv-x="738" d="M631 25q-33 -42 -84 -42q-65 0 -124 74q17 32 22 81q4 81 -63 144q-19 17 -73 22q-6 22 -8.5 39t-2.5 32q147 87 147 168q0 69 -54 69q-37 0 -73 -45q-52 -66 -63 -188l-123 -60l-44 -22l-30 -21q-13 -10 -25 -21q-59 -45 -59 -117q0 -13 3.5 -25t8.5 -25 q52 -121 221 -121q9 0 23 1t34 3q79 9 123 44q73 -68 153 -63q33 0 60 21q31 22 31 52zM372 39q-43 -47 -135 -47l-2 -1h-16q-57 0 -104 25q-78 43 -78 126q0 26 26 81q28 40 88 77l35 20q27 15 72 38q0 -24 3 -54q-128 -31 -141 -163l1 6q13 30 23.5 50t18.5 31 q32 38 102 49q2 -10 6 -25.5t11 -37.5q29 -106 90 -175zM429 549q0 -66 -134 -152q4 45 14 84t30 77q20 39 52 39q38 0 38 -48zM406 139q0 -8 -2 -21l-5 -30q-26 38 -46.5 85t-37.5 104q19 -7 31 -12t15 -9q48 -38 45 -117z" />
<glyph unicode="'" horiz-adv-x="157" d="M156 576q-38 30 -59 30q-4 0 -4 -3q-3 -51 13 -68q-31 -121 -88 -169l-15 -17q-7 -8 -5 -13q5 -3 11 -2q8 6 14 9.5t10 5.5l24 20q41 35 64 90q8 17 16 46z" />
<glyph unicode="(" horiz-adv-x="241" d="M584 910q-6 10 -21 3q-83 -38 -223 -184q-281 -294 -281 -630q0 -134 50 -260q36 -87 77.5 -152t90.5 -110q18 -17 25 -12q-3 3 -31 49l-80 135q-49 125 -49 284q0 147 49 306q77 242 213 393q54 59 97.5 99t78.5 63q4 9 4 16z" />
<glyph unicode=")" horiz-adv-x="245" d="M210 378q0 69 -12.5 133.5t-38.5 127.5q-35 86 -77 151t-91 111q-18 17 -25 12q8 -5 111 -184q51 -126 51 -284q0 -146 -51 -306q-77 -242 -213 -393q-110 -122 -174 -163q-7 -10 -5 -15q5 -10 20 -3q42 19 97 65t126 119q282 295 282 629z" />
<glyph unicode="*" horiz-adv-x="391" d="M363 688q-14 52 -54 54q-28 0 -32 -33q4 -29 9 -45q-5 -31 -76 -46l-5 1q26 41 46.5 82t36.5 83q5 15 -2.5 29.5t-24.5 15.5q-47 0 -74 -45q-18 -32 2 -46q6 -3 16 0q26 2 26 -18q0 -27 -27 -90l-5 -5q-19 93 -52 150q-8 5 -18 5q-19 -4 -33 -24q-33 -51 -21 -99 q6 -21 18 -21q5 0 16 7q3 2 11 18q10 27 22 27q24 0 48 -63l2 -6q-8 2 -16 2h-16q-64 0 -106 -18q-33 -13 -21 -63q13 -54 52 -54q27 0 32 34q-2 13 -4.5 23.5t-6.5 18.5q4 30 78 48h5q-31 -48 -51.5 -89.5t-31.5 -75.5q-2 -7 -1 -15t5 -15t10 -11.5t13 -4.5q47 -3 74 43 q19 34 -2 50q-5 2 -16 0q-26 -8 -26 16q0 25 27 90l5 5q19 -91 54 -149q5 -7 16 -4q22 2 33 22q34 51 20 101q-4 19 -15 19q-8 0 -17 -9q-23 -38 -34 -42q-19 -1 -48 62l-2 4h32q60 0 106 17q34 15 23 64z" />
<glyph unicode="+" d="M498 297q2 7 -8 7h-9q-51 -10 -97.5 -15.5t-91.5 -6.5l2 9q8 68 12 111t3 63v4q-5 21 -21 21q-11 -6 -11 -15q2 -57 0 -105.5t-10 -87.5q-79 0 -122 9l-42 10q-1 2 -2 2t-2 1q-2 0 -6.5 -2t-5.5 -2l-24 -5q-13 -1 -20 -2.5t-9 -3.5q-15 -7 0 -12q58 -18 228 -21 q-5 -28 -13 -52t-17 -44l-18 -40q0 -3 -1 -5q1 -1 1 -6v-25q0 -24 3 -27q3 -4 23 46q22 52 30 84l7 29l9 40q95 0 180 17q5 -3 12 4l3 2q8 5 11.5 9.5t5.5 8.5z" />
<glyph unicode="," horiz-adv-x="157" d="M121 46q-33 30 -57 30q-6 0 -6 -3q-2 -53 14 -67q-15 -63 -37.5 -104.5t-51.5 -65.5l-15 -15q-5 -7 -3 -13q4 -6 9 -3l14 9q7 4 10 6l24 19q43 36 66 90q13 34 33 117z" />
<glyph unicode="-" d="M436 288q0 3 -4 3h-8q-37 -11 -74.5 -15.5t-76.5 -4.5q-88 0 -140 15l-51 17q-1 1 -3 0q-70 -12 -70 -18q0 -2 3 -3q42 -13 157 -24l36 -3q24 -2 58.5 -3.5t81.5 -1.5h27q12 0 39 9q4 0 12 8q13 14 13 21z" />
<glyph unicode="." horiz-adv-x="124" d="M105 54q0 25 -26 25q-36 0 -49 -46q-5 -13 -5 -20q0 -24 27 -24q53 0 53 65z" />
<glyph unicode="/" horiz-adv-x="335" d="M514 817h-49l-479 -825h50z" />
<glyph unicode="0" horiz-adv-x="643" d="M623 474q-8 101 -86 141q-23 14 -50.5 22t-60.5 8q-191 0 -330 -156q-109 -126 -106 -297q0 -31 5.5 -58t18.5 -50q23 -51 60 -80t85 -37q15 -2 27.5 -3.5t23.5 -1.5q87 0 192 78q198 147 216 378q7 19 5 56zM585 472q2 -36 -12.5 -65t-42.5 -50q-26 -20 -56.5 -30.5 t-68.5 -11.5q-109 -3 -165 84l-10 15q11 -118 175 -129q87 -7 150 42q-9 -23 -20.5 -46.5t-25.5 -48.5q-124 -206 -308 -247q-112 0 -157 99q-23 46 -23 94q0 143 126 290q129 145 270 150q163 6 168 -146z" />
<glyph unicode="1" horiz-adv-x="466" d="M528 651q-2 1 -11 1h-4v3q1 7 2 12.5t1 8.5q0 5 -2 6l-1 2q-6 0 -41 -38q-2 -1 -3 -2t-3 -2l-7 -9q-187 -192 -344 -252l-63 -26q-1 2 -1 1t-2 -2q-8 -9 -13 -13.5t-6 -6.5q-13 -11 -21 -19l-14 -14q-1 -3 -1 -6q0 -2 -2 -6q26 8 69.5 31t106.5 61l39 24 q53 32 103.5 67.5t98.5 77.5l-154 -280l-113 -213q-29 -56 -51.5 -94t-38.5 -61q-232 -318 -561 -309q-13 -1 -13 -9q0 -6 27 -9q186 -3 337.5 74.5t271.5 239.5q28 38 59.5 93t66.5 129l82 169q79 165 174 327q16 27 27 36q2 2 2.5 4t2.5 4z" />
<glyph unicode="2" horiz-adv-x="456" d="M441 589q0 74 -80 74q-39 0 -85 -20.5t-98 -62.5q-41 -120 -166 -208q41 17 73.5 38t58.5 47q8 8 31.5 38t62.5 84q35 46 101 43q37 -1 37 -28q0 -57 -75 -171q-61 -94 -181 -210q-123 -118 -213 -170q-16 -8 -27.5 -12t-19.5 -4l-19 -29l55 -18q49 39 116 57l111 30 q51 14 102 15q35 2 63.5 -6t51.5 -22q5 -8 5 -21q0 -50 -44 -80q-19 -12 -41.5 -19.5t-48.5 -8.5q28 -5 47 -5q80 0 109 63q14 31 14 56q0 35 -18 46q-32 35 -149 35q-52 0 -174 -32q54 45 111 103l122 130q149 162 163 223q5 28 5 45z" />
<glyph unicode="3" horiz-adv-x="376" d="M312 544q0 117 -98 117q-78 0 -162 -81l32 -22q63 81 117 81q48 0 48 -65q0 -30 -10 -68t-29 -85q-26 -60 -113 -147q-82 -82 -82 -78q0 -1 1 -1q9 0 71 18q99 6 99 -50q0 -67 -146 -259q-238 -318 -559 -309q-8 -3 -8 -8t21 -10q367 -7 608 315q96 129 133 211 q8 17 11.5 38t3.5 46q0 77 -67 77q-6 0 -11 -1l-12 -2q152 132 152 283z" />
<glyph unicode="4" horiz-adv-x="767" d="M933 723q-9 166 -220 166q-100 0 -199.5 -47t-193.5 -134t-178.5 -211t-154.5 -277l201 66q70 17 171 17h19q9 0 20 -2l-104 -193l-64 -115q-23 -42 -34.5 -61t-19.5 -30q-56 -75 -124.5 -135.5t-153.5 -108.5q-153 -88 -268 -83q14 -2 29.5 -3t31.5 -1q158 0 309 96 q136 83 237 222q29 38 60 93t66 129l92 187q50 -3 103.5 -11.5t112.5 -21.5q3 -1 9 -1q12 0 12 9q0 4 -4 10.5t-10 12t-12 9.5t-10 4h-2q-43 9 -88.5 14.5t-94.5 7.5q77 153 98 168l2 4l2 4q-1 1 -10 1q-41 0 -51 -10q-22 -26 -98 -164q-53 0 -84.5 -0.5t-54.5 -2.5l-57 -5 l-45 -4q-20 -1 -36.5 -2.5t-32.5 -3.5q45 83 89.5 152t88.5 126q215 270 443 273q75 1 121 -36.5t50 -110.5q1 -69 -56 -113q-52 -42 -124 -43q-97 -7 -162 79l-14 20q13 -120 176 -129q87 -5 153 48q71 57 64 141z" />
<glyph unicode="5" horiz-adv-x="421" d="M528 688q0 5 -2 6q-1 7 -16 3q-19 -4 -69 -4h-147q-8 1 -14 2t-12 1q-36 0 -48 -35l-13 -67l-99 -198l-87 -176l-12 -6q-22 -2 -24 -13l-5 -5q-1 -1 0 -1q2 -2 6 0q0 -2 2 -3q4 -6 12 -6q4 0 13 2.5t18.5 6t17.5 7t11 6.5l15 5q99 6 99 -50q0 -66 -144 -259 q-241 -318 -561 -309q-6 -2 -6 -8t19 -10q369 -8 609 315q48 64 80.5 116.5t51.5 94.5q17 36 17 84q0 77 -69 77q-6 0 -11 -1l-10 -2q-2 -2 -19.5 -6.5t-49.5 -14.5q87 186 138.5 286.5t68.5 115.5q8 2 42 3t94 1q28 0 57 -3q7 0 15 4.5t15 11t12 14.5t5 15z" />
<glyph unicode="6" horiz-adv-x="472" d="M1086 801q0 5 -41 28q-115 62 -246 65q-184 3 -335 -74.5t-272 -239.5q-80 -132 -126 -222l-53 -97q-51 -98 -51 -167q0 -115 98 -115q78 0 162 81q130 126 130 264q0 117 -97 117q-49 0 -99 -32l56 93q24 40 41 65q229 318 560 309q66 -2 124.5 -19.5t112.5 -49.5 q10 -9 31 -9q5 0 5 3zM297 345q0 -127 -107 -264q-60 -80 -118 -80q-47 0 -47 65q0 30 10 68t29 85q84 198 180 198q53 0 53 -72z" />
<glyph unicode="7" horiz-adv-x="717" d="M791 657h-17l-10 3q-237 46 -441 54q-345 10 -345 -125q0 -26 12 -60q15 146 288 146q175 0 427 -36q-56 -26 -117 -90q-41 -46 -139 -200q-55 -83 -140 -187q-108 -136 -226 -183q-3 1 -5 0q-87 -12 -87 -18q2 -2 3 -2l2 -1l142 7q17 4 33 9.5t30 13.5q56 30 111.5 93.5 t112.5 159.5l71 121l47 79q19 31 31 48l20 28q71 89 149 117l13 -3l16 13q8 7 19 13z" />
<glyph unicode="8" horiz-adv-x="432" d="M985 790q2 2 2 5q0 7 -15 13q-195 4 -354 -84q-46 -26 -117 -106q-70 -78 -114 -107q-117 -70 -149 -81q-5 29 -8.5 53.5t-3.5 47.5q0 162 138 162q40 0 99 -36q21 -14 30 -5q5 6 1.5 12t-16.5 14q-26 16 -56.5 23.5t-66.5 9.5q-106 0 -147 -59q-33 -50 -33 -162 q0 -23 3.5 -47.5t8.5 -51.5q-292 -168 -292 -267q0 -23 10 -46q34 -78 128 -78q55 0 99 16.5t75 47.5t47 75.5t16 100.5q0 68 -23 157q139 63 212 125q19 15 90 99q148 176 436 169zM195 357q20 -104 -5 -198q-7 -29 -23.5 -53.5t-39 -41.5t-49.5 -26.5t-57 -9.5 q-89 0 -89 86q0 62 83 141q27 26 85 57q16 10 95 45z" />
<glyph unicode="9" horiz-adv-x="510" d="M457 594q0 117 -97 117q-77 0 -161 -81q-130 -126 -130 -266q0 -115 96 -115q49 0 96 28q-57 -120 -106 -209.5t-94 -151.5q-230 -317 -561 -308q-66 2 -124.5 19.5t-112.5 49.5q-11 9 -30 9q-3 0 -6 -3q0 -6 42 -28q117 -62 245 -65q367 -9 609 314q28 37 59.5 92 t66.5 128l82 171q20 42 42 79t45 71q2 2 2.5 5.5t2.5 6.5q17 35 25.5 69t8.5 68zM394 624q0 -62 -39 -153q-83 -198 -180 -198q-52 0 -52 72q0 124 106 262q61 81 119 81q46 0 46 -64z" />
<glyph unicode=":" horiz-adv-x="229" d="M105 54q0 25 -26 25q-36 0 -49 -46q-5 -13 -5 -20q0 -24 27 -24q53 0 53 65zM205 369q0 25 -24 25q-35 0 -51 -46q-1 -6 -2 -11t-1 -9q0 -24 27 -24q51 0 51 65z" />
<glyph unicode=";" horiz-adv-x="220" d="M121 46q-33 30 -57 30q-6 0 -6 -3q-2 -53 14 -67q-15 -63 -37.5 -104.5t-51.5 -65.5l-15 -15q-5 -7 -3 -13q4 -6 9 -3l14 9q7 4 10 6l24 19q43 36 66 90q13 34 33 117zM205 369q0 25 -24 25q-35 0 -51 -46q-1 -6 -2 -11t-1 -9q0 -24 27 -24q51 0 51 65z" />
<glyph unicode="&#x3c;" d="M430 414q0 7 -15 18q-5 5 -15 3q-97 -12 -204 -57l-57 -24q-22 -10 -30 -15l-34 -18q-40 -20 -77 -42l-73 -45q21 -20 49.5 -42t64.5 -45l27 -18q21 -16 69 -38q90 -44 180 -58q5 -2 16 4q22 12 24 18q4 11 -12 14q-109 14 -187 46.5t-125 80.5l-33 36l-1 2l51 37 q125 94 366 128q16 2 16 15z" />
<glyph unicode="=" d="M555 378q0 6 -6 6t-9 -2q-129 -37 -240 -37q-42 0 -74.5 4t-57.5 12l-50 17q-2 2 -6 0l-43 -10q-16 -3 -21 -5q-11 -7 0 -12q31 -13 151 -24l36 -5q18 -1 39.5 -2t47.5 -1q111 0 207 26q6 0 12 9q14 19 14 24zM496 232q0 8 -6 8t-9 -2q-130 -37 -240 -37q-41 0 -74 4 t-59 12l-50 15q-2 3 -6 0q-69 -11 -69 -19q0 -4 5 -6q19 -8 57 -13.5t96 -10.5l36 -5q18 -1 39.5 -2t47.5 -1q112 0 205 26q6 0 12 9q15 16 15 22z" />
<glyph unicode="&#x3e;" d="M418 234q-19 20 -45.5 41.5t-59.5 45.5l-27 18q-11 8 -28 17l-38 22q-88 45 -174 57q-8 2 -18 -3q-25 -14 -25 -23q-3 -8 12 -10q217 -31 300 -128l30 -34q0 -2 1 -3l-52 -38q-70 -48 -164 -80.5t-213 -46.5q-18 -3 -19 -14q0 -6 13 -18q10 -7 17 -4q97 14 210 58 q28 11 50 20.5t38 17.5l36 18l88 46q38 21 68 41z" />
<glyph unicode="?" horiz-adv-x="613" d="M168 111q7 20 19.5 37.5t35 33t57.5 30t87 29.5q50 14 97 44t94 76q48 51 72.5 99.5t24.5 97.5q0 82 -35.5 137t-91.5 84.5t-126.5 35t-139.5 -9.5q-85 -4 -151 -51.5t-98 -125.5q-15 -36 -15 -67q0 -45 29 -75q46 -53 138 -47q165 12 222 129q-15 -11 -17 -15 q-86 -86 -195 -84q-26 2 -49 8.5t-42 18.5q-44 30 -44 80q0 10 3.5 22.5t8.5 26.5q58 150 221 147q78 -1 128.5 -8t76.5 -22q62 -34 92 -156q6 -27 6 -52q0 -149 -176 -251q-1 -1 -3 -1q-123 -30 -174 -59q-67 -39 -93 -108q-3 -5 4.5 -9.5t15.5 -0.5q15 -3 18 6zM111 18 q6 25 -17 30q-23 6 -37 -20q-9 -18 1 -31q24 0 24 -17q0 -21 -21 -75q20 32 32 60t18 53z" />
<glyph unicode="@" horiz-adv-x="834" d="M688 157q0 8 -7 8q-6 0 -6 -2q-38 -64 -85 -116.5t-106 -93.5q-101 -69 -181 -69q-103 0 -162.5 57.5t-59.5 160.5q0 48 13 96q49 170 101 234q69 87 205 87q218 0 218 -174q0 -9 -1 -19l-2 -22q-12 -81 -45 -126q-11 -16 -26.5 -32.5t-35.5 -34.5q-50 -48 -72 -48 q-28 0 -27 24q12 76 182 288q-4 1 -8 1h-7q-41 0 -68 -25q-5 52 -60 52q-57 0 -129 -61q-106 -91 -123 -200l-2 -14q-1 -6 -1 -11q0 -65 62 -65q52 0 112 48q-1 -55 66 -55q48 0 93 49l51 56q19 22 26 33q43 64 43 145q0 99 -75 153q-68 50 -169 53q-88 1 -144 -26 q-45 -21 -81.5 -60t-65.5 -94q-51 -91 -68 -204q-11 -68 9 -125q58 -163 248 -163q94 0 201 66q134 82 181 222q2 3 4 4zM457 334q-9 -64 -67 -153q-69 -102 -123 -102q-35 0 -26 50q13 94 104 192q55 57 90 57q30 0 22 -44z" />
<glyph unicode="A" horiz-adv-x="1048" d="M1233 642q-3 4 -18 9l-75 20l-50 13q-79 19 -137 31.5t-95 17.5q-151 26 -291 26q-18 0 -37.5 -3.5t-39.5 -8.5q-125 -35 -141 -113q-4 -20 -4 -40q0 -107 130 -119q2 -1 2 -2t1 -1l5 6q3 0 4 -1l-39 20l-33 17q-33 30 -33 75q0 78 131 122q29 11 70 9q142 -7 216.5 -11 t85.5 -6q80 -11 133.5 -19t80.5 -14l23 -4q18 -5 22 -5q-77 -6 -172 -48q-72 -30 -135.5 -80.5t-121.5 -120.5q-169 -33 -231 -117q34 31 102 56l44 13l61 18l-3 -4q-16 -20 -30 -42l-30 -45l-44 -71q-21 -34 -43 -63l-16 9q-116 61 -153 75q-35 11 -76.5 18t-91.5 11 q-86 6 -158 -51q-75 -59 -67 -147q11 -167 220 -167q123 0 233 74l13 9v1q64 46 122 117q96 -51 199 -45q-1 -1 -1 -15q-3 -80 118 -172q-6 5 -13 16t-17 29q-18 32 -26 67t-7 72l2 5q62 6 112 46q71 57 65 143q-4 45 -21 77.5t-50 54.5q18 32 37.5 62.5t39.5 57.5 q97 133 163 141q13 1 26.5 0t27.5 -6q11 -4 11 3zM523 133q-44 -60 -88 -101.5t-89 -67.5q-78 -35 -159 -36q-73 -2 -120 36.5t-51 110.5q-2 70 56 112q70 54 129 53q144 -3 309 -99zM879 379q-26 -46 -48.5 -94t-41.5 -98q-8 -25 -13 -48t-8 -46q-85 -5 -179 40l103 153 l73 110h25q58 1 89 -17zM960 250q4 -116 -132 -150q24 132 87 257q42 -39 45 -107zM1041 612q-78 -85 -149 -210q-23 8 -50 12t-59 4q118 150 258 194z" />
<glyph unicode="B" horiz-adv-x="949" d="M933 486q0 93 -134 177l-107 45q-40 16 -55 19q-222 54 -370 51q-210 -6 -218 -177q0 -42 15 -76.5t41.5 -58.5t63 -37.5t78.5 -13.5q4 0 11 1t18 2q165 18 174 149l-15 -27q-52 -85 -161 -87q-73 0 -124 36q-57 40 -57 111q0 145 162 150q258 6 474 -72 q-86 -4 -176 -111q-20 -25 -50 -74.5t-70 -125.5q-23 -44 -52.5 -90.5t-65.5 -96.5q-133 -186 -288 -203q-166 3 -170 147q-2 68 54 113q26 19 56.5 29t66.5 11q108 3 162 -81q2 -2 6 -8.5t12 -16.5q-15 129 -180 142q-46 4 -84.5 -8t-71.5 -38q-71 -59 -64 -146 q10 -166 196 -166q126 0 204 39l36 -6q17 -2 33 -5.5t33 -8.5q69 -17 144 -25t159 -6q102 2 182 34q104 43 118 129q4 42 -16 90q-41 88 -141 138q54 9 97 35q74 44 74 117zM879 511q0 -17 -5 -42q-27 -108 -144 -120q-50 26 -94 26q-57 0 -57 -57v-12q0 -5 1 -11q4 -9 8 -9 l7 36q7 33 42 33q11 0 31.5 -5.5t51.5 -18.5q79 -29 115 -108q26 -55 17 -102q-8 -37 -29.5 -66t-59.5 -51q-32 -19 -68.5 -28t-78.5 -11q-66 0 -140.5 8t-160.5 22q-24 4 -41 8t-30 9q95 62 183 246l54 114q70 149 119 204q61 70 153 85q126 -74 126 -150z" />
<glyph unicode="C" horiz-adv-x="717" d="M897 600q5 11 0 21q-20 44 -81 66q-48 19 -105 19q-96 0 -171 -27q-231 98 -331 98q-195 0 -195 -237q0 -34 12.5 -63t34 -52t51 -38t64.5 -20q-45 -96 -45 -189q0 -83 34 -139q14 -24 35.5 -44t47.5 -34.5t54.5 -22t57.5 -7.5q164 0 306 196q5 8 5 12q0 9 -9 9 q-4 0 -11 -9q-87 -101 -96 -108q-46 -42 -96 -62t-103 -20q-78 0 -122 52q-40 47 -40 128q0 117 64 238q137 18 149 128q-58 -86 -132 -98q103 173 268 252q185 -88 278 -88q61 0 76 39zM513 669q-80 -34 -162 -98q-110 -83 -159 -171q-61 13 -97 47q-42 39 -42 99 q0 208 156 208q66 0 160 -34zM876 615q0 -36 -27 -33q-130 1 -273 81q40 17 75.5 24.5t65.5 3.5q135 -11 159 -67v-9z" />
<glyph unicode="D" horiz-adv-x="1069" d="M1027 252q0 84 -31 153q-67 143 -233 247q-1 2 -9 5q-94 46 -156 61q-216 54 -369 51q-208 -6 -214 -175q-3 -82 57 -132q28 -26 62.5 -38.5t75.5 -12.5q8 0 28 3q165 18 171 135l-9 -17q-28 -44 -69 -65.5t-94 -22.5q-76 0 -126 37q-59 41 -59 113q0 146 167 151 q266 7 489 -78q-96 7 -189 -109q-44 -54 -120 -198q-24 -45 -54 -91l-65 -97q-134 -187 -291 -204q-168 3 -172 149q-2 35 12.5 63.5t42.5 50.5q26 20 57.5 30t67.5 12q109 4 165 -83q1 -2 4 -6.5t6 -9.5q-10 116 -175 130q-45 4 -83 -8t-70 -38q-71 -57 -65 -143 q12 -165 194 -165q110 0 183 32q41 17 76.5 46.5t67.5 71.5q24 -141 223 -141q20 3 89 0q255 -6 351 111q64 76 64 182zM966 289q0 -44 -12.5 -87t-38.5 -85q-84 -138 -311 -138q-43 0 -86.5 3t-88.5 10q-92 34 -95 135v8q0 7 2 21l20 37l22 39q51 49 135 51q111 3 166 -82 l9 -17q-11 118 -175 129q-29 2 -54.5 -1t-49.5 -14l32 68q35 75 65 126t55 79q30 35 68.5 57t87.5 30q1 0 8.5 -2.5t19.5 -7.5q221 -156 221 -359z" />
<glyph unicode="E" horiz-adv-x="596" d="M732 577q-8 73 -57 105q-77 30 -147 27q-82 -4 -159 -30q-102 -33 -135 -117l-11 6q-34 11 -67.5 16.5t-68.5 7.5q-71 5 -128 -42q-33 -24 -33 -82q0 -59 38 -78q-14 20 -14 55q0 59 29 81q54 43 105 41q82 0 142 -27q-5 -16 -7 -41q-8 -72 40 -115q-64 -2 -115.5 -19 t-91.5 -47q-51 -40 -76.5 -87.5t-25.5 -104.5q0 -34 15 -74q21 -59 87 -96q61 -33 128 -33q159 0 294 156l45 63q17 25 15 33q-2 6 -8 6q-4 -1 -24 -30l-48 -63q-54 -63 -127 -102q-83 -46 -156 -43q-135 4 -150 133q-3 18 -3 30q0 121 124 213q63 48 144 48q41 0 77 -18 q21 -10 46 -67q13 -27 17 -27q1 0 1 4q-20 126 -130 126h-12q-5 0 -11 -1q-19 19 -19 57q0 35 19 79l32 -16q16 -7 30 -15l46 -29q61 -37 161 -34l45 1q32 0 59.5 11.5t47 31.5t29.5 47.5t8 59.5zM700 576q3 -62 -51 -96q-45 -30 -109 -30q-82 0 -141 31l-114 59 q47 88 156 126q35 12 58.5 18.5t37.5 6.5h33q39 0 93 -30q17 -16 26.5 -37t10.5 -48z" />
<glyph unicode="F" horiz-adv-x="865" d="M1290 649l-5 5q-14 -15 -24 -22.5t-13 -9.5q-17 -3 -29 -3.5t-18 0.5q-279 54 -306 60q-2 64 -78 66q32 -3 32 -52v-6q-149 28 -273.5 41.5t-224.5 13.5q-273 0 -408 -120q-45 -42 -45 -115q0 -83 58 -131q54 -45 138 -45q57 0 108 24q63 31 63 83q0 30 -24 54 q14 -22 14 -38q0 -45 -63 -75q-53 -24 -102 -24q-35 0 -63.5 10.5t-49 30t-32 47t-11.5 61.5q0 63 37 99q112 99 390 99q97 0 218 -11t267 -33q-2 -10 -3.5 -16t-2.5 -8q-43 -94 -82.5 -167t-75.5 -128q-23 -2 -38 -2t-23 -1q-22 -4 -40.5 -5t-33.5 -1q-39 0 -64.5 14.5 t-35.5 43.5q-15 -14 -15 -36q0 -34 40 -49q33 -14 68 -14q14 0 31.5 1t37.5 2q7 2 18 2t28 1q-59 -95 -124 -175q-191 -236 -419 -236q-72 0 -115 41q-48 40 -48 112t63 114q54 36 127 36q106 0 165 -99q-15 131 -193 131q-78 0 -137 -50q-63 -51 -63 -129q0 -178 221 -178 q319 0 594 435q116 1 123 0q48 -8 57 -57q19 23 19 46q0 43 -66 54q-6 3 -106 0q66 110 100.5 187t40.5 125q89 -18 166.5 -30t143.5 -19q11 -2 23.5 0t24.5 6q3 1 9 6.5t12 12t11 12.5t6 9z" />
<glyph unicode="G" horiz-adv-x="801" d="M928 607q4 11 0 21q-19 42 -81 65q-48 19 -106 19q-49 0 -91.5 -6.5t-78.5 -18.5q-233 97 -333 97q-195 0 -195 -237q0 -34 12.5 -63t34.5 -51.5t51.5 -38t63.5 -21.5q-45 -96 -45 -189q0 -83 35 -139q14 -24 35.5 -44t47 -34t54.5 -21.5t58 -7.5q122 0 226 101 q-94 -173 -181 -284q-215 -270 -444 -273q-74 -1 -121 36.5t-49 109.5q-2 70 54 114q54 42 125 43q112 3 165 -84q1 -2 4 -5.5t6 -9.5q-11 118 -175 129q-45 4 -83 -8t-70 -38q-71 -57 -65 -143q12 -166 221 -166q396 0 714 646q25 49 37 89.5t14 72.5q4 137 -138 137 q-55 0 -113 -18t-119 -53l27 6l47 12q49 13 85.5 18.5t61.5 5.5q83 0 95 -48q5 -23 5 -48q0 -24 -8 -49l-27 -60q-14 -29 -29 -56q-21 -27 -38.5 -46t-31.5 -30q-92 -83 -198 -83q-81 0 -123 51q-41 50 -41 129q0 59 16 118t49 119q138 18 148 128q-54 -86 -132 -96 q54 86 120 148.5t149 103.5l79 -37q31 -15 45 -20q38 -17 76.5 -25t78.5 -8q61 0 76 40zM541 675q-39 -17 -78.5 -41.5t-80.5 -54.5q-55 -42 -95 -85t-64 -88q-60 12 -99 48q-42 40 -42 99q0 209 156 209q69 0 162 -35zM906 621q0 -34 -27 -32q-132 3 -273 81q78 35 141 27 q133 -11 159 -67v-9zM398 334q-12 -4 -7 -4q4 2 7 4z" />
<glyph unicode="H" horiz-adv-x="1146" d="M1524 606q6 6 -9 19q-50 44 -143 44q-205 0 -373 -242q-86 26 -170 9l-4 -1q99 190 189 199h16q2 0 6 -1t9 -3q8 -3 11 -2q1 16 -128 47q-256 58 -379 58q-56 0 -106 -8t-98 -25q-131 -47 -131 -138q0 -54 45 -85q39 -30 95 -30q15 0 33 3q-150 6 -150 93q0 80 132 123 q48 14 97 22t101 8q86 0 178 -10t192 -29q18 -4 31.5 -6.5t22.5 -5.5q-100 -18 -232 -231q-134 -57 -185 -104l74 40q31 17 54 25q9 4 40 12q-27 -48 -31 -56l-15 -28q-15 -29 -31 -55.5t-34 -52.5l-97 47q-36 18 -48 22q-68 22 -168 30q-86 6 -158 -51q-71 -61 -67 -147 q11 -167 220 -167q126 0 233 74l15 9v1q62 46 121 116q79 -41 162 -45q-3 -17 -5 -29.5t-2 -21.5q0 -91 84 -134q-2 2 -6 7t-11 16q-10 16 -15.5 31.5t-5.5 31.5q0 5 1 11t2 11l9 36l7 27q2 10 4 15l31 2q57 1 113 46q69 57 63 143q-5 88 -68 130q152 251 336 251 q63 0 122 -41zM615 172q-107 -141 -189 -189q-69 -31 -125 -31q-73 -2 -120.5 35.5t-48.5 109.5q-3 72 55 114q68 53 128 53q85 -3 156 -27l48 -21q36 -15 96 -44zM982 403q-57 -88 -94 -180q-8 -19 -16 -45l-19 -60q-89 8 -150 38l-6 4q30 45 72 153q13 33 23 56t19 37 q25 6 48.5 9t46.5 5q28 1 76 -17zM1075 273q3 -65 -48 -108q-42 -36 -111 -45q22 66 50 131t64 128q43 -37 45 -106z" />
<glyph unicode="I" horiz-adv-x="707" d="M960 630q1 4 -12 12q-35 17 -65.5 29t-59.5 19q-114 27 -205.5 39.5t-163.5 11.5q-209 -8 -216 -174q-2 -81 57 -134q58 -51 141 -51q4 0 10.5 1t16.5 2q162 21 171 135l-10 -16q-29 -45 -69 -66t-93 -23q-76 0 -126 38q-59 42 -59 112q0 147 165 152q135 3 257 -16 t234 -62q-98 6 -191 -108q-21 -27 -51.5 -76.5t-68.5 -123.5q-47 -88 -118 -187q-135 -189 -290 -204q-167 1 -172 148q-3 72 55 114q53 41 123 44q111 1 167 -84q1 -5 9 -15q-12 117 -176 129q-86 6 -153 -47q-71 -57 -64 -142q10 -165 193 -165q138 0 219 48 q105 61 197 253l54 114q73 153 118 207q61 70 158 86h18z" />
<glyph unicode="J" horiz-adv-x="387" d="M708 618q2 2 -6 9q-66 37 -161 63q-109 27 -201 39.5t-168 11.5q-209 -8 -216 -174q-2 -91 68 -141q37 -30 75 -30q11 0 31 3q85 9 110 58q10 21 15 89l-9 -15q-36 -57 -42 -72q-23 -27 -71 -27t-78 21q-60 42 -60 112q0 147 165 152q135 3 257 -16t234 -62 q-218 13 -419 -377l-115 -228l-126 -255q-67 -84 -110.5 -134t-66.5 -67q-89 -67 -267 -73q-74 -2 -121 36.5t-49 110.5q-2 71 56 114q49 39 123 42q111 5 166 -83q2 -2 4 -6.5t5 -9.5q-10 116 -175 130q-45 4 -83 -8t-70 -38q-69 -56 -65 -143q12 -165 221 -168 q194 0 306 77q39 27 80.5 74t85.5 116q13 20 65 124l145 296l63 126q28 55 54.5 99t55 77.5t63 61.5t79 51t104.5 46q7 0 16 -4l24 -8q5 -3 8 0z" />
<glyph unicode="K" horiz-adv-x="1061" d="M1401 616q1 2 -3 12q-9 18 -24 32.5t-33.5 25t-39.5 16.5t-41 6q-103 0 -198 -92q-62 -59 -138 -180q-24 -36 -52.5 -67.5t-63.5 -59.5q-83 -68 -153 -68q-28 0 -45 14l56 117q35 75 65 126t53 79q63 72 158 87q13 0 40 -12q5 -2 8 0q1 3 -6 8q-57 36 -161 64 q-218 54 -369 51q-208 -6 -216 -175q-2 -81 57 -132q55 -51 138 -51h13q7 0 17 1q162 21 171 135l-10 -15q-58 -88 -162 -88q-75 0 -126 36q-59 42 -59 112q0 148 165 153q268 7 491 -78q-96 7 -191 -109q-21 -27 -51.5 -76.5t-68.5 -121.5q-23 -45 -52.5 -91.5t-65.5 -96.5 q-135 -191 -290 -204q-168 3 -172 149q-3 69 55 114q51 39 123 42q111 1 167 -83q2 -6 9 -16q-12 117 -176 129q-87 6 -153 -45q-35 -29 -51.5 -64.5t-12.5 -79.5q10 -164 193 -164q143 0 236 60q82 57 153 189q19 -3 36.5 -5t33.5 -2q110 0 156 55l12 9q4 -46 14 -89.5 t28 -82.5q45 -95 102 -95q43 0 65 48q4 7 1 9q-1 2 -6 2l-3 -5q-16 -25 -36 -25q-59 0 -102 172l-16 66q-7 25 -11 38q22 23 42.5 53.5t40.5 67.5q136 252 330 252q76 0 120 -48q4 -9 9 -9z" />
<glyph unicode="L" horiz-adv-x="428" d="M978 700q-9 167 -221 167q-394 0 -714 -647q-51 -101 -51 -163q0 -35 53 -65q19 -11 40 -19t44 -14q141 -55 261 -83t222 -28q118 0 133 90q1 2 0 8t-3 12l-6 13q-2 6 -4 8q0 -11 1 -15q0 -17 -1 -18q-17 -57 -128 -57q-80 0 -207 37l-304 90q-50 17 -50 50q0 12 6 30 q72 152 141 270t137 205q214 272 444 273q73 2 119.5 -35.5t49.5 -111.5q2 -35 -12.5 -63t-42.5 -49q-53 -41 -123 -44q-98 -5 -164 80q-4 4 -13 19q13 -117 177 -129q90 -6 153 45q69 54 63 144z" />
<glyph unicode="M" horiz-adv-x="1209" d="M1597 691q0 37 -76 44q-62 4 -140 -23q-28 -10 -49.5 -20t-38.5 -20q-88 -56 -167 -126.5t-151 -158.5q-33 -40 -76 -99l-99 -140q4 9 15 38l25 70l29 82l27 82q12 37 19 62.5t6 27.5q42 142 100 150q2 2 3.5 4t2.5 3q4 7 -3 9q-43 22 -81 37.5t-73 24.5 q-112 27 -204.5 39.5t-166.5 11.5q-213 -7 -217 -177q-3 -86 57 -137q55 -49 142 -49h10q7 0 17 1q165 18 174 149l-16 -26q-52 -84 -159 -87q-73 0 -125 36q-57 42 -57 111q0 145 162 150q258 7 474 -72q-89 -4 -175 -111q-20 -26 -50.5 -75t-69.5 -124q-22 -40 -58 -94 l-83 -124q-132 -187 -288 -204q-166 3 -171 146q-2 35 12.5 63t42.5 49q53 41 122 42q105 3 162 -82l18 -24q-14 129 -180 142q-92 7 -156 -46q-71 -57 -65 -146q12 -166 197 -166q140 0 220 46q90 54 197 257l76 145q45 86 75.5 136.5t44.5 67.5q61 70 155 86h5q3 0 8 -2 q-153 -87 -193 -304q-6 -31 -19 -80l-32 -115q-20 -63 -32 -112.5t-18 -84.5l170 240q72 99 120 156q75 90 152 161.5t160 125.5q45 29 100 45q-75 -40 -147 -120.5t-144 -202.5q-20 -35 -40.5 -76t-40.5 -89q-14 -35 -24.5 -64.5t-17 -56.5t-9.5 -52t-3 -50q0 -57 44 -101 q19 -22 31 -19q15 4 15 13q0 16 -13 48q-12 34 -12 50q0 54 28 139t86 201q166 344 300 392q17 5 34.5 7t35.5 0q6 0 13.5 -1t16.5 -5q27 -11 27 -33q0 -21 -25 -49q34 33 34 58z" />
<glyph unicode="N" horiz-adv-x="1077" d="M1512 594q1 0 -3 10q-9 18 -24 32.5t-33.5 25t-39.5 16.5t-41 6q-189 2 -338 -270q-51 -94 -86 -175t-55 -152q14 95 -12 241q-19 111 -7 198q10 96 69 104q7 0 16 -4l24 -8q5 -3 8 0q1 1 -8 9q-65 37 -159 63q-111 27 -202.5 39.5t-166.5 11.5q-209 -8 -216 -174 q-2 -81 56 -134q58 -51 141 -51q5 0 11.5 1t16.5 2q162 21 171 135l-10 -16q-29 -45 -69 -66t-93 -23q-76 0 -126 38q-59 42 -59 112q0 147 165 152q135 3 257 -16t234 -62q-98 6 -191 -108q-21 -27 -51.5 -76.5t-68.5 -123.5q-47 -88 -118 -187q-135 -189 -290 -204 q-167 1 -172 148q-3 72 55 114q53 41 123 44q111 1 167 -84q1 -5 9 -15q-12 117 -176 129q-86 6 -153 -47q-71 -57 -64 -142q10 -165 193 -165q138 0 219 48q105 61 197 253l54 114q131 275 222 285q-78 -49 -78 -199q0 -22 2.5 -49t7.5 -61q2 -17 11 -56.5t25 -102.5 q11 -46 13.5 -101t-2.5 -119q46 148 92 263t92 200q138 252 330 252q78 0 122 -48q5 -10 9 -7z" />
<glyph unicode="O" horiz-adv-x="882" d="M768 405q0 86 -35 136v12q-11 167 -220 167q-261 0 -420 -188q-58 -66 -86 -141t-28 -160q0 -42 8 -78.5t25 -68.5q42 -85 120.5 -127.5t174.5 -39.5q57 2 112.5 21t111.5 54q186 120 232 350l3 12q2 14 2 27v24zM568 634h-34q-166 0 -273 -103q-96 -89 -96 -200 q0 -52 27 -85q-3 22 -3 45q0 141 127 231q107 76 233 76q55 0 105 -21q23 -10 42 -26q2 -71 -56 -113q-51 -41 -123 -42q-21 -2 -39 3.5t-33 15.5q-34 26 -34 66q0 13 3.5 25.5t11.5 27.5q-30 -35 -30 -71q0 -45 40 -72q34 -24 81 -27q88 -6 153 47q50 40 61 96 q16 -34 16 -72q0 -107 -80 -243q-57 -99 -145.5 -162.5t-206.5 -94.5q-201 -14 -278 149q-10 23 -15.5 47.5t-5.5 52.5q0 144 135 312q160 201 375 201q75 2 116.5 -28t50.5 -89q-75 50 -125 54z" />
<glyph unicode="P" horiz-adv-x="781" d="M775 346q68 44 68 125q0 103 -137 204l-4 3l6 1q13 0 39 -13q3 -2 5.5 -1t6.5 2q6 12 -30 21l-25 4q-11 1 -20 1h-6q-84 49 -198 54q-161 6 -279 -57q-38 -20 -67.5 -48t-52.5 -68q-45 -77 -45 -160q0 -59 33 -101q-36 14 -81 17q-91 6 -156 -47q-70 -55 -65 -145 q12 -168 197 -168q139 0 219 49q105 61 198 255l54 114q60 126 94 174q66 91 156 113q114 -76 114 -171q0 -11 -1 -22.5t-5 -24.5q-31 -136 -154 -126l-30 11q-53 19 -78 58q0 -3 1 -6q9 -35 54 -57q38 -19 80 -19q63 0 109 28zM657 690q-38 -8 -74.5 -34t-74.5 -73 q-18 -21 -37 -51l-41 -69l-70 -127h-2q-54 -62 -132 -62q-73 0 -126 50q-36 33 -36 99q0 44 20 81q55 116 166 175q52 29 111.5 41t125.5 9q47 -2 89.5 -12t80.5 -27zM333 291l-29 -43l-36 -52q-136 -187 -288 -202q-163 1 -168 147q-1 68 54 111q25 19 55.5 29.5t66.5 12.5 q109 1 163 -81q2 -4 5.5 -9.5t11.5 -16.5q-4 22 -9.5 40.5t-16.5 33.5q15 -6 30.5 -8.5t32.5 -2.5q66 0 128 41z" />
<glyph unicode="Q" horiz-adv-x="882" d="M768 405q0 86 -35 136v12q-11 167 -220 167q-261 0 -420 -188q-58 -66 -86 -141t-28 -160q0 -42 8 -78.5t25 -68.5q29 -60 78 -99t111 -56q-161 -204 -201 -243q-126 -126 -255 -126q-166 0 -171 147q-2 35 12.5 63t42.5 51q52 40 125 42q108 3 165 -82q2 -7 10 -17 q-14 119 -175 129q-89 8 -155 -45q-69 -56 -63 -144q9 -151 221 -166q186 -14 427 286l36 47l36 48q13 -1 25.5 -1.5t25.5 -0.5q57 2 112.5 21t111.5 54q186 120 232 350l3 12q2 14 2 27v24zM526 450q0 70 -77 73q13 -1 23 -13q21 -25 -1 -98q-1 -1 -1 -2t-1 -2l-12 9 q-34 25 -34 51q0 28 25 28q15 0 33 -12q-1 5 -2 9l-2 8q-14 19 -30 22h2h-4q-54 -18 -54 -60q0 -39 44 -69q5 -4 10.5 -7t10.5 -6q-78 -162 -137.5 -270t-104.5 -165q-1 -1 -2 -1.5t-2 -2.5q-119 27 -173 142q-10 23 -15.5 47.5t-5.5 52.5q0 144 135 312q160 201 375 201 q75 2 116.5 -28t50.5 -89q-75 50 -125 54h-34q-166 0 -273 -103q-96 -89 -96 -200q0 -52 27 -85q-3 22 -3 45q0 141 127 231q107 76 233 76q55 0 105 -21q23 -10 42 -26q2 -71 -56 -113q-51 -41 -121 -42q7 28 7 54zM747 435q0 -107 -80 -243q-57 -99 -145.5 -162.5 t-206.5 -94.5q-26 -2 -48 0q58 81 110 168t100 183q11 22 19 42l13 36h8q90 -6 153 45q50 40 61 98q16 -34 16 -72z" />
<glyph unicode="R" horiz-adv-x="877" d="M820 346q68 44 68 125q0 102 -135 204l-6 3l6 1q13 0 40 -13q2 -2 4.5 -1t6.5 2q6 12 -30 21l-25 4q-11 1 -20 1h-6q-84 49 -198 54q-161 6 -279 -57q-38 -20 -67.5 -48t-52.5 -68q-45 -77 -45 -160q0 -59 33 -101q-36 14 -81 17q-91 6 -156 -47q-70 -55 -65 -145 q12 -168 197 -168q139 0 219 49q105 61 198 255l54 114q60 126 94 174q66 91 156 113q114 -76 114 -171q0 -11 -1 -22.5t-5 -24.5q-31 -136 -154 -126l-30 11q-11 3 -16.5 6.5t-7.5 5.5v-5q-3 3 -1 5q-38 19 -53 46q0 -33 54 -60q6 -357 144 -357q45 0 64 47q4 5 2 9 q-2 1 -3.5 2t-2.5 1t-3 -5q-17 -25 -36 -25q-62 0 -102 171q-9 36 -15.5 71t-11.5 70q12 -4 23 -5t22 -1q63 0 109 28zM702 690q-38 -8 -74.5 -34t-74.5 -73q-18 -21 -37 -51l-41 -69l-70 -127q-57 -62 -134 -62q-73 0 -126 50q-36 33 -36 99q0 44 20 81q55 116 166 175 q105 56 237 50q47 -2 89.5 -12t80.5 -27zM378 291l-29 -43l-36 -52q-136 -187 -288 -202q-163 1 -168 147q-1 68 54 111q25 19 55.5 29.5t66.5 12.5q109 1 163 -81q2 -4 5.5 -9.5t11.5 -16.5q-4 22 -9.5 40.5t-16.5 33.5q15 -6 30.5 -8.5t32.5 -2.5q66 0 128 41z" />
<glyph unicode="S" horiz-adv-x="639" d="M883 621q0 64 -88 99q-48 18 -96 18q-138 0 -209 -143q-20 -65 -27 -186q-3 -70 -8.5 -117t-10.5 -73q-17 -72 -39.5 -118t-50.5 -70q-45 -38 -147 -36q-167 3 -195 147q-3 12 -3 29q0 59 49 93q45 32 105 34q105 3 180 -84q6 -5 9 -9t5 -6q-35 119 -198 129 q-90 8 -147 -48q-44 -41 -44 -99q0 -20 6 -42q40 -166 249 -166q158 0 231 115q53 84 72 258l32 266q46 112 144 112q78 0 132 -55q22 -25 22 -45q0 -40 -69 -62q96 0 96 59z" />
<glyph unicode="T" horiz-adv-x="785" d="M1290 649l-5 5q-14 -15 -24 -22.5t-13 -9.5q-17 -3 -29 -3.5t-18 0.5q-279 54 -306 60q-2 64 -78 66q32 -3 32 -52v-6q-149 28 -273.5 41.5t-224.5 13.5q-273 0 -408 -120q-45 -42 -45 -115q0 -83 58 -131q54 -45 138 -45q57 0 108 24q63 31 63 83q0 30 -24 54 q14 -22 14 -38q0 -45 -63 -75q-53 -24 -102 -24q-35 0 -63.5 10.5t-49 30t-32 47t-11.5 61.5q0 63 37 99q112 99 390 99q97 0 218 -11t267 -33q-2 -10 -3.5 -16t-2.5 -8q-81 -164 -150 -283.5t-129 -194.5q-214 -272 -449 -272q-72 0 -115 41q-48 40 -48 112t63 114 q54 36 127 36q106 0 165 -99q-15 131 -193 131q-78 0 -137 -50q-63 -51 -63 -129q0 -178 221 -178q391 0 712 646q22 43 34 79t16 65q89 -18 166.5 -30t143.5 -19q11 -2 23.5 0t24.5 6q3 1 9 6.5t12 12t11 12.5t6 9z" />
<glyph unicode="U" horiz-adv-x="837" d="M987 673q0 14 -5 14q-6 0 -18 -14l-306 -396l-122 -155q-46 -58 -64 -77q-87 -90 -135 -90q-32 0 -43 25q-18 39 3 122q42 171 103 232q18 20 52 62l83 108q80 107 144 157l41 -16q14 -6 18 -8q4 0 6 2q4 9 -60 37q-5 14 -17 14h-4q-3 0 -6 -2q-44 18 -81 27 q-220 54 -371 51q-212 -6 -217 -177q-3 -84 58 -136q58 -50 141 -50h10q7 0 17 2q167 18 176 148l-17 -25q-51 -85 -159 -87q-73 0 -124 36q-59 41 -59 111q0 143 164 150q218 6 438 -62q-6 -1 -8 -3q-145 -94 -262 -270q-99 -149 -123 -273q-16 -71 3 -127q22 -69 93 -69 q55 0 153 93q32 32 85.5 97.5t127.5 166.5q60 82 63 87l6 -5q-20 -28 -32 -48t-18 -33l-38 -76l-35 -65q-46 -105 -47 -97q-1 -5 -2 -11.5t-1 -11.5q0 -72 65 -72q35 0 87 65q5 5 21 28.5t45 62.5q5 10 -2 15q-7 9 -12 -1q-96 -152 -141 -152q-11 0 -15 11q-7 20 12 73 l68 127l55 101l206 368v16z" />
<glyph unicode="V" horiz-adv-x="794" d="M898 510q216 264 423 285q-71 1 -141.5 -22.5t-140.5 -72.5q-73 -51 -193 -192l-91 -109q-37 -45 -56 -72q-180 -240 -225 -284t-73 -63t-43 -13q-9 1 -13 10q-3 25 46 101q118 178 138 217q42 78 69.5 137.5t40.5 101.5q16 58 7 112l68 -24l48 -19q3 0 4 1q5 8 -12 17 l-59 27q-29 12 -55 21q-5 10 -12 19.5t-18 17.5q-7 5 -7 2v-13q0 -7 1 -16l-6 2q-134 26 -225.5 39t-144.5 12q-211 -7 -218 -177q-2 -85 57 -135q31 -26 66 -39.5t77 -13.5q10 2 16.5 2.5t10.5 2.5q166 19 175 148l-16 -25q-26 -45 -66 -66t-93 -23q-74 0 -125 38 q-58 42 -58 109q0 146 163 150q201 7 387 -45v-3q0 -30 -21 -88q-37 -106 -97 -212l-98 -169q-34 -62 -43 -81q-30 -66 -30 -104q0 -51 43 -54q83 -4 254 215l126 162l80 98q38 44 76 82l6 6h-2z" />
<glyph unicode="W" horiz-adv-x="756" d="M816 510q185 287 376 285q-134 6 -265 -95q-34 -26 -74.5 -74t-89.5 -118l-70 -104q-29 -45 -47 -77l-81 -137l-39 -64q-105 -161 -154 -161q-14 0 -23 12v3q-6 25 47 135l66 145l36 82q55 143 55 229q0 56 -10 75q-17 31 -29.5 46.5t-23.5 15.5h-1q15 -47 10 -90 q-1 -39 -78 -149q-69 -96 -103 -147q-226 -363 -287 -363q-14 0 -21 11v4q-6 22 47 135l67 147q26 56 35 80q55 140 55 228q0 19 -2.5 38t-7.5 37q51 -13 115 -41q2 -1 6 -1q3 0 6 1v2q-4 19 -138 61q-24 41 -42 41h-1l6 -29q-135 26 -228 38.5t-147 12.5q-201 0 -201 -144 q0 -18 3 -39q11 -79 81 -130q64 -50 144 -50q2 0 9.5 1t21.5 2q162 23 150 149q-27 -61 -58 -86q-36 -27 -99 -27q-74 0 -131 36q-63 43 -75 111q-4 19 -4 36q0 73 60 96q40 18 123 18q178 0 355 -45q2 -16 0 -39t-7 -54q-11 -51 -26.5 -102.5t-38.5 -107.5 q-47 -117 -72 -174q-42 -108 -42 -163q0 -71 53 -71q75 0 219 215l111 163l84 127q30 46 36 60l-27 -74l-50 -125q-51 -127 -72 -202q-20 -70 -13 -104q6 -54 54 -54q85 0 216 215l100 162q67 109 132 186h-1z" />
<glyph unicode="X" horiz-adv-x="951" d="M1396 721q8 3 -4 15q-56 56 -167 56q-60 0 -118 -19t-116 -56q-161 -105 -255 -306q-6 119 -70 216q-80 115 -212 115q-212 3 -217 -175q-4 -85 57 -137q55 -49 142 -49h10q7 0 17 1q165 18 174 149l-16 -26q-53 -87 -159 -87q-73 0 -125 36q-58 43 -58 111 q0 144 163 150q125 -11 195 -114q57 -83 57 -195q0 -62 -19 -97q-121 -227 -279 -308q-97 -49 -182 -58q-84 1 -126.5 37.5t-44.5 107.5q-1 69 56 113q26 20 56 30t65 12q111 1 164 -83q1 -2 5 -7.5t11 -16.5q-13 127 -180 141q-90 7 -154 -45q-71 -56 -65 -145 q12 -167 195 -167q142 0 221 47q35 21 70.5 47.5t70.5 58.5q81 71 115 132q-3 -27 -4.5 -46t0.5 -30q6 -35 42 -80q46 -59 117 -79q86 -26 102 -20l-56 18q-24 8 -40 14q-33 23 -49 36t-17 15q-50 55 -50 129q0 120 132 330q178 285 363 285q97 0 165 -44q16 -14 18 -12z " />
<glyph unicode="Y" horiz-adv-x="851" d="M987 673q0 14 -5 14q-6 0 -18 -14l-306 -396l-122 -155q-46 -58 -64 -77q-87 -90 -135 -90q-32 0 -43 25q-18 39 3 122q22 90 54 156t65.5 114t65.5 80l53 52q24 23 44 46l37 44l32 38q15 17 31 29l41 -16q14 -6 18 -8q4 0 6 2q4 9 -60 37q-5 14 -17 14h-4q-3 0 -6 -2 q-44 18 -81 27q-220 54 -371 51q-212 -6 -217 -177q-3 -84 58 -136q58 -50 141 -50h10q7 0 17 2q167 18 176 148l-17 -25q-51 -85 -159 -87q-73 0 -124 36q-59 41 -59 111q0 143 164 150q218 6 438 -62q-6 -1 -8 -3q-145 -94 -262 -270q-99 -149 -123 -273q-16 -71 3 -127 q22 -69 93 -69q55 0 153 93q32 32 85.5 97.5t127.5 166.5q60 82 63 87l6 -5q-22 -32 -34 -52.5t-16 -28.5q-78 -168 -152.5 -297.5t-145.5 -224.5q-119 -156 -237 -234t-239 -79q-73 -2 -120 36.5t-51 110.5q-1 69 56 114q26 20 57 30t67 12q110 1 165 -83q2 -2 4.5 -6.5 t6.5 -9.5q-12 117 -176 129q-87 6 -153 -45q-71 -59 -64 -144q11 -167 220 -167q390 0 714 647q23 46 44 79l43 86l21 43l206 368v16z" />
<glyph unicode="Z" horiz-adv-x="865" d="M1041 684h-15l-12 3q-237 46 -432 54q-337 11 -489 -119q-98 -83 -98 -196q0 -112 84 -162q-43 32 -58 106q-13 50 -2 99q18 75 98 134q136 99 414 99q175 0 423 -36q-111 -50 -233 -206l-94 -121q-115 28 -146 28q-91 0 -91 -76q20 34 96 34q42 0 108 -21l3 -1l-46 -53 l-56 -61q-132 -136 -254 -183q0 1 -4 0q-87 -12 -87 -18q0 -2 4 -3q24 -8 73 -13.5t122 -10.5l47 -5q23 -1 51.5 -2t60.5 -1q74 0 140 6.5t127 19.5q-2 -2 -3 -4t-3 -4q3 0 9.5 5t12.5 11t11 12.5t5 9.5t-5 3h-9q-86 -20 -163 -29t-149 -9q-104 0 -174 15l-10 3 q159 31 324 276l15 24q40 -10 66 -10q79 0 87 81q-14 -36 -89 -36q-17 0 -36 4l38 51l74 100q31 41 50 62q79 88 165 117l14 -3q17 15 36 26z" />
<glyph unicode="[" horiz-adv-x="270" d="M557 883q-3 12 -24 12l-122 2q-48 0 -61 -33l-503 -1274q-14 -38 -18 -45q4 -9 27 -9h149q22 0 22 12q-1 11 -22 11h-126l532 1315l123 -1q20 0 23 10z" />
<glyph unicode="\" horiz-adv-x="333" d="M352 -8l-322 825h-50l323 -825h49z" />
<glyph unicode="]" horiz-adv-x="278" d="M452 888q-5 7 -27 7l-150 2q-21 0 -21 -12q1 -11 21 -11l127 -1l-532 -1314h-123q-20 0 -23 -11q3 -12 24 -12h122q47 0 61 33l503 1274q15 42 18 45z" />
<glyph unicode="^" horiz-adv-x="865" d="M711 621q-5 30 -45 103l-26 48q-10 19 -18 30l-82 -64l-59 -45l-45 -26q-12 -7 -15 -13l-19 -20q-24 -23 -24 -27t3 -4h6q74 37 228 154q14 -21 22.5 -39.5t11.5 -35.5l9 -34q-1 -5 8 -8q1 -1 2 -1t2 -2l14 -12q14 -13 18 -13q9 4 9 9z" />
<glyph unicode="_" horiz-adv-x="444" d="M436 21q0 3 -4 3h-8q-37 -11 -74.5 -15.5t-76.5 -4.5q-88 0 -140 15l-51 17q-1 1 -3 0q-70 -12 -70 -18q0 -2 3 -3q42 -13 157 -24l36 -3q24 -2 58.5 -3.5t81.5 -1.5h27q12 0 39 9q4 0 12 8q13 14 13 21z" />
<glyph unicode="`" horiz-adv-x="282" d="M195 601q13 38 -6 87q-6 15 -20.5 44t-39.5 73q-62 32 -83 33q-3 -3 -3 -4q20 -26 37 -43t31 -25q54 -95 54 -142q0 -8 -1.5 -14t-3.5 -12l-4 -13q1 -11 6 -14.5t13 -2.5l7 8q3 4 5 6z" />
<glyph unicode="a" horiz-adv-x="354" d="M372 148q7 8 0 15t-14 -1q-96 -152 -139 -152q-11 0 -15 11q-8 20 12 72q17 46 47.5 103t75.5 126q-48 5 -74 -18l-6 -6q-13 51 -67 51q-59 0 -119 -60q-94 -94 -94 -199q0 -90 73 -90q51 0 104 48q6 -56 64 -56q45 0 87 63zM211 282q0 -46 -27 -113q-56 -144 -124 -144 q-35 0 -35 50q0 92 77 193q42 57 81 57q28 0 28 -43z" />
<glyph unicode="b" horiz-adv-x="301" d="M978 723q-9 166 -221 166q-394 0 -714 -646q-51 -102 -51 -164q0 -26 11 -40q15 -50 67 -50q60 0 119 62q48 48 71 98t23 101q0 90 -73 90q-14 0 -27.5 -3.5t-28.5 -11.5q88 162 173 269q213 270 444 273q73 1 119.5 -36.5t49.5 -110.5q2 -35 -12.5 -63t-42.5 -50 q-26 -20 -56.5 -31t-66.5 -12q-97 -7 -164 79l-13 20q14 -120 177 -129q86 -5 151 48q71 56 65 141zM231 271q0 -44 -27 -111q-57 -144 -125 -144q-34 0 -34 50q0 14 2 29t5 29l31 63l29 59l8 12q42 57 81 57q30 0 30 -44z" />
<glyph unicode="c" horiz-adv-x="252" d="M259 294q0 37 -52 42q-55 4 -120 -62q-87 -86 -87 -181q0 -92 75 -92q5 -1 9 -1h9q42 0 91 31q56 34 96 95q6 9 -1 18q-9 11 -17 -2q-72 -117 -178 -117q-32 0 -32 54q0 80 68 171q40 56 78 56q36 0 36 -24q0 -28 -56 -77l3 -4q78 54 78 93z" />
<glyph unicode="d" horiz-adv-x="366" d="M1159 723q-10 166 -222 166q-374 0 -678 -579q-18 30 -60 30q-57 0 -118 -61q-95 -95 -95 -200q0 -90 74 -90q54 0 109 53q9 -50 63 -50q42 0 86 63l66 93q7 8 -2 15q-5 7 -12 -1q-87 -139 -133 -150q-23 13 -18 54q5 21 10.5 36.5t8.5 26.5q17 32 26 61q128 256 243 404 q211 270 444 273q73 1 119.5 -36.5t49.5 -110.5q2 -35 -12.5 -63t-42.5 -50q-26 -20 -56.5 -31t-66.5 -12q-97 -4 -164 79q-5 5 -12 20q13 -118 176 -129q90 -8 153 45q69 54 64 144zM219 271q0 -22 -8 -54q-10 -23 -18 -44.5t-13 -40.5q-53 -116 -113 -116q-33 0 -33 50 q0 46 19 93.5t56 98.5q45 57 81 57q29 0 29 -44z" />
<glyph unicode="e" horiz-adv-x="259" d="M276 154q0 11 -11 11l-30 -41q-78 -117 -147 -117q-40 0 -40 51q0 50 15 65l51 37l42 26q91 51 91 99t-51 48q-40 0 -93 -41q-112 -87 -112 -190q0 -45 26 -78t71 -33q90 0 185 156l2 4q1 2 1 3zM198 249q-40 -35 -71.5 -59t-54.5 -39q11 37 52 96q48 71 75 71q4 0 8 -3 t7 -3q8 -17 9 -14q-1 -17 -25 -49z" />
<glyph unicode="f" horiz-adv-x="296" d="M1012 723q-10 166 -220 166q-359 0 -651 -526q-11 1 -22 1h-19q-102 0 -102 -66q0 -20 15 -33q18 49 63 56q7 1 18 1h26q-15 -26 -25 -46l-17 -33q-145 -307 -276 -476q-210 -265 -446 -273q-71 -2 -118 36q-49 40 -51 111q-2 34 12.5 62t42.5 51q26 20 56.5 31t66.5 12 q106 4 164 -79q10 -15 12 -20q-12 119 -176 129q-43 4 -81 -8t-70 -38q-70 -57 -66 -143q4 -85 72 -129q59 -37 150 -37q231 0 435 222q155 172 279 424q45 97 102 198q25 -3 43 -3.5t29 0.5q66 12 66 60q0 19 -17 41q-11 -48 -58 -56q-19 -4 -41 -1q50 85 95.5 153 t87.5 121q184 228 413 236q37 1 67 -7t53 -26q47 -40 49 -114q3 -70 -54 -113q-52 -42 -124 -43q-97 -4 -164 79q-10 15 -12 20q13 -118 176 -129q91 -7 154 45q70 54 63 144z" />
<glyph unicode="g" horiz-adv-x="284" d="M261 250q0 90 -74 90q-54 0 -117 -61q-96 -95 -96 -200q0 -90 74 -90q17 0 39 8q-47 -81 -94 -153t-98 -135q-187 -232 -413 -236q-72 0 -119 37.5t-50 109.5q-2 35 12.5 64t42.5 50q53 41 123 42q112 5 164 -78q11 -14 13 -20q-14 117 -177 130q-86 6 -153 -47 q-69 -56 -63 -144q12 -166 221 -166q396 0 714 646l22 49q8 17 9 19q20 47 20 85zM208 271q0 -26 -9 -57q-42 -90 -87 -171q-27 -27 -55 -27q-35 0 -35 50q0 46 19 93.5t56 98.5q45 57 81 57q30 0 30 -44z" />
<glyph unicode="h" horiz-adv-x="381" d="M967 723q-10 166 -220 166q-394 0 -714 -646q-26 -51 -38.5 -94.5t-12.5 -78.5q0 -73 77 -75q-32 3 -29 54q28 131 63 177l12 24q49 72 91 72q30 0 30 -46q0 -37 -27 -104q-25 -67 -25 -100q0 -20 9 -41q18 -42 58 -42q70 0 162 144q5 9 -3 17q-7 7 -13 -3 q-26 -38 -44 -60.5t-27 -31.5q-48 -48 -73 -48q-20 0 -20 30q0 43 36 135q18 45 18 86q0 88 -72 88q-28 0 -54 -13q103 183 195 298q182 228 413 236q37 1 67 -7t53 -26q47 -40 49 -114q3 -70 -54 -113q-52 -42 -124 -43q-97 -4 -164 79q-10 15 -12 20q13 -120 176 -129 q87 -4 151 48q73 57 66 141z" />
<glyph unicode="i" horiz-adv-x="192" d="M214 154q0 8 -9 8q-4 0 -9 -5q-96 -150 -150 -150q-9 0 -18 12q-9 22 11 74q32 91 103 202q-4 15 -31 33q-26 18 -42 18q-7 0 -5 -3q4 -12 5 -23t1 -22q0 -17 -5.5 -33.5t-16.5 -30.5l-31 -46q-11 -16 -14 -22q-27 -56 -27 -96q0 -79 69 -79q40 0 96 60q23 23 39.5 47.5 t29.5 49.5q4 3 4 6zM264 460q-26 3 -47 3q-47 0 -81 -10q-5 -3 -10 -12q-4 -7 -3 -13.5t4 -12.5q16 -31 48 -31q21 0 21 21q0 1 -6.5 9.5t-6.5 14.5q0 20 81 31z" />
<glyph unicode="j" horiz-adv-x="141" d="M100 268q-5 73 -81 74q36 -3 36 -51q0 -27 -9 -60q-64 -155 -134.5 -282.5t-145.5 -230.5q-174 -233 -399 -236q-166 -2 -179 146q-6 70 50 114q52 42 121 43q108 3 168 -79q3 -8 14 -20q-21 119 -185 129q-38 4 -73 -7t-68 -35q-67 -49 -67 -126q0 -92 72 -144 q64 -43 160 -43q397 0 678 646q45 103 42 162zM186 460q-26 3 -48 3q-47 0 -81 -10q-5 -3 -9 -12q-8 -14 0 -26q18 -31 49 -31q21 0 20 21q0 1 -7 9.5t-7 14.5q0 21 83 31z" />
<glyph unicode="k" horiz-adv-x="366" d="M955 723q-9 166 -220 166q-394 0 -714 -646q-26 -51 -38.5 -94.5t-12.5 -78.5q0 -74 78 -75q-33 3 -30 54q5 22 10 40.5t11 34.5q5 -27 40 -64q52 -56 95 -65l43 -4q5 -2 8 -2h6q68 0 160 144q5 9 -3 17q-7 7 -13 -3l-45 -63q-16 -21 -20 -23q-43 -43 -93 -43 q-8 0 -42 12q-33 13 -36 18q-60 49 -60 76q0 28 45 48q176 80 176 128q0 46 -107 46q-25 0 -54 -13q54 93 102 167t95 131q181 228 411 236q78 2 120 -33q48 -40 51 -114q1 -69 -56 -113q-52 -42 -124 -43q-97 -4 -162 79l-14 20q13 -120 176 -129q87 -5 153 48 q71 57 64 141zM226 291q0 -50 -163 -125q-9 -2 -15 -9q8 23 16.5 40t16.5 29l12 24q49 72 91 72t42 -31z" />
<glyph unicode="l" horiz-adv-x="187" d="M952 711q-10 166 -220 166q-397 0 -714 -646q-26 -51 -38.5 -92t-12.5 -72q0 -36 16 -55q18 -23 48 -23q37 0 93 63q45 49 69 96q3 3 3 6q0 5 -4 6q-6 6 -14 -3l-54 -73l-22 -29q-41 -45 -65 -45q-25 0 -25 33q0 25 12 63q71 153 139.5 270.5t136.5 203.5 q212 272 444 275q75 1 121 -36.5t50 -110.5q1 -69 -56 -114q-26 -20 -56.5 -30.5t-67.5 -11.5q-98 -5 -164 78q-2 3 -5 8t-7 13q13 -120 176 -129q91 -7 154 45q70 54 63 144z" />
<glyph unicode="m" horiz-adv-x="562" d="M358 96q-6 -26 -6 -42q0 -54 57 -54q44 0 173 156q5 8 0 15q-7 6 -12 -2q-121 -151 -159 -151q-18 0 -15 21q0 7 3 13q35 77 54.5 126t23.5 72q1 8 1 13v10q0 67 -64 67q-65 0 -125 -60l-3 -3q-2 63 -63 63q-56 0 -117 -51q5 27 6 38q-73 0 -73 -15q0 -2 1 -3 q18 -28 17 -41q0 -16 -23 -51q-27 -47 -31 -57q-22 -42 -35 -74.5t-16 -55.5q0 -5 2 -13t5.5 -15t8 -12t9.5 -5l111 229q70 102 122 102q33 0 25 -43q-50 -144 -93 -243q0 -38 18 -38q14 0 42 26q6 8 15.5 32t23.5 65l20 55q9 23 15 41q8 13 18 25l19 23q52 57 89 57 q30 0 25 -43q-5 -35 -21.5 -79.5t-47.5 -97.5z" />
<glyph unicode="n" horiz-adv-x="376" d="M396 142q4 7 0 14q-7 8 -14 0q-119 -153 -159 -153q-12 0 -13 10q-4 5 -2 12q3 20 23 62q4 4 4 9q56 119 56 177q0 67 -63 67q-56 0 -116 -51q2 13 2.5 22t2.5 16q-74 0 -74 -15q0 -2 2 -3q16 -24 16 -41q-1 -15 -22 -51q-32 -52 -33 -57h1q-14 -28 -22.5 -47t-10.5 -29 q-14 -77 -12 -81q7 -18 18 -18l65 134l46 95q70 102 123 102q32 0 24 -43q-11 -86 -69 -186q-4 -11 -4 -47q0 -55 57 -55q48 0 174 157z" />
<glyph unicode="o" horiz-adv-x="286" d="M402 300l-11 10q-23 -8 -42 -12q-35 -17 -62 -28t-49 -17q-1 87 -73 87q-56 0 -117 -61q-96 -93 -96 -200q0 -90 73 -90q60 0 119 62q84 89 93 175q53 22 89.5 34.5t55.5 18.5zM177 211q-8 -24 -18 -51q-57 -144 -125 -144q-34 0 -34 50q0 90 75 192q43 57 81 57 q-7 -6 -11 -9t-6 -5l-15 -16q-10 -9 -10 -21q0 -20 20.5 -35.5t42.5 -17.5zM186 271q0 -7 -1 -15l-2 -15q-38 9 -38 33q0 5 2 6q8 6 16.5 8.5t19.5 3.5l2 -10q1 -5 1 -11z" />
<glyph unicode="p" horiz-adv-x="282" d="M273 250q0 90 -74 90q-57 0 -118 -61q-8 61 -78 63q13 -2 24 -14q20 -25 -2 -97q-71 -153 -140 -270.5t-137 -205.5q-215 -270 -444 -273q-74 -1 -121 36.5t-49 109.5q-2 70 54 114q54 42 125 43q112 3 163 -79q6 -8 8.5 -12.5t3.5 -6.5q-11 117 -175 128q-45 4 -83 -8 t-70 -38q-71 -57 -65 -143q12 -166 221 -166q372 0 676 574q16 -45 68 -45q59 0 118 62q95 97 95 199zM219 271q0 -44 -27 -111q-57 -144 -125 -144q-33 0 -33 50q0 46 19 93.5t56 98.5q45 57 81 57q29 0 29 -44z" />
<glyph unicode="q" horiz-adv-x="277" d="M261 250q0 90 -74 90q-54 0 -117 -61q-96 -95 -96 -200q0 -90 74 -90h9q5 0 10 2q-77 -82 -114 -110l-65 -48l-40 -30q-166 -130 -166 -253q0 -65 49 -102q44 -38 108 -38q59 0 125 45q156 105 156 236q0 106 -95 114q13 -8 24 -13l21 -11q23 -32 23 -72q0 -59 -45 -125 q-20 -29 -44 -52.5t-51 -43.5q-71 -48 -114 -48q-42 0 -69 29.5t-27 74.5q0 44 32 102q68 93 189 199q66 58 113.5 104t76.5 81q96 111 102 175q5 18 5 45zM208 271q0 -42 -25 -109q-26 -66 -54 -99l-17 -20q-23 -27 -55 -27q-35 0 -35 50q0 46 19 93.5t56 98.5q45 57 81 57 q30 0 30 -44z" />
<glyph unicode="r" horiz-adv-x="268" d="M-3 156l-2 -5l23 23q9 51 27 72l6 6l1 -2q8 -3 15.5 -6.5t14.5 -5.5q34 -2 63 3l-57 -76l-27 -54q-13 -26 -13 -44q0 -79 67 -79q42 0 96 60q46 51 71 99q3 3 3 4q0 9 -9 9q-5 0 -9 -4q-85 -132 -134 -147q-36 0 -36 25q0 10 5 27l18 51q31 88 142 200l-13 19l-33 -24 q-2 -1 -3 -3t-3 -4q-18 -11 -41.5 -15.5t-51.5 -4.5q12 13 18.5 23t6.5 21q0 14 -12.5 26.5t-26.5 12.5q-9 0 -19 -9q-20 -17 -31.5 -30t-15.5 -21q-6 -24 5 -41l-21 -21q-24 -21 -30 -91zM84 286q-5 5 -5 14q0 6 6 18q6 0 11 -5q2 -12 -12 -27zM201 255l6 9q0 -8 -6 -9z M126 7q-1 -1 -4 -1q1 0 2 0.5t2 0.5z" />
<glyph unicode="s" horiz-adv-x="265" d="M294 132q1 4 4 7q3 12 -15 12q-3 0 -6 -3q-59 -65 -112 -99q26 34 31 72q4 21 -3 39q-1 7 -9.5 21.5t-23.5 37.5q-25 39 -22 61q4 60 63 83q-12 9 -23 9q-29 0 -45 -20l-93 -111q-64 -76 -90 -91l11 -14q16 8 29.5 17.5t25.5 20.5q16 16 42 45t62 73q-13 -50 0 -93 q22 -76 18 -96q-3 -20 -13.5 -37t-26 -30.5t-34.5 -21t-39 -7.5q-31 0 -31 32q0 16 6 31t16.5 27t24 19t29.5 7q7 0 18 -3l27 -9q-34 25 -58 25q-42 0 -68 -22t-39 -66q-1 -2 -2 -5.5t-1 -6.5q0 -9 6 -17t15 -14t19.5 -10t19.5 -4q2 0 5.5 -1t8.5 -2h13q64 0 143 46 q67 40 117 98z" />
<glyph unicode="t" horiz-adv-x="246" d="M987 706q-9 167 -221 167q-355 0 -651 -527q-19 2 -31.5 1t-20.5 -2q-66 -9 -66 -63q0 -21 15 -33q19 55 81 55q-90 -173 -90 -241q0 -56 40 -69q7 -4 18 -5t27 -1q35 0 83 39q54 42 99 117q1 3 2 6.5t1 5.5q0 7 -9 7q-4 0 -9 -4q-20 -35 -43 -64t-49 -50 q-44 -38 -76 -38q-39 0 -39 32q0 19 2 34.5t5 29.5l61 117l44 81l23 -1q7 -2 11 -2h7q97 -5 97 60q0 21 -16 42q-12 -50 -59 -57q-11 -1 -21 -2t-19 1q88 151 184 273q93 116 195.5 175t217.5 60q73 2 119.5 -35.5t49.5 -111.5q2 -35 -12.5 -63t-42.5 -51 q-26 -19 -56.5 -29.5t-66.5 -12.5q-98 -5 -164 78q-2 4 -5 9l-8 12q14 -120 177 -129q90 -6 153 45q69 54 63 144z" />
<glyph unicode="u" horiz-adv-x="336" d="M351 153q7 7 0 15q-6 5 -12 -2q-107 -151 -150 -151q-11 0 -15 10q-2 3 -2 11q0 22 20 61q1 2 2 4.5t1 4.5q0 3 -2 5q19 29 35 66q23 46 35.5 75t13.5 42q3 7 -18 42q-10 16 -18 16l-55 -132l-39 -96l-9 -13l-12 -16q-5 -8 -12 -16q-48 -58 -86 -58q-33 0 -25 45 q4 41 55 138q53 97 56 136l-19 4q-8 1 -16 1q-7 0 -13 -1t-11 -3v-2q0 -32 -25.5 -94.5t-79.5 -157.5q-6 -90 68 -90q26 0 54 12.5t57 38.5q4 -51 60 -51q46 0 162 156zM55 341l-1 1v1l-2 -3q2 0 3 1z" />
<glyph unicode="v" horiz-adv-x="322" d="M394 295l-16 5l-15 -15q-19 -17 -50 -26q-5 -1 -19 -2.5t-38 -4.5q20 39 20 57q0 24 -27 24q-28 0 -41 -8q-15 -6 -25 -16l-17 -17q-10 -10 -11 -20.5t10 -21.5q14 -14 24 -21l13 -9q-34 -80 -105 -160q-42 -50 -79 -50q-21 0 -21 27q0 42 46 170q21 55 66 100q4 4 4.5 5 t-1.5 3l-6 -1q-6 -1 -13 -2l-13 -4q-7 -1 -8 -1q-42 -19 -63 -57q-63 -119 -63 -171q0 -87 73 -87q49 0 96 53q40 44 68 81.5t45 68.5l8 17q4 6 5 8q104 26 123 45zM216 271q0 -5 -1 -10t-2 -11q-16 4 -30 17q-5 5 -5 10q0 6 5 14q7 5 12 9l9 7l6 -13q6 -12 6 -23z" />
<glyph unicode="w" horiz-adv-x="549" d="M603 306q2 10 0 16q2 8 -11 8q-7 0 -13 -6q-35 -93 -156 -99q28 64 24 90q-3 18 -26 18q-40 0 -67 -20q-30 -23 -30 -61q0 -43 48 -56q-11 -28 -25 -56t-34 -56q-50 -75 -90 -75q-17 0 -22 15q-10 21 6 70q29 103 43 126q9 10 0 12q-12 3 -19 0q-11 2 -16.5 4t-7.5 4 q-5 0 -6 -11q-4 -10 -9 -19l-9 -20q-103 -181 -153 -181q-23 0 -23 28q0 32 9 62l41 111q22 60 64 97l5 9q-3 3 -9 3q-2 1 -7 -1l-10 -4l-10 -5q-4 -2 -6 -2q-34 -16 -66 -73q-31 -52 -45.5 -91.5t-14.5 -66.5q0 -84 70 -84q56 0 121 113q-2 -7 -2 -13v-11q0 -77 66 -89 q83 -15 195 201q83 3 121 35q20 19 38 38zM396 276q-2 -7 -3.5 -13.5t-2.5 -12.5l-8 -25q-30 6 -24 43q2 6 2 9q0 4 1 6q8 8 14.5 13.5t9.5 7.5q8 3 11 -7q2 -10 0 -21z" />
<glyph unicode="x" horiz-adv-x="387" d="M411 282q0 47 -57 49q-56 0 -117 -61l-15 -15q-8 -7 -14 -15v1q0 90 -73 90q-52 0 -92 -36q-16 -14 -13 -16v-11q0 -4 -2 -9q45 43 99 45q33 3 33 -49q0 -92 -75 -192q-42 -57 -81 -57l-6 4l-12 8l-15.5 8t-11.5 4q-19 0 -19 -20q0 -12 55 -30q70 0 147 92v-2 q0 -90 72 -90q71 -11 174 158q4 8 -1 15q-7 6 -12 -2q-93 -145 -138 -145q-9 0 -14 1q-34 0 -34 50q0 90 75 192q45 60 72 60q7 0 33 -24l24 -23q18 0 18 20z" />
<glyph unicode="y" horiz-adv-x="322" d="M342 333l-21 3q-41 -14 -77 -60q-20 -27 -34 -57l-27 -61l-27 -60q-13 -29 -32 -55q-27 -27 -57 -27q-33 0 -33 50q0 62 23 99q67 104 67 144q0 21 -13 34l-11 -7q-1 -29 -43 -89l-34 -49q-14 -19 -22 -36t-11.5 -36t-3.5 -47q0 -90 74 -90q18 0 37 8q-91 -164 -190 -288 q-187 -232 -413 -236q-73 0 -120.5 37.5t-48.5 109.5q-3 72 54 114q51 40 124 42q110 4 165 -82q2 -2 4.5 -6.5t6.5 -10.5q-12 118 -176 131q-86 6 -153 -47q-71 -57 -64 -144q10 -166 220 -166q393 0 714 646l44 106q18 43 32.5 70.5t25.5 41.5t20 18z" />
<glyph unicode="z" horiz-adv-x="294" d="M277 280q0 60 -60 60q-35 0 -66.5 -15.5t-62.5 -45.5l-31 -32q-32 -32 -32 -39t12 -7q13 0 42 27l23 21l9 9q55 57 93 57q22 0 22 -27q0 -43 -49 -128q-84 -144 -152 -144l-13 -27q37 0 78 24q42 12 66 12q27 0 27 -15q1 -27 -24 -76q-62 -114 -129 -179 q-273 -270 -495 -273q-146 -1 -146 117q0 7 1 14t2 15q9 70 75 114q60 42 132 43q113 3 150 -84q2 -2 3 -5.5t5 -9.5q11 118 -152 129q-45 4 -85.5 -8t-77.5 -38q-80 -57 -90 -143v-27q0 -139 190 -139q92 0 176 27t165 81q124 83 261 253q27 33 48.5 73.5t38.5 88.5 q5 16 7.5 28t2.5 20q0 32 -30 32q-29 0 -90 -29q131 102 152 216q2 9 3 17t1 13z" />
<glyph unicode="{" horiz-adv-x="274" d="M611 838q-6 75 -96 75q-163 0 -241 -279q-11 -36 -23 -79.5t-28 -95.5q-26 -82 -84 -132q-68 -60 -144 -57q109 -48 109 -137q0 -63 -31 -168l-54 -175q-25 -79 -5 -144q18 -54 72 -90q11 -8 24.5 -11.5t28.5 -3.5q30 0 40 19q-15 -6 -28 -6q-41 0 -69 38q-29 32 -29 76 q0 37 17 90l39 122q37 111 37 204q0 120 -64 166q96 18 139 75q60 78 128 336q58 222 183 222q56 0 79 -45z" />
<glyph unicode="|" horiz-adv-x="459" d="M472 903h-49l-285 -1248h49z" />
<glyph unicode="}" horiz-adv-x="302" d="M291 184q-108 48 -108 138q0 59 32 167l52 175q25 82 5 144q-18 54 -72 90q-11 8 -24.5 11.5t-28.5 3.5q-30 0 -40 -19q15 6 28 6q20 0 38 -10t31.5 -25.5t21 -35.5t7.5 -40q0 -22 -4.5 -44.5t-12.5 -48.5l-39 -120q-36 -111 -36 -206q0 -117 63 -166q-94 -16 -139 -75 q-31 -41 -63 -124t-65 -211q-56 -222 -183 -222q-56 0 -79 44q6 -75 96 -75q163 0 241 280l27 93q13 43 26 81q12 41 33 74.5t49 59.5q65 58 144 55z" />
<glyph unicode="~" horiz-adv-x="636" d="M454 340q0 17 -4 30q-18 -46 -68 -46q-39 0 -109 19q-72 21 -110 21q-75 0 -75 -52q0 -17 9 -35q25 45 71 45q39 0 108 -22q72 -21 109 -21q69 0 69 61z" />
<glyph unicode="&#xa2;" horiz-adv-x="252" d="M111 405q-5 -5 -5 -12v-62q-20 -5 -41.5 -19t-45.5 -38q-87 -87 -87 -181q0 -89 72 -92q-1 -10 -1 -18v-15q0 -21 4 -22l3 3q6 8 12 21l12 30q73 6 156 126q6 9 -1 18q-9 11 -17 -2q-58 -94 -126 -112l16 45l13 36l12 37q16 56 25.5 93t13.5 57l3 8h1q36 0 36 -24 q0 -28 -55 -77l3 -4q78 55 78 93q0 39 -59 42q3 14 0 34q2 5 -4 17q-12 18 -18 18zM6 27q-23 6 -23 52q0 81 69 171q28 37 51 50l-16 -75q-11 -45 -24 -80.5t-27 -63.5l-29 -51q-1 0 -1 -3z" />
<glyph unicode="&#xa3;" horiz-adv-x="964" d="M991 576q-10 166 -195 166q-140 0 -220 -46q-104 -62 -197 -255l-43 -93q-24 1 -43 4.5t-35 8.5l-50 17q-2 2 -6 0l-43 -10q-16 -3 -21 -5q-11 -7 0 -12q16 -6 53.5 -12.5t97.5 -11.5l33 -5l-30 -63q-15 -29 -30 -54q-17 2 -33.5 4.5t-30.5 7.5l-50 15q-2 3 -6 0 q-56 -9 -63 -13q-14 -8 0 -12q45 -18 152 -24l16 -2q-12 -19 -22.5 -34t-19.5 -26q-59 -70 -153 -85q-16 0 -40 12h-11q-4 -9 12 -17q88 -43 156 -61q216 -54 371 -50q35 0 68.5 4.5t66.5 15.5q96 27 96 78q0 36 -57 79q19 -26 19 -54q0 -46 -72 -73q-26 -11 -54 -16t-57 -7 q-254 -6 -474 74q88 4 176 109q8 9 16 22l17 26q14 -1 31.5 -2t37.5 -1q112 0 205 26q6 0 12 9q15 16 15 22q0 8 -6 8t-9 -2q-129 -37 -240 -37h-31l31 55l36 65q11 -2 22 -2h23q111 0 207 26q6 0 12 9q14 19 14 24q0 6 -6 6t-9 -2q-132 -37 -239 -37h-10q42 79 109 172 q134 187 290 203q164 -3 169 -146q2 -35 -12.5 -63t-42.5 -49q-26 -20 -56.5 -30.5t-65.5 -11.5q-55 -2 -95.5 19t-67.5 63q-2 2 -5.5 8t-11.5 16q16 -128 180 -141q92 -6 156 47q70 55 63 144z" />
<glyph unicode="&#xa5;" horiz-adv-x="901" d="M673 -242q0 8 -7 8q-5 0 -8 -2q-109 -28 -202 -36l42 56q22 30 42 63q45 1 86.5 7t79.5 17q6 0 12 9q14 19 14 22q0 8 -8 8q-4 0 -7 -2q-89 -24 -158 -33q29 45 57 97l57 109q11 20 21 40t23 39l43 86l21 43l206 368v16q0 14 -5 14q-6 0 -18 -14l-306 -396l-122 -155 q-46 -58 -64 -77q-87 -90 -135 -90q-32 0 -43 25q-18 39 3 122q42 171 103 232q18 20 52 62l83 108q80 107 144 157l41 -16q14 -6 18 -8q4 0 6 2q4 9 -60 37q-5 14 -17 14h-4q-3 0 -6 -2q-44 18 -81 27q-220 54 -371 51q-212 -6 -217 -177q-3 -84 58 -136q58 -50 141 -50h10 q7 0 17 2q167 18 176 148l-17 -25q-51 -85 -159 -87q-73 0 -124 36q-59 41 -59 111q0 143 164 150q218 6 438 -62q-6 -1 -8 -3q-145 -94 -262 -270q-99 -149 -123 -273q-16 -71 3 -127q22 -69 93 -69q55 0 153 93q32 32 85.5 97.5t127.5 166.5q60 82 63 87l6 -5 q-42 -62 -50 -81q-59 -125 -115.5 -230t-112.5 -191h-16q-42 0 -74.5 4t-57.5 12l-50 15q-2 4 -6 0q-56 -9 -66 -13q-9 -6 2 -12q31 -13 151 -24l36 -5q13 -1 29 -1t36 -2l-44 -61l-43 -56q-32 2 -58 6t-47 9l-50 15q-2 3 -6 0q-69 -11 -69 -19q0 -4 5 -6q19 -8 57 -13.5 t96 -10.5l36 -5h13q-208 -246 -420 -247q-73 -2 -120 36.5t-51 110.5q-1 69 56 114q26 20 57 30t67 12q110 1 165 -83q2 -2 4.5 -6.5t6.5 -9.5q-12 117 -176 129q-87 6 -153 -45q-71 -59 -64 -144q11 -167 220 -167q252 0 474 267h8q109 0 205 26q6 0 12 9q15 16 15 22z" />
<glyph unicode="&#xa9;" horiz-adv-x="598" d="M712 414q3 10 3 22q0 45 -36 93t-109 77q-33 12 -66.5 18.5t-67.5 6.5q-242 0 -382 -150q-87 -90 -87 -213q0 -108 54 -175q76 -96 201 -113q19 -2 34.5 -3t29.5 -1q101 0 213 67q215 131 215 336v17q0 9 -2 18zM661 465q13 -61 -12 -140q-5 -19 -16 -41t-26 -47 q-116 -199 -337 -240q-138 0 -212 96q-46 58 -46 126q0 103 111 226q140 157 306 161q200 6 232 -141zM558 397q54 0 48 35q-12 46 -89 43q-26 0 -48 -3t-39 -10q-98 46 -157 46q-99 -2 -122 -121q-1 -6 -2 -11t-1 -9q0 -55 66 -69q-42 -65 -42 -124q0 -51 44 -78 q25 -17 54 -17q39 2 82.5 26.5t89.5 74.5q5 5 5 7q-3 8 -6 9q-36 -29 -66 -60q-50 -42 -107 -42q-63 -2 -63 63q0 64 56 141q35 6 58 25.5t33 54.5q-19 -24 -38 -38t-37 -19q68 80 152 120q83 -44 129 -44zM348 475l60 -22q-60 -26 -105 -59t-75 -75q-53 12 -53 57 q0 22 7.5 43t20.5 36.5t31 25t40 9.5q16 0 34 -3.5t40 -11.5zM520 462q63 -5 69 -30q-5 -18 -15 -18q-58 0 -121 36q38 14 67 12z" />
<glyph unicode="&#xad;" d="M436 288q0 3 -4 3h-8q-37 -11 -74.5 -15.5t-76.5 -4.5q-88 0 -140 15l-51 17q-1 1 -3 0q-70 -12 -70 -18q0 -2 3 -3q42 -13 157 -24l36 -3q24 -2 58.5 -3.5t81.5 -1.5h27q12 0 39 9q4 0 12 8q13 14 13 21z" />
<glyph unicode="&#xae;" horiz-adv-x="729" d="M712 414q5 21 -4 54q-26 92 -129 135q-74 28 -143 28q-242 0 -382 -150q-87 -90 -87 -213q0 -108 54 -175q76 -96 201 -113q19 -2 34.5 -3t29.5 -1q101 0 213 67q215 131 215 336v17q0 9 -2 18zM661 465q13 -61 -12 -140q-5 -19 -16 -41t-26 -47q-116 -199 -337 -240 q-138 0 -212 96q-46 58 -46 126q0 103 111 226q140 157 306 161q200 6 232 -141zM499 480l12 -5q3 -1 8 2q1 1 1 2t2 2q-3 14 -42 14h-3q-22 11 -46.5 17.5t-52.5 7.5q-83 3 -141 -28q-84 -44 -84 -141q0 -23 12 -44q-11 2 -18.5 2.5t-14.5 2.5q-48 4 -80 -23 q-34 -27 -33 -75q7 -87 101 -87q120 0 186 108q5 11 18.5 35.5t33.5 66.5l28 55q11 22 19 32q32 44 76 54q54 -38 54 -82q0 -89 -76 -83q-43 16 -59 41q0 -28 27 -41q4 -180 75 -180q23 0 35 26q1 6 0 7q-2 2 -5 2q-1 0 -4 -3q-8 -12 -15 -12q-41 0 -62 150q12 -3 20 -3 q37 0 64 21t27 58q0 51 -63 101zM382 507q37 -3 75 -17q-53 -15 -108 -112l-33 -63q-38 -30 -66 -30q-78 0 -78 70q0 22 11 41q58 117 199 111zM241 267q29 0 54 15q-82 -129 -166 -138q-80 1 -83 70q-2 34 27 54q24 19 59 21q52 3 78 -39q1 -2 5 -8l11 -14q-5 28 -12 42 q13 -3 27 -3z" />
<glyph unicode="&#xb4;" horiz-adv-x="1048" d="M748 926q-13 30 -36 33q-4 0 -7 -3q-40 -53 -38 -69q-81 -84 -180 -135l-27 -15q-5 -8 -0.5 -9t12 1.5t14 5t4.5 0.5l38 18q41 20 65.5 34.5t33.5 22.5q18 15 48 44z" />
<glyph unicode="&#x2000;" horiz-adv-x="479" />
<glyph unicode="&#x2001;" horiz-adv-x="959" />
<glyph unicode="&#x2002;" horiz-adv-x="479" />
<glyph unicode="&#x2003;" horiz-adv-x="959" />
<glyph unicode="&#x2004;" horiz-adv-x="319" />
<glyph unicode="&#x2005;" horiz-adv-x="239" />
<glyph unicode="&#x2006;" horiz-adv-x="159" />
<glyph unicode="&#x2007;" horiz-adv-x="159" />
<glyph unicode="&#x2008;" horiz-adv-x="119" />
<glyph unicode="&#x2009;" horiz-adv-x="191" />
<glyph unicode="&#x200a;" horiz-adv-x="53" />
<glyph unicode="&#x2010;" d="M436 288q0 3 -4 3h-8q-37 -11 -74.5 -15.5t-76.5 -4.5q-88 0 -140 15l-51 17q-1 1 -3 0q-70 -12 -70 -18q0 -2 3 -3q42 -13 157 -24l36 -3q24 -2 58.5 -3.5t81.5 -1.5h27q12 0 39 9q4 0 12 8q13 14 13 21z" />
<glyph unicode="&#x2011;" d="M436 288q0 3 -4 3h-8q-37 -11 -74.5 -15.5t-76.5 -4.5q-88 0 -140 15l-51 17q-1 1 -3 0q-70 -12 -70 -18q0 -2 3 -3q42 -13 157 -24l36 -3q24 -2 58.5 -3.5t81.5 -1.5h27q12 0 39 9q4 0 12 8q13 14 13 21z" />
<glyph unicode="&#x2013;" horiz-adv-x="500" d="M9 250v54h440v-54h-440z" />
<glyph unicode="&#x2014;" horiz-adv-x="1000" d="M9 250v54h940v-54h-940z" />
<glyph unicode="&#x2018;" horiz-adv-x="199" d="M174 808q-5 3 -11 3l-14 -9q-6 -4 -10 -6l-24 -21q-39 -32 -64 -88q-8 -16 -16 -45l-19 -72q9 -8 17 -13.5t15 -9.5q6 -10 22 -10q37 0 50 46q4 11 4 20q0 22 -27 22q-18 0 -28 -7q28 113 85 162l15 15q7 8 5 13z" />
<glyph unicode="&#x2019;" horiz-adv-x="199" d="M174 778q-16 15 -32 23q-4 10 -21 10q-35 0 -51 -46q-1 -6 -2 -11t-1 -9q0 -24 27 -24q21 0 29 8q-30 -117 -86 -161l-16 -15q-5 -10 -3 -13q2 -7 10 -3q8 5 13.5 9t10.5 6l23 19q44 38 66 90q15 34 33 117z" />
<glyph unicode="&#x201c;" horiz-adv-x="376" d="M174 808q-5 3 -11 3l-14 -9q-6 -4 -10 -6l-24 -21q-39 -32 -64 -88q-8 -16 -16 -45l-19 -72q9 -8 17 -13.5t15 -9.5q6 -10 22 -10q37 0 50 46q4 11 4 20q0 22 -27 22q-18 0 -28 -7q28 113 85 162l15 15q7 8 5 13zM342 808q-3 3 -11 3q-8 -5 -13.5 -9t-8.5 -6l-24 -21 q-42 -34 -66 -88q-14 -32 -33 -117q16 -15 31 -23q7 -10 21 -10q38 0 51 46q3 12 3 20q0 22 -27 22q-18 0 -28 -7q32 115 85 162l17 15q5 7 3 13z" />
<glyph unicode="&#x201d;" horiz-adv-x="385" d="M354 778q-16 15 -32 23q-4 10 -21 10q-35 0 -51 -46q-1 -6 -2 -11t-1 -9q0 -24 27 -24q21 0 29 8q-30 -117 -86 -161l-16 -15q-5 -10 -3 -13q2 -7 10 -3q8 5 13.5 9t10.5 6l23 19q44 38 66 90q15 34 33 117zM174 778q-16 15 -32 23q-4 10 -21 10q-35 0 -51 -46 q-1 -6 -2 -11t-1 -9q0 -24 27 -24q21 0 29 8q-30 -117 -86 -161l-16 -15q-5 -10 -3 -13q2 -7 10 -3q8 5 13.5 9t10.5 6l23 19q44 38 66 90q15 34 33 117z" />
<glyph unicode="&#x2022;" horiz-adv-x="217" d="M-38 219q0 -35 39 -35q19 0 36 7t30.5 18.5t21.5 27.5t8 34q0 35 -39 35q-24 0 -51 -18q-45 -30 -45 -69z" />
<glyph unicode="&#x2026;" horiz-adv-x="579" d="M105 54q0 25 -26 25q-36 0 -49 -46q-5 -13 -5 -20q0 -24 27 -24q53 0 53 65zM544 54q0 25 -25 25q-36 0 -51 -46q-3 -12 -3 -20q0 -24 27 -24q52 0 52 65zM318 54q0 25 -24 25q-36 0 -51 -46q-3 -12 -3 -20q0 -24 27 -24q51 0 51 65z" />
<glyph unicode="&#x202f;" horiz-adv-x="191" />
<glyph unicode="&#x205f;" horiz-adv-x="239" />
<glyph unicode="&#x2122;" horiz-adv-x="865" d="M372 688q-106 26 -176 26q-96 0 -147 -57q-18 -21 -18 -56q0 -84 74 -84q23 0 43.5 14t20.5 37q0 16 -9 27l-4 -1q4 -8 4 -18q0 -18 -17.5 -30t-39.5 -12q-52 0 -52 66q0 29 12 43q37 45 138 45q68 0 169 -18q-1 -4 -1 -9q-29 -75 -53.5 -130.5t-47.5 -91.5 q-74 -126 -157 -126q-54 0 -54 69q0 68 64 68q34 0 63 -59q-6 80 -73 80q-32 0 -53 -26t-21 -61q0 -86 81 -86q141 0 258 303q8 20 11.5 35.5t5.5 29.5q14 -5 27.5 -8.5t26.5 -5.5q-2 -20 2.5 -37.5t14.5 -30.5t24.5 -21t33.5 -8q6 0 9 1q62 9 66 87l-13 -28q-6 -11 -11 -17 q-16 -19 -42 -19q-63 0 -63 64v5q9 -2 17 -2.5t16 -2.5q29 -5 34 24q-2 4 -4 6q-6 -5 -9 -9.5t-5 -6.5q-11 -3 -48 7q7 44 54 47q45 1 85.5 -6t75.5 -24q-32 -8 -57 -51q-6 -8 -16 -32l-26 -61l-21 -42l-30 -59q-47 -86 -101 -93q-54 3 -57 65q-1 64 60 69q36 1 54 -36 l14 -26q-8 78 -68 84q-20 2 -35.5 -5t-26 -20t-16 -30.5t-4.5 -37.5q5 -79 73 -79q66 0 99 40q23 27 53 102l27 68q14 38 25 61.5t17 32.5q20 30 49 38q-47 -39 -63 -138l-18 -103q-9 -49 -19 -95l61 113l44 76q69 113 129 151q-46 -43 -86 -135q-45 -101 -45 -157 q-1 -11 -2 -17.5t-1 -8.5q0 -25 17 -48q10 -12 13 -10q8 2 8 9q0 8 -4.5 22.5t-4.5 22.5q0 50 40 157q72 194 131 185q16 0 16 -15q0 -10 -9 -23l5 -3q15 16 15 30q0 20 -32 23q-43 5 -82 -30q-33 -27 -61.5 -60.5t-54.5 -73.5q-8 -11 -20 -33l-29 -54l16 62q9 32 13.5 52.5 t6.5 28.5q15 66 34 67l2 2q0 1 1 3q2 3 1 5l-2 4q-31 19 -56 28q-74 25 -135 23q-66 -3 -76 -60q-22 5 -36 9l-20 6q-1 31 -31 31v-6q9 0 9 -21z" />
</font>
</defs>
</svg>
