<?xml version="1.0" encoding="utf-8"?>
<!-- Generator: Adobe Illustrator 17.0.0, SVG Export Plug-In . SVG Version: 6.00 Build 0)  -->
<!DOCTYPE svg PUBLIC "-//W3C//DTD SVG 1.1//EN" "http://www.w3.org/Graphics/SVG/1.1/DTD/svg11.dtd">
<svg version="1.1" xmlns="http://www.w3.org/2000/svg" xmlns:xlink="http://www.w3.org/1999/xlink" x="0px" y="0px"
	 width="592.135px" height="592.135px" viewBox="0 0 592.135 592.135" enable-background="new 0 0 592.135 592.135"
	 xml:space="preserve">
<g id="Layer_2" display="none">
	
		<image display="inline" overflow="visible" width="200" height="200" xlink:href="../Downloads/DLSU-Manila_Seal.png"  transform="matrix(2.9607 0 0 2.9607 0 0)">
	</image>
</g>
<g id="Layer_1">
	<g display="none" opacity="0.5">
		<polygon display="inline" fill="#FFFFFF" points="261.93,302.065 203.338,379.073 225.718,310.195 		"/>
		<polygon display="inline" fill="#FFFFFF" points="261.93,302.065 261.93,336.504 320.521,379.073 		"/>
		<polygon display="inline" fill="#FFFFFF" points="261.93,302.065 298.141,310.195 356.733,267.626 		"/>
		<polygon display="inline" fill="#FFFFFF" points="261.93,302.065 261.93,198.747 284.31,267.626 		"/>
		<polygon display="inline" fill="#FFFFFF" points="261.93,302.065 167.127,267.626 239.55,267.626 		"/>
	</g>
	<path fill="none" stroke="#FFFFFF" stroke-miterlimit="10" d="M345.68,221.91"/>
	<path fill="#356A34" d="M416.062,256.951h-91.667l-28.327-87.181l-28.327,87.181h-91.667l74.16,53.88l-28.327,87.181l74.16-53.88
		l74.16,53.88l-28.326-87.181L416.062,256.951z M361.185,385.564L361.185,385.564l-65.117-89.629v42.32l-65.116,47.309
		l65.116-89.629l-40.245,13.08l0,0l-65.117-47.31h0.001l105.361,34.23l-24.872-34.23l24.872-76.549v110.78l24.872-34.23h80.488
		l-105.361,34.23l40.245,13.08L361.185,385.564z"/>
	<g>
		<path fill="#356A34" d="M139.686,273.891l2.453-10.458c0.566-2.412,1.512-4.099,2.837-5.062c1.326-0.961,2.919-1.224,4.779-0.788
			c1.042,0.245,1.871,0.601,2.483,1.068c0.613,0.467,1.082,0.955,1.404,1.461c0.323,0.508,0.53,0.982,0.621,1.424
			s0.145,0.762,0.163,0.96l0.061,0.014c0.118-0.317,0.303-0.646,0.555-0.986s0.596-0.631,1.03-0.875
			c0.435-0.243,0.963-0.405,1.586-0.485c0.623-0.08,1.363-0.02,2.222,0.182c1.288,0.302,2.481,0.48,3.58,0.532
			c1.099,0.053,1.921-0.072,2.466-0.376l-0.964,4.109c-0.537,0.176-1.098,0.223-1.683,0.139c-0.584-0.083-1.142-0.187-1.674-0.312
			c-1.001-0.235-1.88-0.376-2.635-0.424c-0.754-0.048-1.41,0.036-1.968,0.25c-0.557,0.215-1.014,0.577-1.371,1.086
			c-0.357,0.51-0.639,1.204-0.845,2.083l-1.323,5.643l9.016,2.115l-0.899,3.833L139.686,273.891z M150.552,272.395l1.475-6.287
			c0.288-1.227,0.214-2.225-0.22-2.996c-0.434-0.77-1.233-1.292-2.399-1.565c-0.695-0.163-1.286-0.193-1.774-0.093
			c-0.487,0.102-0.896,0.303-1.225,0.603c-0.33,0.3-0.589,0.671-0.779,1.112c-0.189,0.441-0.342,0.906-0.457,1.397l-1.46,6.226
			L150.552,272.395z"/>
		<path fill="#356A34" d="M145.947,249.98l6.003-15.037l3.16,1.261l-4.543,11.38l5.471,2.184l4.204-10.532l2.984,1.191
			l-4.204,10.532l6.114,2.441l4.625-11.585l3.159,1.261l-6.084,15.242L145.947,249.98z"/>
		<path fill="#356A34" d="M154.66,229.607l1.938-3.428l16.618,9.393l5.627-9.954l2.961,1.674l-7.564,13.382L154.66,229.607z"/>
		<path fill="#356A34" d="M164.796,212.739l2.253-3.229l18.445,12.869l-2.253,3.229L164.796,212.739z"/>
		<path fill="#356A34" d="M200.772,204.084l-1.669,1.887l-2.378-1.305c0.201,1.58,0.126,2.916-0.224,4.008
			c-0.35,1.093-0.977,2.15-1.881,3.172c-1.113,1.259-2.344,2.182-3.691,2.77c-1.348,0.589-2.729,0.874-4.143,0.856
			c-1.415-0.017-2.82-0.314-4.216-0.891c-1.396-0.577-2.7-1.4-3.911-2.472c-1.195-1.057-2.165-2.244-2.907-3.56
			c-0.743-1.315-1.209-2.674-1.398-4.076c-0.19-1.401-0.079-2.811,0.333-4.227c0.412-1.417,1.174-2.753,2.288-4.012
			c0.807-0.912,1.698-1.673,2.672-2.284c0.975-0.61,1.986-1.025,3.037-1.246c1.05-0.22,2.125-0.223,3.224-0.008
			s2.169,0.686,3.21,1.41l-2.546,2.878c-0.621-0.408-1.253-0.667-1.9-0.776c-0.646-0.109-1.285-0.092-1.916,0.05
			c-0.631,0.143-1.233,0.396-1.806,0.758c-0.573,0.362-1.096,0.811-1.569,1.346c-0.793,0.896-1.297,1.832-1.513,2.804
			c-0.215,0.973-0.202,1.932,0.042,2.876c0.244,0.945,0.665,1.857,1.261,2.735c0.597,0.879,1.296,1.672,2.099,2.382
			c0.802,0.71,1.675,1.308,2.62,1.792c0.945,0.485,1.9,0.792,2.868,0.918c0.968,0.127,1.921,0.024,2.86-0.309
			c0.939-0.332,1.806-0.947,2.599-1.844c0.684-0.741,1.177-1.496,1.479-2.266c0.302-0.77,0.43-1.533,0.384-2.289
			c-0.046-0.756-0.27-1.493-0.671-2.213c-0.401-0.719-0.949-1.4-1.643-2.042l-3.966,4.482l-2.241-1.983l6.345-7.172L200.772,204.084
			z"/>
		<path fill="#356A34" d="M188.664,185.067l2.93-2.631l15.028,16.734l-2.93,2.631L188.664,185.067z"/>
		<path fill="#356A34" d="M204.111,171.889c1.371-0.972,2.782-1.586,4.234-1.844c1.452-0.257,2.865-0.216,4.238,0.123
			c1.373,0.339,2.674,0.949,3.903,1.828c1.229,0.88,2.305,1.97,3.228,3.272c0.936,1.319,1.615,2.704,2.039,4.154
			c0.423,1.451,0.568,2.88,0.434,4.288c-0.135,1.409-0.566,2.751-1.295,4.027c-0.73,1.277-1.78,2.401-3.15,3.373
			c-1.371,0.972-2.779,1.59-4.225,1.857c-1.446,0.266-2.856,0.229-4.229-0.11c-1.374-0.339-2.674-0.948-3.903-1.828
			c-1.229-0.879-2.311-1.979-3.246-3.297c-0.923-1.302-1.597-2.678-2.02-4.128c-0.424-1.45-0.568-2.879-0.434-4.288
			s0.563-2.755,1.287-4.04C201.694,173.99,202.741,172.861,204.111,171.889z M205.97,174.51c-0.977,0.692-1.681,1.488-2.112,2.386
			c-0.432,0.898-0.636,1.835-0.614,2.81c0.022,0.976,0.224,1.959,0.605,2.95c0.381,0.992,0.881,1.924,1.501,2.797
			s1.334,1.655,2.144,2.342c0.809,0.688,1.67,1.204,2.583,1.546c0.913,0.344,1.865,0.461,2.855,0.351
			c0.99-0.11,1.974-0.512,2.95-1.204c0.976-0.692,1.68-1.487,2.112-2.386c0.431-0.898,0.636-1.834,0.614-2.81
			c-0.022-0.975-0.224-1.958-0.605-2.95c-0.381-0.991-0.881-1.924-1.501-2.797c-0.619-0.874-1.334-1.654-2.143-2.342
			c-0.81-0.687-1.671-1.203-2.583-1.547c-0.914-0.343-1.865-0.46-2.855-0.35C207.93,173.416,206.946,173.817,205.97,174.51z"/>
		<path fill="#356A34" d="M227.742,158.137l5.167-2.009l12.165,14.163l0.059-0.023l-0.744-18.604l5.108-1.986l8.15,20.962
			L254.154,172l-6.29-16.177l-0.059,0.023l0.476,18.437l-3.024,1.176l-12.103-13.917l-0.059,0.023l6.29,16.177l-3.494,1.358
			L227.742,158.137z"/>
		<path fill="#356A34" d="M266.491,145.389c1.651-0.311,3.19-0.28,4.617,0.093c1.427,0.373,2.693,1,3.799,1.881
			c1.106,0.882,2.034,1.979,2.783,3.291c0.749,1.312,1.271,2.752,1.566,4.321c0.299,1.589,0.338,3.131,0.117,4.625
			c-0.221,1.495-0.687,2.854-1.396,4.077c-0.71,1.224-1.663,2.263-2.859,3.118c-1.197,0.855-2.62,1.438-4.271,1.749
			c-1.651,0.311-3.189,0.285-4.614-0.078c-1.425-0.362-2.691-0.984-3.797-1.866c-1.106-0.882-2.034-1.978-2.783-3.291
			c-0.749-1.312-1.273-2.763-1.572-4.352c-0.295-1.568-0.333-3.1-0.111-4.595c0.221-1.494,0.686-2.854,1.396-4.077
			c0.71-1.223,1.662-2.268,2.856-3.133C263.418,146.288,264.84,145.699,266.491,145.389z M267.086,148.546
			c-1.176,0.221-2.148,0.65-2.916,1.286c-0.767,0.636-1.344,1.402-1.731,2.297c-0.387,0.896-0.614,1.874-0.682,2.933
			c-0.068,1.06-0.002,2.116,0.196,3.168c0.198,1.053,0.521,2.061,0.969,3.023c0.448,0.963,1.015,1.791,1.702,2.484
			c0.686,0.694,1.501,1.197,2.448,1.511c0.945,0.314,2.007,0.359,3.183,0.138s2.148-0.649,2.915-1.286
			c0.767-0.636,1.344-1.401,1.731-2.297s0.614-1.873,0.682-2.933c0.068-1.06,0.003-2.116-0.195-3.168s-0.521-2.06-0.969-3.023
			c-0.449-0.962-1.016-1.791-1.702-2.484c-0.687-0.693-1.502-1.197-2.448-1.511C269.323,148.371,268.262,148.325,267.086,148.546z"
			/>
		<path fill="#356A34" d="M283.548,143.428l10.739-0.255c2.477-0.059,4.348,0.432,5.611,1.474c1.264,1.041,1.92,2.518,1.965,4.428
			c0.025,1.07-0.111,1.961-0.41,2.672c-0.297,0.711-0.652,1.287-1.061,1.727c-0.41,0.44-0.818,0.76-1.223,0.958
			c-0.404,0.198-0.701,0.332-0.889,0.399l0.002,0.063c0.336,0.034,0.701,0.131,1.094,0.289c0.393,0.159,0.762,0.418,1.105,0.777
			c0.344,0.359,0.635,0.831,0.869,1.413s0.361,1.315,0.383,2.196c0.031,1.323,0.158,2.522,0.385,3.599
			c0.225,1.077,0.553,1.841,0.984,2.292l-4.221,0.101c-0.305-0.476-0.492-1.007-0.557-1.594c-0.068-0.586-0.107-1.152-0.119-1.699
			c-0.025-1.028-0.109-1.914-0.252-2.657c-0.145-0.742-0.391-1.356-0.738-1.841c-0.348-0.485-0.812-0.836-1.395-1.054
			c-0.584-0.217-1.326-0.315-2.229-0.294l-5.794,0.138l0.22,9.258l-3.936,0.094L283.548,143.428z M287.728,153.569l6.456-0.153
			c1.26-0.03,2.207-0.352,2.844-0.965s0.941-1.519,0.912-2.716c-0.016-0.713-0.135-1.293-0.355-1.74
			c-0.221-0.446-0.518-0.792-0.891-1.035c-0.375-0.243-0.799-0.401-1.271-0.474c-0.475-0.073-0.965-0.104-1.468-0.091l-6.393,0.152
			L287.728,153.569z"/>
		<path fill="#356A34" d="M308.238,143.459l16.068,1.988l-0.418,3.376l-12.161-1.504l-0.723,5.846l11.254,1.392l-0.395,3.189
			l-11.254-1.393l-0.809,6.534l12.38,1.532l-0.418,3.376l-16.287-2.015L308.238,143.459z"/>
		<path fill="#356A34" d="M328.859,161.835c-0.226,0.831-0.277,1.579-0.153,2.244c0.123,0.665,0.387,1.253,0.791,1.767
			c0.404,0.513,0.912,0.945,1.524,1.296c0.611,0.352,1.302,0.632,2.072,0.842c0.83,0.227,1.565,0.324,2.206,0.291
			c0.64-0.032,1.184-0.151,1.631-0.355c0.448-0.205,0.807-0.482,1.076-0.833c0.27-0.351,0.46-0.729,0.57-1.134
			c0.227-0.831,0.206-1.495-0.062-1.992c-0.267-0.498-0.602-0.888-1.003-1.171c-0.692-0.493-1.517-1.006-2.47-1.538
			c-0.955-0.532-2.126-1.205-3.515-2.019c-0.866-0.497-1.554-1.027-2.064-1.591s-0.882-1.138-1.113-1.724
			c-0.232-0.586-0.35-1.173-0.353-1.761s0.072-1.167,0.228-1.734c0.298-1.094,0.783-1.979,1.458-2.655
			c0.674-0.676,1.457-1.175,2.351-1.498c0.893-0.323,1.85-0.48,2.872-0.475c1.021,0.006,2.018,0.142,2.99,0.407
			c1.135,0.309,2.163,0.748,3.086,1.314c0.923,0.567,1.685,1.248,2.284,2.042c0.6,0.795,1.005,1.684,1.216,2.666
			s0.162,2.041-0.146,3.176l-3.799-1.035c0.279-1.426,0.072-2.543-0.621-3.353c-0.693-0.81-1.699-1.394-3.017-1.752
			c-0.445-0.122-0.914-0.2-1.404-0.236c-0.491-0.036-0.958,0-1.4,0.108c-0.443,0.108-0.841,0.31-1.193,0.605
			c-0.354,0.295-0.604,0.717-0.753,1.264c-0.21,0.77-0.137,1.438,0.222,2.003c0.356,0.565,0.89,1.064,1.6,1.497
			c0.075,0.042,0.371,0.215,0.887,0.519s1.094,0.641,1.732,1.011c0.64,0.37,1.265,0.731,1.876,1.083
			c0.611,0.352,1.048,0.607,1.311,0.765c0.647,0.417,1.183,0.889,1.605,1.417c0.421,0.529,0.742,1.089,0.961,1.682
			c0.22,0.593,0.338,1.197,0.355,1.811c0.018,0.614-0.051,1.205-0.205,1.772c-0.331,1.215-0.862,2.187-1.594,2.912
			c-0.731,0.726-1.576,1.252-2.535,1.578c-0.96,0.326-1.991,0.475-3.093,0.447c-1.103-0.028-2.191-0.189-3.265-0.481
			c-1.236-0.337-2.359-0.806-3.371-1.408c-1.011-0.602-1.837-1.328-2.476-2.176c-0.64-0.849-1.068-1.831-1.287-2.946
			c-0.218-1.115-0.155-2.344,0.188-3.687L328.859,161.835z"/>
		<path fill="#356A34" d="M371.636,170.357c0.152-0.655,0.226-1.292,0.218-1.912s-0.124-1.214-0.348-1.782
			c-0.226-0.567-0.561-1.093-1.008-1.575c-0.446-0.482-1.033-0.913-1.759-1.292c-1.061-0.555-2.09-0.82-3.085-0.795
			c-0.997,0.024-1.924,0.268-2.782,0.731c-0.858,0.464-1.643,1.091-2.352,1.881c-0.71,0.791-1.312,1.66-1.809,2.609
			c-0.496,0.949-0.866,1.94-1.11,2.974c-0.244,1.034-0.312,2.035-0.202,3.005c0.109,0.969,0.438,1.87,0.987,2.702
			c0.548,0.832,1.353,1.525,2.414,2.08c0.781,0.409,1.54,0.634,2.277,0.675c0.736,0.042,1.442-0.063,2.119-0.314
			c0.676-0.251,1.3-0.629,1.873-1.136c0.572-0.506,1.086-1.103,1.54-1.79l3.405,1.781c-0.697,1.152-1.522,2.107-2.475,2.865
			c-0.953,0.758-1.989,1.3-3.108,1.627c-1.119,0.328-2.283,0.424-3.492,0.289c-1.209-0.134-2.419-0.518-3.629-1.15
			c-1.488-0.778-2.681-1.751-3.575-2.917c-0.895-1.167-1.503-2.439-1.826-3.816c-0.322-1.377-0.372-2.813-0.147-4.307
			s0.711-2.958,1.46-4.391c0.739-1.414,1.658-2.64,2.758-3.677c1.099-1.037,2.306-1.816,3.621-2.336
			c1.314-0.521,2.709-0.752,4.183-0.692c1.474,0.059,2.955,0.478,4.443,1.256c1.117,0.584,2.088,1.287,2.914,2.11
			s1.462,1.724,1.909,2.705c0.447,0.98,0.685,2.011,0.713,3.091c0.026,1.081-0.186,2.19-0.638,3.328L371.636,170.357z"/>
		<path fill="#356A34" d="M383.622,169.199l3.152,2.359l-7.852,10.491c-0.453,0.605-0.884,1.241-1.29,1.907
			c-0.407,0.666-0.657,1.351-0.751,2.055s0.021,1.426,0.346,2.167c0.324,0.741,0.999,1.496,2.024,2.263
			c1.025,0.767,1.939,1.202,2.742,1.304c0.802,0.103,1.527,0.009,2.177-0.279c0.648-0.288,1.234-0.722,1.759-1.299
			c0.524-0.578,1.014-1.17,1.467-1.775l7.852-10.491l3.152,2.359l-8.626,11.525c-0.868,1.16-1.8,2.037-2.794,2.63
			c-0.995,0.593-2.033,0.938-3.115,1.033c-1.081,0.096-2.183-0.053-3.305-0.447c-1.121-0.394-2.237-1.005-3.347-1.836
			s-2.012-1.729-2.705-2.694c-0.694-0.965-1.148-1.98-1.361-3.044c-0.213-1.065-0.175-2.158,0.113-3.279
			c0.289-1.122,0.867-2.263,1.735-3.423L383.622,169.199z"/>
		<path fill="#356A34" d="M403.568,184.985l2.782,2.786l-13.505,13.49l8.08,8.09l-2.406,2.404l-10.864-10.875L403.568,184.985z"/>
		<path fill="#356A34" d="M414.131,195.495l11.395,14.201l-2.654,2.129l-4.475-5.577l-14.889,11.946l-2.465-3.071l14.89-11.946
			l-4.455-5.553L414.131,195.495z"/>
		<path fill="#356A34" d="M428.314,213.731l1.99,3.397l-11.306,6.625c-0.652,0.382-1.296,0.801-1.929,1.257
			c-0.634,0.456-1.13,0.991-1.489,1.603c-0.359,0.612-0.533,1.322-0.521,2.131c0.011,0.809,0.341,1.766,0.988,2.871
			c0.647,1.105,1.321,1.861,2.021,2.266c0.699,0.405,1.404,0.601,2.114,0.586c0.709-0.014,1.418-0.186,2.126-0.515
			c0.707-0.329,1.387-0.685,2.039-1.067l11.307-6.624l1.99,3.397l-12.42,7.277c-1.251,0.732-2.449,1.179-3.597,1.34
			c-1.146,0.161-2.237,0.075-3.271-0.256c-1.034-0.332-1.992-0.896-2.873-1.694c-0.881-0.798-1.672-1.795-2.373-2.991
			c-0.7-1.196-1.184-2.374-1.448-3.532c-0.266-1.159-0.29-2.271-0.073-3.334c0.216-1.064,0.675-2.057,1.376-2.979
			s1.677-1.749,2.927-2.481L428.314,213.731z"/>
		<path fill="#356A34" d="M440.78,236.237l3.891,10.013c0.897,2.309,1.071,4.235,0.521,5.779c-0.55,1.542-1.715,2.66-3.496,3.352
			c-0.998,0.388-1.883,0.562-2.652,0.524c-0.77-0.039-1.432-0.176-1.984-0.412c-0.554-0.236-0.992-0.51-1.317-0.823
			c-0.324-0.313-0.55-0.547-0.677-0.7l-0.059,0.023c0.082,0.328,0.115,0.704,0.1,1.127c-0.017,0.423-0.135,0.858-0.355,1.304
			c-0.221,0.446-0.565,0.878-1.033,1.297c-0.469,0.418-1.113,0.788-1.936,1.107c-1.233,0.479-2.318,1.007-3.254,1.585
			c-0.936,0.578-1.543,1.146-1.821,1.705l-1.528-3.935c0.343-0.449,0.779-0.805,1.309-1.066s1.048-0.491,1.558-0.689
			c0.958-0.373,1.763-0.752,2.412-1.14c0.649-0.387,1.143-0.827,1.481-1.319c0.338-0.492,0.51-1.049,0.517-1.671
			c0.006-0.622-0.154-1.354-0.481-2.195l-2.099-5.403l-8.633,3.354l-1.426-3.67L440.78,236.237z M432.664,243.615l2.339,6.019
			c0.456,1.174,1.081,1.957,1.875,2.347c0.793,0.39,1.748,0.368,2.864-0.065c0.665-0.258,1.17-0.567,1.515-0.927
			s0.568-0.756,0.67-1.189c0.103-0.434,0.106-0.886,0.014-1.357s-0.23-0.941-0.413-1.411l-2.315-5.96L432.664,243.615z"/>
		<path fill="#356A34" d="M450.483,265.453l0.901,4.091l-20.1,13.3l-0.908-4.122l5.359-3.342l-1.932-8.767l-6.269-0.78l-0.875-3.968
			L450.483,265.453z M436.957,267.015l1.478,6.706l8.719-5.373l-0.021-0.092L436.957,267.015z"/>
	</g>
	<g>
		<path fill="#356A34" d="M106.831,319.226c-1.509-2.135-3.506-3.697-5.988-4.685c-2.481-0.987-5.497-1.457-9.047-1.409
			c-3.549,0.049-7.656,0.491-12.319,1.329c-3.918,0.703-7.425,1.564-10.52,2.58c-3.093,1.017-5.656,2.36-7.686,4.03
			c-2.03,1.67-3.447,3.757-4.253,6.256c-0.805,2.5-0.875,5.61-0.206,9.329l3.153,17.561l53.126-9.54l-3.033-16.89
			C109.416,324.215,108.341,321.362,106.831,319.226z M65.927,342.086l-0.814-4.538c-0.366-2.034-0.272-3.727,0.277-5.081
			c0.552-1.353,1.527-2.476,2.928-3.368c1.402-0.892,3.227-1.641,5.472-2.25c2.247-0.607,4.883-1.184,7.909-1.727
			c3.622-0.65,6.667-1.083,9.137-1.295c2.471-0.214,4.511-0.118,6.119,0.283c1.608,0.402,2.838,1.116,3.687,2.142
			c0.85,1.025,1.444,2.479,1.782,4.365l0.855,4.761L65.927,342.086z"/>
		<polygon fill="#356A34" points="107.344,273.896 98.425,273.738 98.07,293.769 83.558,293.511 83.879,275.372 74.961,275.214 
			74.639,293.354 61.941,293.129 62.282,273.855 53.362,273.696 52.829,303.855 106.797,304.811 		"/>
		<polygon fill="#356A34" points="105.24,240.986 61.999,228.327 58.94,238.774 110.742,253.94 119.217,224.993 110.656,222.486 		
			"/>
		<path fill="#356A34" d="M78.519,185.331l40.845,38.069l5.352-9.997l-8.887-7.587l6.778-12.664l11.242,3.188l5.351-9.997
			l-54.33-12.876L78.519,185.331z M89.995,183.756l23.856,6.854l-4.994,9.331L89.923,183.89L89.995,183.756z"/>
		<path fill="#356A34" d="M158.769,135.293c-1.184-0.734-2.456-1.218-3.812-1.453c-1.357-0.233-2.845-0.225-4.463,0.024
			c-1.619,0.252-3.475,0.798-5.567,1.643l-8.46,3.465c-2.305,0.989-4.11,1.34-5.414,1.05c-1.305-0.287-2.551-1.012-3.741-2.175
			c-0.576-0.563-1.074-1.171-1.491-1.827c-0.417-0.654-0.667-1.355-0.746-2.103c-0.08-0.747,0.036-1.532,0.347-2.356
			c0.312-0.823,0.89-1.668,1.735-2.532c1.479-1.514,3.032-2.112,4.657-1.792c1.626,0.321,3.357,1.378,5.195,3.174l7.292-7.461
			l-1.081-1.057c-1.838-1.797-3.706-3.039-5.603-3.731c-1.897-0.691-3.789-0.917-5.675-0.683c-1.886,0.236-3.732,0.898-5.537,1.988
			c-1.805,1.089-3.553,2.499-5.244,4.23c-3.628,3.712-5.543,7.549-5.747,11.506c-0.204,3.959,1.605,7.805,5.425,11.538
			c1.586,1.55,3.176,2.717,4.771,3.5c1.596,0.784,3.266,1.201,5.013,1.251c1.747,0.052,3.579-0.218,5.497-0.812
			c1.918-0.592,4.011-1.471,6.278-2.638c1.7-0.875,3.189-1.55,4.466-2.029c1.278-0.479,2.433-0.742,3.466-0.789
			c1.033-0.047,1.979,0.121,2.839,0.502c0.859,0.383,1.722,0.995,2.587,1.841c1.622,1.585,2.354,3.235,2.195,4.946
			c-0.158,1.714-0.819,3.163-1.981,4.353c-0.987,1.01-1.95,1.707-2.89,2.092c-0.94,0.386-1.855,0.53-2.748,0.433
			c-0.892-0.096-1.778-0.433-2.658-1.012c-0.879-0.577-1.77-1.307-2.671-2.188l-1.135-1.11l-7.608,7.787l1.568,1.531
			c3.568,3.488,7.233,5.218,10.992,5.192c3.76-0.025,7.788-2.236,12.085-6.634c4.121-4.217,6.408-8.413,6.858-12.588
			c0.451-4.175-1.36-8.252-5.434-12.232C161.14,136.977,159.953,136.028,158.769,135.293z"/>
		<path fill="#356A34" d="M154.087,96.574l18.503,52.68l9.381-6.37l-4.349-10.845l11.882-8.069l8.477,8.043l9.381-6.372
			l-42.144-36.626L154.087,96.574z M174.175,123.598l-9.317-23.005l0.125-0.085l17.948,17.146L174.175,123.598z"/>
		<polygon fill="#356A34" points="215.426,113.082 197.667,71.674 187.662,75.964 208.937,125.571 236.658,113.683 233.142,105.484 
					"/>
		<polygon fill="#356A34" points="247.797,101.911 237.496,58.048 226.899,60.538 239.24,113.083 268.604,106.187 266.565,97.503 		
			"/>
		<polygon fill="#356A34" points="281.61,96.499 280.816,82.006 298.933,81.014 298.444,72.106 280.329,73.099 279.635,60.417 
			298.883,59.364 298.396,50.457 268.277,52.105 271.228,106.001 302.101,104.31 301.613,95.403 		"/>
		<path fill="#356A34" d="M356.473,58.456l-8.389,36.701c-0.303,1.327-0.668,2.522-1.092,3.589
			c-0.426,1.066-0.963,1.952-1.615,2.655c-0.652,0.704-1.425,1.2-2.316,1.486c-0.894,0.288-1.979,0.285-3.256-0.007
			c-1.229-0.28-2.194-0.746-2.898-1.399c-0.704-0.651-1.196-1.437-1.479-2.353c-0.282-0.918-0.382-1.949-0.301-3.094
			c0.08-1.145,0.272-2.38,0.576-3.707l8.388-36.701l-10.612-2.426l-8.388,36.702c-0.81,3.537-0.999,6.518-0.571,8.941
			c0.428,2.425,1.29,4.418,2.588,5.982c1.297,1.563,2.907,2.771,4.833,3.624c1.924,0.854,3.967,1.527,6.13,2.022
			c2.161,0.493,4.299,0.75,6.415,0.768c2.115,0.019,4.104-0.431,5.97-1.349c1.863-0.918,3.512-2.364,4.946-4.337
			c1.432-1.972,2.531-4.629,3.295-7.971l8.388-36.7L356.473,58.456z"/>
		<polygon fill="#356A34" points="405.285,76.723 389.737,110.262 389.601,110.198 393.214,71.127 381.828,65.849 359.127,114.82 
			368.181,119.017 384.078,84.724 384.215,84.788 380.39,124.676 391.637,129.891 414.338,80.92 		"/>
		
			<rect x="389.033" y="108.888" transform="matrix(0.5562 -0.831 0.831 0.5562 89.616 396.4751)" fill="#356A34" width="53.976" height="10.886"/>
		<polygon fill="#356A34" points="464.869,119.025 432.171,143.28 432.003,143.128 453.087,108.386 444.446,100.584 
			417.474,148.953 427.854,158.326 473.23,126.575 		"/>
		<polygon fill="#356A34" points="451.546,171.458 463.101,162.674 474.081,177.116 481.183,171.716 470.201,157.274 
			480.311,149.587 491.979,164.933 499.08,159.533 480.823,135.522 437.857,168.191 456.57,192.805 463.671,187.405 		"/>
		<path fill="#356A34" d="M485.858,219.686c1.04-0.566,1.991-1.117,2.853-1.651c2.582-1.603,4.207-3.27,4.875-5
			c0.666-1.73,0.582-3.905-0.253-6.527l0.136-0.066c1.939,2.473,4.263,3.86,6.965,4.164c2.702,0.302,5.683-0.344,8.941-1.94
			c4.209-2.063,6.787-4.731,7.738-8.003c0.949-3.272,0.427-6.944-1.569-11.018l-8.85-18.055l-48.468,23.754l4.791,9.774l20.5-10.047
			l2.562,5.227c0.998,2.036,1.165,3.75,0.5,5.143c-0.665,1.391-1.925,2.599-3.781,3.621l-9.167,4.83
			c-0.928,0.51-1.8,1.051-2.615,1.619c-0.816,0.568-1.442,1.266-1.877,2.098l5.19,10.59l0.407-0.2
			c0.054-1.148,0.693-2.191,1.918-3.129c1.27-0.846,3.171-1.947,5.706-3.301C483.649,220.88,484.816,220.252,485.858,219.686z
			 M504.288,184.891l2.263,4.616c2.218,4.526,1.087,7.887-3.394,10.082c-2.625,1.288-4.803,1.568-6.531,0.845
			c-1.73-0.724-3.172-2.263-4.325-4.615l-1.996-4.073L504.288,184.891z"/>
		<path fill="#356A34" d="M485.199,258.219c3.339,2.545,7.766,3.104,13.28,1.678c1.609-0.417,3.036-0.941,4.277-1.575
			s2.312-1.471,3.215-2.51c0.902-1.042,1.665-2.318,2.288-3.833c0.623-1.516,1.115-3.387,1.476-5.615l1.411-9.032
			c0.346-2.484,0.98-4.211,1.901-5.177c0.921-0.968,2.187-1.659,3.797-2.076c0.78-0.202,1.559-0.313,2.335-0.332
			s1.504,0.131,2.186,0.45c0.68,0.318,1.293,0.824,1.837,1.516c0.542,0.692,0.967,1.624,1.27,2.794
			c0.53,2.049,0.237,3.688-0.876,4.912c-1.115,1.227-2.916,2.161-5.404,2.804l2.613,10.099l1.464-0.377
			c2.488-0.645,4.518-1.599,6.091-2.866c1.572-1.265,2.745-2.766,3.521-4.501c0.773-1.737,1.161-3.659,1.162-5.768
			c0.001-2.108-0.301-4.333-0.907-6.675c-1.301-5.026-3.593-8.65-6.873-10.872c-3.283-2.223-7.51-2.664-12.681-1.325
			c-2.148,0.555-3.969,1.312-5.464,2.272c-1.497,0.959-2.717,2.173-3.665,3.643c-0.947,1.467-1.665,3.176-2.148,5.124
			c-0.485,1.948-0.816,4.193-0.989,6.738c-0.132,1.908-0.324,3.532-0.575,4.873c-0.252,1.34-0.625,2.465-1.118,3.374
			c-0.494,0.909-1.128,1.632-1.898,2.171c-0.772,0.536-1.742,0.958-2.914,1.261c-2.195,0.568-3.985,0.341-5.368-0.681
			c-1.385-1.022-2.284-2.337-2.701-3.947c-0.353-1.367-0.452-2.552-0.295-3.555c0.156-1.004,0.507-1.863,1.052-2.575
			c0.544-0.715,1.291-1.299,2.241-1.752c0.949-0.454,2.033-0.839,3.254-1.154l1.537-0.398l-2.727-10.538l-2.123,0.55
			c-4.83,1.249-8.207,3.49-10.13,6.72c-1.924,3.231-2.115,7.822-0.574,13.775C479.451,251.546,481.859,255.673,485.199,258.219z"/>
		
			<rect x="483.745" y="265.064" transform="matrix(-0.9942 0.1075 -0.1075 -0.9942 1047.5842 484.5443)" fill="#356A34" width="53.976" height="10.886"/>
		<polygon fill="#356A34" points="530.17,278.28 530.096,290.073 485.041,289.791 484.974,300.677 530.028,300.959 529.954,312.752 
			538.875,312.808 539.09,278.336 		"/>
		<polygon fill="#356A34" points="482.772,323.645 480.762,334.345 501.639,338.267 531.228,358.056 533.404,346.465 
			514.294,335.183 514.322,335.035 536.141,331.903 538.402,319.866 503.649,327.567 		"/>
	</g>
	<path fill="#356A34" d="M296.067,464.41c-92.911,0-168.5-75.589-168.5-168.5s75.589-168.5,168.5-168.5s168.5,75.589,168.5,168.5
		S388.979,464.41,296.067,464.41z M296.067,132.41c-90.154,0-163.5,73.346-163.5,163.5s73.346,163.5,163.5,163.5
		s163.5-73.346,163.5-163.5S386.222,132.41,296.067,132.41z"/>
	<g display="none">
		<g display="inline">
			<circle cx="231.341" cy="53.771" r="52.19"/>
			<circle cx="361.732" cy="537.525" r="52.19"/>
		</g>
		<g display="inline">
			<circle cx="119.137" cy="118.774" r="52.19"/>
			<circle cx="473.936" cy="472.522" r="52.19"/>
		</g>
		<g display="inline">
			<circle cx="54.467" cy="231.17" r="52.19"/>
			<circle cx="538.606" cy="360.126" r="52.19"/>
		</g>
		<g display="inline">
			<circle cx="54.659" cy="360.844" r="52.19"/>
			<circle cx="538.414" cy="230.452" r="52.19"/>
		</g>
		<g display="inline">
			<circle cx="119.662" cy="473.048" r="52.19"/>
			<circle cx="473.41" cy="118.248" r="52.19"/>
		</g>
		<circle display="inline" cx="232.059" cy="537.718" r="52.19"/>
	</g>
	<path fill="#356A34" d="M451.513,341.91c-14.753-5.566-18.49,7.287-25.337,12.603c2.313-5.425,4.302-11.04,5.941-16.824
		c13.597-7.953,1.396-31.779,1.396-31.779c-10.955,15.54-7.502,26.594-5.265,30.946c-0.643,2.254-1.348,4.479-2.099,6.679
		c-0.12-11.433-7.636-18.625-7.636-18.625c-8,12-1.774,19.469,0.542,24c1.227,2.4,2.124,4.354,2.737,5.764
		c-1.311,2.96-2.716,5.864-4.221,8.701c-0.068-6.194-7.392-19.513-7.392-19.513c-10.821,9.899-2.134,24.902,1.273,29.894
		c-2.225,3.422-4.595,6.733-7.103,9.924c0.13-6.427-2.669-16.506-2.669-16.506c-12.277,9.833-7.963,21.488-5.55,26.033
		c-2.616,2.764-5.344,5.414-8.175,7.947c1.269-6.37-0.399-16.368-0.399-16.368c-10.589,3.227-9.814,18.402-9.119,24.148
		c-3.306,2.463-6.723,4.776-10.241,6.934c-0.339-2.366,0.836-5.739,1.985-9.082c1.802-5.244,0-7.25,0-7.25
		c-13.77,2.227-14.915,17.561-14.854,23.309c-3.514,1.669-7.104,3.194-10.765,4.564c0.41-1.618,1.321-4.026,3.368-6.998
		c3.875-5.625,3.625-10.016,3.625-10.016c-16.251-2.912-20.837,15.297-21.935,21.648c-3.953,0.982-7.967,1.791-12.033,2.42
		c0.544-1.54,1.824-3.909,4.843-7.052c5.785-6.022,6.125-12.75,6.125-12.75c-11.125-0.75-13.25,1.872-18.544,8.834
		c-3.161,4.157-6.707,9.598-8.553,12.493c-1.615,0.057-3.235,0.092-4.862,0.092c-2.118,0-4.225-0.053-6.323-0.149
		c-1.471-3.39-4.492-10.128-7.259-14.896c-3.519-6.063-11.167-8.039-19.333-6.499c0,0-0.886,5.956,4.75,9.804
		c2.215,1.512,3.398,5.863,4,7.57c0.326,0.923,1.138,1.719,2.165,2.396c-3.766-0.61-7.486-1.375-11.152-2.288
		c-1.129-4.662-6.528-23.098-21.096-21.936c0,0,1.667,7.162,3.833,9.995c1.364,1.784,0.784,4.617,0.168,6.473
		c-3.222-1.271-6.387-2.663-9.49-4.168c0.867-3.936,2.015-12.877-3.844-17.972c-7.667-6.667-11.667-4.5-11.667-4.5
		s-0.804,2.899,0.863,7.399c1.343,3.626,2.621,5.695,1.448,7.751c-3.132-1.97-6.176-4.073-9.135-6.287
		c1.234-5.522,3.3-20.663-9.842-24.863c0,0-2.521,7.513-2.365,14.57c-1.538-1.458-3.043-2.953-4.514-4.482
		c1.991-5.193,6.013-19.65-6.955-27.754c0,0-3.057,3.435-4.08,14.746c-1.151-1.543-2.268-3.115-3.355-4.71
		c3.089-5.72,11.052-23.326-2.232-32.418c0,0-4.153,8.263-6.213,18.262c-1.26-2.437-2.451-4.92-3.569-7.446
		c3.624-4.45,12.216-17.284,1.948-28.768c0,0-4.325,4.383-7.678,13.376c-0.298-0.976-0.587-1.956-0.864-2.942
		c2.785-24.946-6.958-28.268-6.958-28.268c-10.961,26.939-0.594,31.92,4.187,32.829c0.952,3.081,2.007,6.11,3.155,9.087
		c-3.624-3.623-14.212-12.509-25.676-6.131c0,0,8.329,18.142,28.845,13.684c2.322,5.11,4.933,10.044,7.812,14.782
		c-14.758-7.919-20.656-1.585-20.656-1.585c10.835,13.968,22.439,12.403,26.962,11.068c2.098,2.894,4.301,5.701,6.604,8.416
		c-14.665,0.35-16.732,4.682-16.732,4.682c11.514,11.776,21.982,7.549,25.951,5.188c3.375,3.282,6.91,6.392,10.592,9.317
		c-14.464,1.2-16.876,6.379-16.876,6.379c14.046,10.279,24.037,4.369,27.65,1.393c2.88,1.876,5.829,3.652,8.845,5.316
		c-15.132,1.964-15.328,8.74-15.328,8.74c16.119,5.885,22.867-0.518,25.136-3.815c2.099,0.954,4.223,1.86,6.373,2.712
		c-12.384,10.524-9.176,12.226-9.176,12.226c12.913,4.27,20.964-3.672,23.855-7.328c1.749,0.479,3.51,0.926,5.283,1.338
		c-8.574,11.563-6.639,13.646-6.639,13.646c13.215,0.766,21.409-7.54,24.057-10.74c4.785,0.493,9.631,0.748,14.526,0.748
		c4.318,0,8.598-0.203,12.834-0.589c11.712,12.418,24.625,10.468,24.625,10.468c1.861-6.115-2.336-11.221-4.938-13.677
		c0.932-0.221,1.86-0.451,2.785-0.69c2.276,2.573,8.903,7.955,24.903,8.617c0,0,3.557-7.74-8.592-13.919
		c2.084-0.821,4.142-1.695,6.179-2.612c3.861,3.355,14.503,10.853,25.664,3.28c0,0-1.257-7.666-15.685-8.255
		c4.174-2.292,8.225-4.79,12.139-7.485c8.444,16.548,23.546,0.49,23.546,0.49c-3.297-6.42-12.599-5.614-17.986-4.52
		c4.842-3.693,9.444-7.697,13.776-11.989c8.109,13.998,24.335-3.908,24.335-3.908c-7.286-4.587-12.816-5.125-16.82-4.141
		c3.102-3.597,6.03-7.357,8.766-11.271c10.871,15.093,17.369-4.258,26.43-8.547c-10.897-9.681-16.57,0.259-23.475,4.14
		c3.686-5.721,6.977-11.741,9.827-18.028C441.99,369.636,444.4,349.346,451.513,341.91z"/>
	<path fill="#356A34" d="M578.779,327.756l0-0.021c-5.381-6.981-9.033-15.358-10.318-24.498c0.064-2.438,0.106-4.879,0.106-7.327
		c0-2.454-0.038-4.902-0.102-7.346c1.292-9.151,4.956-17.536,10.351-24.519l0-0.021l-0.055,0.048
		c10.306-12.577,14.609-29.76,10.058-46.659c-4.549-16.89-16.889-29.584-32.106-35.289l0.131,0.025l-0.011-0.018
		c-7.985-3.287-15.189-8.58-20.823-15.632c-2.483-4.589-5.108-9.109-7.861-13.559c-3.321-8.446-4.29-17.383-3.129-25.984
		l-0.01-0.018l-0.024,0.069c2.636-16.045-2.228-33.078-14.619-45.437c-12.384-12.353-29.418-17.176-45.449-14.508l0.126-0.044
		l-0.018-0.01c-8.579,1.148-17.491,0.176-25.913-3.133c-4.462-2.761-8.993-5.395-13.594-7.885
		c-7.057-5.645-12.349-12.861-15.631-20.859l-0.018-0.011l0.014,0.072c-5.739-15.213-18.469-27.532-35.379-32.04
		c-16.902-4.506-34.065-0.166-46.614,10.16l0.087-0.101l-0.021,0c-6.96,5.365-15.308,9.01-24.416,10.306
		c-2.486-0.066-4.976-0.107-7.472-0.107c-2.46,0-4.914,0.039-7.364,0.103c-9.119-1.302-17.475-4.959-24.437-10.338l-0.021,0
		l0.048,0.055c-12.577-10.305-29.76-14.609-46.659-10.058c-16.89,4.549-29.584,16.889-35.289,32.106l0.025-0.131l-0.018,0.011
		c-3.254,7.904-8.469,15.046-15.413,20.655c-4.744,2.559-9.412,5.271-14.008,8.118c-8.379,3.248-17.232,4.191-25.754,3.04
		l-0.019,0.01l0.069,0.024c-16.045-2.636-33.077,2.229-45.437,14.619c-12.353,12.384-17.176,29.418-14.508,45.449l-0.044-0.126
		l-0.01,0.018c1.134,8.474,0.2,17.271-3.011,25.603c-2.876,4.633-5.598,9.348-8.182,14.131
		c-5.618,6.945-12.771,12.157-20.683,15.404l-0.011,0.018l0.072-0.014c-15.213,5.739-27.532,18.469-32.04,35.379
		c-4.506,16.902-0.166,34.065,10.16,46.614l-0.101-0.087l0,0.021c5.297,6.872,8.916,15.099,10.253,24.073
		c-0.073,2.595-0.119,5.195-0.119,7.802c0,2.576,0.045,5.146,0.116,7.71c-1.343,8.989-4.974,17.227-10.287,24.104l0,0.021
		l0.055-0.048c-10.306,12.577-14.609,29.76-10.058,46.659c4.549,16.89,16.889,29.584,32.106,35.289l-0.131-0.025l0.011,0.018
		c7.808,3.214,14.878,8.337,20.456,15.155c2.646,4.917,5.457,9.752,8.412,14.51c3.172,8.306,4.084,17.07,2.944,25.51l0.01,0.019
		l0.024-0.069c-2.636,16.045,2.229,33.077,14.619,45.437c12.384,12.353,29.418,17.176,45.449,14.508l-0.126,0.044l0.019,0.01
		c8.432-1.129,17.185-0.21,25.479,2.963c4.738,2.943,9.553,5.743,14.449,8.38c6.85,5.595,11.993,12.693,15.211,20.534l0.018,0.011
		l-0.014-0.071c5.739,15.213,18.469,27.531,35.379,32.04c16.902,4.506,34.065,0.166,46.614-10.16l-0.087,0.101l0.021,0
		c6.888-5.309,15.135-8.932,24.133-10.263c2.554,0.07,5.113,0.115,7.678,0.115c2.57,0,5.134-0.045,7.693-0.115
		c9.021,1.333,17.287,4.971,24.185,10.3l0.021,0l-0.048-0.055c12.577,10.306,29.76,14.609,46.659,10.058
		c16.89-4.549,29.584-16.889,35.289-32.106l-0.025,0.131l0.018-0.011c3.248-7.889,8.449-15.021,15.374-20.625
		c4.761-2.57,9.445-5.293,14.057-8.152c8.375-3.245,17.224-4.186,25.744-3.036l0.018-0.01l-0.069-0.024
		c16.045,2.636,33.078-2.228,45.437-14.619c12.353-12.384,17.176-29.418,14.508-45.449l0.044,0.126l0.01-0.018
		c-1.143-8.542-0.185-17.412,3.09-25.803c2.787-4.5,5.429-9.077,7.94-13.719c5.643-7.049,12.856-12.337,20.847-15.616l0.011-0.018
		l-0.071,0.014c15.213-5.739,27.532-18.469,32.04-35.379c4.506-16.902,0.166-34.065-10.16-46.614L578.779,327.756z M485.219,485.061
		c-50.524,50.523-117.699,78.349-189.151,78.349c-71.452,0-138.627-27.825-189.151-78.349
		C56.392,434.537,28.567,367.362,28.567,295.91c0-71.452,27.825-138.627,78.349-189.151C157.441,56.235,224.616,28.41,296.067,28.41
		c71.452,0,138.627,27.825,189.151,78.349c50.523,50.524,78.349,117.699,78.349,189.151
		C563.567,367.362,535.742,434.537,485.219,485.061z"/>
	<g>
		<path fill="#356A34" d="M480.629,110.858C431.331,61.56,365.785,34.41,296.067,34.41c-69.718,0-135.264,27.15-184.562,76.448
			C62.208,160.156,35.058,225.702,35.058,295.42c0,69.718,27.149,135.263,76.448,184.562
			c49.298,49.298,114.843,76.447,184.562,76.447c69.718,0,135.264-27.149,184.562-76.447
			c49.299-49.299,76.448-114.844,76.448-184.562C557.077,225.702,529.928,160.156,480.629,110.858z M115.042,114.394
			C163.395,66.04,227.685,39.41,296.067,39.41s132.672,26.629,181.026,74.983c48.353,48.354,74.983,112.644,74.983,181.026
			c0,45.758-11.94,89.675-34.318,128.22l-0.186,0.285c0,0-9.617,6.741-13.871,5.084c-4.254-1.657-3.42-29.804-16.285-33.733
			c-14.715-4.494-20.366,8.102-28.382,4.456c-6.527-2.969-6.422-10.239-5.629-14.757c15.155-26.47,23.827-57.106,23.827-89.73
			c0-99.896-81.271-181.167-181.167-181.167c-99.896,0-181.167,81.271-181.167,181.167c0,32.678,8.699,63.36,23.899,89.859
			l-0.001,0.001c0,0,3.285,11.3,0,14.47c-3.285,3.17-28.499-9.37-37.452,0.67c-10.241,11.483-1.167,21.887-7.833,27.641
			c-7.439,6.42-17.005-1.85-18.599-3.322C52.19,385.797,40.058,341.544,40.058,295.42
			C40.058,227.037,66.688,162.748,115.042,114.394z M405.97,509.118l-9.522,5.625l-9.147-52.645l9.703-5.732l41.513,33.527
			l-9.824,5.803l-8.915-7.66l-16.093,9.506L405.97,509.118z M387.761,518.049l-33.654,10.816l-15.293-47.583l10.464-3.363
			l12.465,38.786l23.191-7.453L387.761,518.049z M296.067,471.411c-97.139,0-176.167-79.028-176.167-176.167
			c0-97.139,79.028-176.167,176.167-176.167s176.167,79.028,176.167,176.167C472.234,392.383,393.206,471.411,296.067,471.411z
			 M338.433,531.73l-10.86,1.686l-7.662-49.39l10.86-1.685L338.433,531.73z M312.349,485.895l-1.244,49.965l-10.986-0.273
			l-19.951-33.967l-0.14-0.004l-0.833,33.449l-10.287-0.256l1.244-49.965l10.917,0.272l20.019,34.039l0.141,0.003l0.834-33.52
			L312.349,485.895z M255.491,533.256l-10.993-3.056l-0.661-11.736l-18.007-5.005l-6.757,9.674l-10.656-2.962l31.595-43.093
			l10.858,3.018L255.491,533.256z M174.958,444.013l13.214,8.045l-7.888,35.437l0.12,0.072l27.32-23.605l13.213,8.045l-25.991,42.69
			l-8.789-5.352l18.419-30.254l-0.12-0.072l-28.882,23.884l-7.235-4.405l7.774-36.325l-0.12-0.073l-18.237,29.955l-8.789-5.351
			L174.958,444.013z"/>
		<polygon fill="#356A34" points="243.265,509.805 242.107,490.447 241.972,490.41 230.788,506.337 		"/>
		<polygon fill="#356A34" points="398.267,469.928 401.989,489.029 413.14,482.443 398.388,469.856 		"/>
	</g>
</g>
</svg>
