<?xml version="1.0" encoding="utf-8"?>
<!-- Generator: Adobe Illustrator 17.0.0, SVG Export Plug-In . SVG Version: 6.00 Build 0)  -->
<!DOCTYPE svg PUBLIC "-//W3C//DTD SVG 1.1//EN" "http://www.w3.org/Graphics/SVG/1.1/DTD/svg11.dtd">
<svg version="1.1"
	 id="svg2" sodipodi:docname="wreath.svg" inkscape:version="0.47 r22583" xmlns:dc="http://purl.org/dc/elements/1.1/" xmlns:cc="http://creativecommons.org/ns#" xmlns:rdf="http://www.w3.org/1999/02/22-rdf-syntax-ns#" xmlns:svg="http://www.w3.org/2000/svg" xmlns:sodipodi="http://sodipodi.sourceforge.net/DTD/sodipodi-0.dtd" xmlns:inkscape="http://www.inkscape.org/namespaces/inkscape"
	 xmlns="http://www.w3.org/2000/svg" xmlns:xlink="http://www.w3.org/1999/xlink" x="0px" y="0px" width="544.288px"
	 height="444.607px" viewBox="0 0 544.288 444.607" enable-background="new 0 0 544.288 444.607" xml:space="preserve">
<defs>
	
	
		<inkscape:perspective  inkscape:persp3d-origin="372.04724 : 350.78739 : 1" inkscape:vp_z="744.09448 : 526.18109 : 1" inkscape:vp_y="0 : 1000 : 0" inkscape:vp_x="0 : 526.18109 : 1" sodipodi:type="inkscape:persp3d" id="perspective10">
		</inkscape:perspective>
	
		<inkscape:perspective  inkscape:persp3d-origin="0.5 : 0.33333333 : 1" inkscape:vp_z="1 : 0.5 : 1" inkscape:vp_y="0 : 1000 : 0" inkscape:vp_x="0 : 0.5 : 1" sodipodi:type="inkscape:persp3d" id="perspective2824">
		</inkscape:perspective>
</defs>
<sodipodi:namedview  inkscape:window-maximized="1" inkscape:window-y="25" inkscape:window-x="0" inkscape:window-height="819" inkscape:window-width="1440" inkscape:current-layer="layer1" inkscape:document-units="px" inkscape:pageshadow="2" inkscape:pageopacity="0.0" showgrid="false" inkscape:cy="187.40134" inkscape:cx="405.96666" inkscape:zoom="0.98994949" borderopacity="1.0" bordercolor="#666666" pagecolor="#ffffff" id="base">
	</sodipodi:namedview>
<g id="layer1" transform="translate(-26.756821,-299.05045)" inkscape:groupmode="layer" inkscape:label="Ebene 1">
	<path id="path2906" fill="#377029" d="M434.956,305.112c-0.074,0.004-0.123,0.004-0.149,0.03c0.688,4.169,6.551,6.523,8.509,10.3
		c2.759,2.851,7.35,8.574,10.211,12.748s5.87,8.285,6.688,9.136s3.212,3.676,5.314,6.27c4.515,5.572,15.505,16.346,22.839,22.392
		c2.869,2.365,6.327,5.266,7.703,6.449c3.643,3.131,5.209,2.925,3.493-0.478c-0.46-0.912-1.572-4.251-2.478-7.404
		c-0.906-3.153-1.982-6.39-2.388-7.195c-1.897-5.62-3.943-10.78-7.255-15.793c-1.747-3.302-3.72-6.547-6.15-9.166
		c-2.898-4.481-7.482-8.022-11.464-11.076c-9.562-6.868-20.009-10.954-30.93-14.958
		C437.116,305.602,435.476,305.087,434.956,305.112L434.956,305.112z M156.973,308.396c-6.997,0.262-13.667,5.74-20.093,8.061
		c-9.107,4.303-14.147,7.788-20.481,14.122c-5.471,5.471-14.065,18.676-14.958,22.989c-0.732,3.539-3.318,12.422-4.747,16.241
		c-0.688,1.839-1.522,4.311-1.851,5.493c-0.867,3.12,0.538,2.652,5.314-1.732c2.322-2.131,5.744-5.013,7.583-6.419
		s4.232-3.417,5.314-4.478c1.082-1.061,4.1-3.931,6.717-6.359c2.618-2.428,6.674-7.083,9.016-10.36
		c2.343-3.276,6.741-9.344,9.763-13.495c3.964-5.475,7.615-11.103,12.659-15.704c3.94-4.189,7.164-7.936,7.165-8.33
		C157.906,308.395,157.439,308.379,156.973,308.396L156.973,308.396z M484.754,329.564l4.18,4.598
		c2.305,2.531,4.477,4.813,4.807,5.075c4.213,6.106,6.735,12.798,8.031,20.063c0.756,2.365,2.083,7.094,2.956,10.509
		c0.873,3.415,2.37,9.004,3.344,12.42c2.909,10.198,2.977,10.509,2.329,10.509c-0.343,0-1.979-1.549-3.642-3.463
		c-6.206-7.145-7.892-8.622-19.257-16.54c-3.678-2.562-7.486-5.358-8.449-6.24c-0.963-0.882-3.112-2.415-4.777-3.404
		c-3.167-1.881-5.063-3.997-10.718-11.912l-3.404-4.777l0.657,4.777c0.773,5.594,2.319,10.09,6.419,18.63
		c3.046,6.344,14.757,19.188,23.138,25.377c14.949,11.039,28.426,24.128,31.497,30.602c0.888,1.872,1.841,3.204,2.09,2.956
		c0.248-0.248,0.403-12.84,0.358-28.004c-0.086-29.127-0.546-32.651-5.374-42.395c-6.374-12.862-20.811-25.817-31.378-28.154
		L484.754,329.564L484.754,329.564z M106.547,333.564c-3.299,0.143-12.63,5.507-18.122,10.927
		c-10.441,10.304-14.299,17.066-16.45,28.781c-2.402,13.078-2.572,17.696-1.164,30.93c0.755,7.094,1.138,16.229,0.866,20.302
		c-0.314,4.697-0.137,7.404,0.478,7.404c0.533,0,1.245-0.752,1.582-1.672c2.269-6.19,13.009-18.113,22.959-25.496
		c16.595-12.314,28.956-27.006,34.214-40.663c3.322-8.627,3.987-12.638,2.06-12.241c-0.818,0.169-2.191,1.588-3.075,3.165
		c-2.211,3.945-8.55,9.834-19.287,17.943c-9.921,8.021-20.883,14.866-27.318,26.392c-2.791,6.681-2.108,2.086,0.985-6.628
		c1.763-4.967,3.939-12.486,4.837-16.689c2.498-11.692,4.275-18.684,5.971-23.407c2.121-5.905,7.274-13.9,10.211-15.823
		c1.338-0.877,2.448-1.983,2.448-2.448C107.741,333.755,107.308,333.531,106.547,333.564z M526.432,364.077
		c-1.178,0.209-0.745,1.999,1.284,5.255c0.655,1.051,1.934,4.498,2.836,7.643c1.426,4.967,1.536,7.85,0.836,21.974
		c-0.443,8.941-0.842,25.43-0.866,36.662c-0.028,12.726-0.317,19.207-0.806,17.197c-2.1-8.636-3.239-11.346-7.255-17.436
		c-2.386-3.618-7.768-9.637-11.942-13.375c-11.035-9.884-21.862-20.717-23.854-23.854c-0.96-1.513-2.086-2.364-2.538-1.911
		c-0.838,0.841,1.585,10.969,3.851,16.092c2.546,7.135,5.109,13.807,9.554,19.973c7.087,11.189,16.016,21.156,22.929,32.423
		c3.985,5.904,7.978,14.365,10.121,21.406c0.998,3.28,2.044,5.966,2.329,5.971c5.781-12.268,6.934-27.78,11.823-39.648
		c7.021-16.02,5.59-48.859-2.836-65.443c-3.838-8.338-8.634-16.335-15.196-22.929C526.609,364.077,526.511,364.063,526.432,364.077
		L526.432,364.077z M67.974,368.286c-1.267,0.284-5.286,4.908-8.628,10.748c-3.355,6.081-6.698,12.299-9.404,18.63
		c-0.176,1.227-0.806,3.744-1.403,5.583c-2.917,17.586-3.212,36.361,3.702,53.023c1.059,3.153,3.257,9.387,4.896,13.853
		c1.64,4.466,3.178,9.195,3.404,10.509c0.38,2.216,1.427,6.539,1.851,7.643c0.101,0.263,0.513,1.939,0.926,3.702l0.746,3.195
		l1.135-2.717c0.618-1.5,1.671-4.789,2.359-7.285c2.336-7.659,9.448-18.833,14.002-25.049c4.16-6.148,8.122-12.226,8.807-13.495
		c4.227-5.77,8.62-11.409,11.644-17.943c0.001-0.461,1.24-3.47,2.747-6.688c4.664-9.956,7.368-21.615,5.016-21.615
		c-0.462,0-2.625,2.365-4.807,5.255c-2.182,2.89-4.291,5.255-4.687,5.255c-15.48,11.671-30.236,27.626-34.095,47.142
		c-1.246,7.474-1.44,2.469-0.358-8.927c1.119-11.787,0.618-21.305-2.15-40.872c-2.038-14.407-0.751-27.796,3.523-36.364
		C68.536,369.186,68.638,368.138,67.974,368.286L67.974,368.286z M555.87,433.998c-0.467,0.003-0.717,2.536-1.045,9.375
		c-1.167,13.291-4.654,25.744-9.972,37.916c-5.549,11.601-10.275,23.703-12.689,36.364c-0.869,6.008-1.689,3.784-1.941-5.344
		c-0.242-8.772-1.173-12.729-4.598-19.555c-2.107-4.513-3.469-9.294-6.538-13.375c-5.625-7.738-9.98-16.594-14.36-25.019
		c-1.292-2.627-2.372-5.314-2.388-5.971c-0.052-2.08-1.699-1.286-2.299,1.105c-1.056,4.209,0.836,18.503,4.777,35.916
		c2.374,10.491,7.708,29.368,10.808,38.215c2.85,8.133,3.915,16.722,3.284,26.512c-0.676,10.486,0.044,12.078,3.195,7.165
		c0.927-1.445,7.569-10.403,14.749-19.914c7.18-9.51,13.973-19.183,15.107-21.496c11.863-24.189,13.815-59.975,4.448-81.117
		C556.188,434.278,556.026,433.997,555.87,433.998z M40.029,438.148c-2.057,2.057-5.85,23.061-5.852,32.393
		c-0.002,9.046,1.63,22.304,3.463,28.183c5.262,18.132,13.709,34.337,27.288,48.037c4.041,4.993,8.269,10.838,9.404,13.017
		c3.587,6.882,4.269,5.291,4.269-10.121c0.087-10.084,0.976-19.486,4.777-28.9c0.826-2.89,2.114-7.404,2.866-10.031
		c0.752-2.627,2.065-7.356,2.896-10.509c0.831-3.153,2.137-7.925,2.896-10.599c1.507-5.961,1.322-12.089,2.777-18.062
		c1.491-6.173,1.976-23.407,0.657-23.407c-7.164,7.933-22.759,45.508-24.302,48.246c-3.803,10.38-4.463,14.199-4.06,24.213
		c0.442,10.992-0.702,12.028-2.269,2.06c-1.983-12.616-4.813-21.991-9.106-30.064c-1.348-2.536-2.448-4.988-2.448-5.434
		c0-0.446-1.29-3.53-2.866-6.867s-2.866-6.382-2.866-6.777s-0.606-2.076-1.343-3.732c-3.072-6.894-4.479-13.101-5.046-22.362
		C40.834,442.039,40.325,437.852,40.029,438.148L40.029,438.148z M504.22,504.516c-4,7.009-5.106,16.072-7.583,23.675
		c-1.382,6.99-4.837,38.679-4.837,44.395c0,9.731-5.603,36.507-8.837,42.275c-2.805,5.002-3.443,6.604-2.986,7.344
		c10.266-5.916,20.309-12.64,29.975-19.287c3.007-1.668,5.574-4.052,8.598-5.732c1.99-1.576,3.844-2.866,4.12-2.866
		c15.969-12.645,29.673-28.23,36.304-47.769c3.848-11.575,5.878-30.544,3.851-35.826c-0.826-2.152-2.219,0.001-2.239,3.463
		c-0.018,3.018-4.772,15.172-6.688,17.077c-0.264,0.263-1.769,2.38-3.344,4.717c-1.575,2.337-7.648,9.216-13.495,15.286
		s-12.249,12.981-14.211,15.346c-3.559,3.868-6.664,7.731-9.375,12.271c-2.265,2.981-5.921,8.52-6.329,9.046
		c-3.094,3.982-4.738,6.476-4.926,6.598c0.065-0.271,1.169-2.325,3.344-6.717c2.415-4.876,4.14-10.774,5.374-19.376
		c1.23-8.574,0.669-15.71-2.418-30.96c-2.435-12.029-3.344-19.226-3.344-26.153C505.175,507.416,504.768,504.516,504.22,504.516
		L504.22,504.516z M93.381,511.442c-0.576-0.049-0.919,1.009-0.926,3.254c-0.012,3.983-3.011,21.132-4.896,28.034
		c-0.698,2.557-1.188,10.494-1.194,19.585c0.062,10.018,0.194,20.412,5.762,29.169c1.391,2.101,2.282,4.077,2,4.359
		c-4.625-4.096-6.524-10.215-10.688-14.749c-1.548-2.278-5.419-7.007-8.598-10.509c-6.754-7.438-22.007-23.561-25.138-26.601
		c-1.192-1.157-2.15-2.403-2.15-2.747s-1.223-2.175-2.717-4.09c-3.569-4.575-7.936-14.026-8.3-17.943
		c-0.159-1.713-0.762-3.888-1.314-4.837c-1.576-2.71-1.302,16.917,0.358,25.974c1.75,9.55,3.154,13.475,8.33,23.227
		c4.864,9.165,13.071,19.291,20.361,25.108c2.881,2.299,5.255,4.526,5.255,4.926c9.945,6.932,19.992,14.305,29.945,20.809
		c0.613,0.02,4.759,2.567,9.225,5.643c10.863,7.481,10.923,7.465,7.285-0.328c-1.251-2.68-2.94-6.371-3.732-8.21
		c-2.83-6.569-5.877-23.394-6.926-38.215c-1.513-21.372-5.366-45.78-8.897-56.307C95.226,513.417,94.121,511.505,93.381,511.442
		L93.381,511.442z M486.068,559.659c-0.105-0.024-0.207-0.001-0.328,0.03c-0.73,0.187-1.821,1.409-3.344,3.762
		c-1.635,2.527-4.045,5.848-5.374,7.374c-6.227,8.751-11.947,18.209-15.793,28.243c0,0.557-0.432,1.775-0.955,2.687
		c-0.523,0.912-2.659,6.801-4.747,13.107c-4.559,13.768-6.43,19.073-7.553,21.287c-0.463,0.913-1.763,3.577-2.896,5.941
		c-3.535,7.376-7.921,13.651-13.196,18.928c-1.732,1.733-3.135,3.345-3.135,3.583c0,0.783,3.904,0.453,5.643-0.478
		c2.082-1.114,13.945-3.836,21.108-4.837c13.445-1.878,18.385-3.141,30.602-7.792c8.326-3.17,24.713-14.47,33.886-23.377
		c7.945-7.714,15.105-17.672,19.525-27.138c2.778-5.949,7.023-20.056,6.27-20.809c-0.197-0.197-1.236,1.293-2.329,3.314
		c-3.148,5.821-4.042,7.019-9.613,13.017c-4.964,5.344-14.05,12.953-17.197,14.39c-0.788,0.36-2.723,1.475-4.299,2.478
		s-6.091,3.396-10.031,5.314c-3.941,1.918-7.81,3.862-8.598,4.329s-3.734,1.971-6.538,3.344
		c-9.995,5.555-19.781,11.574-28.392,19.078c-1.894,1.839-3.691,3.344-4.001,3.344c-0.516,0,2.64-3.853,5.075-6.18
		c8.317-9.863,14.339-21.229,16.988-33.946c0.824-3.941,2.191-11.679,3.045-17.197c2.111-13.641,4.119-22.698,5.941-27.019
		c1.041-2.469,1.206-3.929,0.537-4.598C486.283,559.755,486.174,559.683,486.068,559.659L486.068,559.659z M110.936,562.794
		c-2.366,0.11,3.834,13.395,3.523,16.719c3.226,14.636,3.792,17.77,3.792,20.63c0,6.594,6.677,28.561,9.554,31.438
		c3.078,5.859,6.235,10.955,11.703,14.719l6.926,6.628l-5.882-3.941c-3.228-2.169-6.508-4.627-7.315-5.434
		c-9.137-5.49-17.398-12.739-27.467-16.838c-30.346-13.99-42.059-22.769-51.799-38.872c-2.385-3.943-2.636-4.158-2.15-1.642
		c0.305,1.576,0.793,4.142,1.075,5.702c5.47,16.069,14.511,30.114,27.198,41.589c2.738,2.365,5.879,5.113,6.986,6.091
		c12.778,10.17,27.871,17.18,44.066,19.764c6.305,1.082,13.829,2.368,16.719,2.866c1.916,0.346,23.327,6.269,20.958,2.806
		c-2.753,0-12.259-12.686-17.197-22.929c-1.14-2.365-2.463-5.028-2.926-5.941c-1.062-2.093-2.786-6.875-7.583-21.108
		c-5.15-15.278-12.101-29.481-18.331-37.439c-0.411-0.525-2.87-3.695-5.493-7.046c-2.623-3.351-4.777-6.468-4.777-6.926
		C111.787,563.04,111.274,562.778,110.936,562.794L110.936,562.794z M450.301,614.772c-1.543,0.052-9.121,5.536-14.271,10.419
		c-2.874,2.725-6.877,6.316-8.897,7.971c-2.02,1.656-10.052,9.287-17.854,16.958c-13.039,12.708-27.021,23.765-45.858,26.362
		c-1.321,0-2.635,0.395-2.926,0.866c-0.682,1.103,1.718,2,5.314,2c2.716,0,11.406,1.804,19.466,4.03
		c2.102,0.581,5.541,1.381,7.643,1.791s7.906,1.608,12.898,2.657c17.646,3.682,36.178,5.182,53.501-0.985
		c15-5.148,28.474-14.571,38.633-26.721c3.399-3.586,9.904-14.646,8.27-14.062c-0.51,0.182-3.219,2.478-6.031,5.105
		c-5.358,5.007-7.482,6.562-11.017,8.091c-1.175,0.508-3.972,1.815-6.21,2.896c-6.305,3.046-18.698,5.401-37.498,7.135
		c-15.209,1.455-30.486,4.145-45.619,5.135c8.355-2.458,16.094-6.494,23.048-11.763c3.282-2.858,11.684-15.276,14.569-21.526
		c0.849-1.839,2.747-5.923,4.239-9.076c1.493-3.153,2.754-5.965,2.777-6.24c0.023-0.275,1.479-2.757,3.254-5.523
		s3.018-5.222,2.777-5.464C450.464,614.785,450.404,614.768,450.301,614.772L450.301,614.772z M146.941,616.623
		c-0.864,0.067-0.255,1.654,1.702,4.717c4,6.26,4.503,7.193,10.002,17.883c6.773,13.169,11.058,19.675,16.122,24.511
		c4.736,4.523,13.313,9.329,18.331,10.27c1.876,0.352,4.09,1.702,4.09,1.702s-4.793-0.07-7.285-0.657
		c-4.155-0.813-32.447-3.626-47.291-4.687c-18.902-1.352-34.757-7.032-45.022-16.182c-5.702-5.082-7.757-5.258-4.18-0.358
		c1.242,1.701,3.154,4.35,4.239,5.911c8.842,10.838,20.668,20.808,33.557,26.183c1.264,1.149,6.405,2.929,14.271,4.926
		c8.543,2.169,23.648,2.35,37.2,0.448c5.672-0.796,10.702-1.684,11.166-1.97c0.464-0.287,2.879-0.902,5.374-1.344
		c2.494-0.441,7.762-1.723,11.703-2.866s11.648-3.033,17.137-4.21l9.972-2.15l-4.717-1.194c-2.599-0.662-6.126-1.819-7.852-2.568
		c-8.216-3.34-16.954-5.611-24.093-11.345c-1.839-1.376-7.234-6.258-11.972-10.838c-12.646-12.223-25.11-23.598-31.647-28.87
		C151.571,618.955,148.052,616.537,146.941,616.623L146.941,616.623z M327.865,677.199c-5.139,0.083-10.715,0.574-16.629,1.612
		c-1.299,0.228-3.928,0.746-5.822,1.373c-5.849,1.937-7.442,1.993-11.136,0.358c-2.924-1.294-7.051-2.446-22.69-2.478
		c-9.116,0.155-17.98,0.523-26.571,3.583c-5.248,1.042-10.121,3.53-15.226,5.046c-3.284,1.338-8.594,3.447-11.793,4.657
		c-3.199,1.211-8.597,3.497-12.002,5.105c-8.226,3.886-19.459,6.704-29.736,7.434c-10.549,0.749-22.226-1.465-31.915-6.031
		c-7.467-3.518-7.942-3.658-7.942-2.329c8.718,10.412,20.322,17.147,32.751,22.153c4.043,2.147,21.58,4.791,26.959,4.06
		c6.208-0.843,17.395-3.141,19.764-4.06c8.16-3.165,11.734-4.895,18.928-9.136c6.443-3.92,12.452-8.349,18.749-12.42
		c10.315-7.876,24.055-12.482,31.557-10.599c2.438,0.612,2.018,0.968-5.911,5.016c-11.306,5.772-19.891,11.449-31.438,20.779
		c-11.397,9.209-18.982,16.409-18.54,17.615c0.177,0.485,2.478,2.616,5.105,4.747s5.257,3.892,5.852,3.911
		c0.594,0.019,2.322-1.586,3.821-3.553c5.191-6.805,25.546-25.897,30.811-28.9c5.151-3.084,9.366-7.534,14.898-10.061
		c2.094-1.032,4.403-2.418,5.105-3.075c2.895-2.707,11.78,0.223,20.242,6.658c1.314,0.999,4.108,3.096,6.21,4.687
		c6.385,4.834,11.192,8.766,15.674,12.778c5.401,4.878,9.744,10.231,15.226,14.898c3.65,3.753,6.265,5.693,7.404,5.493
		c2.335-0.41,9.928-8.319,9.375-9.763c-1.008-2.628-16.158-15.167-28.094-23.257c-4.466-3.027-8.336-5.757-8.598-6.061
		s-1.767-1.237-3.344-2.06c-1.576-0.823-6.024-3.203-9.882-5.284l-7.016-3.792l3.075-0.597c8.843-1.769,16.2,0.523,28.81,8.986
		c5.076,3.539,9.799,7.441,15.286,10.3c14.985,9.921,30.406,14.658,47.649,14.659c13.74,0,22.503-2.444,35.797-9.972
		c8.536-4.834,21.682-16.115,20.331-17.465c-0.299-0.299-3.068,0.837-6.15,2.508c-9.932,5.382-17.218,6.911-32.841,6.897
		c-11.638-0.107-22.515-1.901-33.199-6.837c-8.717-4.284-17.963-7.608-26.989-11.136c-3.43-1.618-7.132-2.163-10.748-3.224
		c-5.559-1.736-13.445-3.171-22.989-3.224C329.328,677.195,328.599,677.188,327.865,677.199L327.865,677.199z"/>
</g>
<title>Texas-Star</title>
<title>Layer 1</title>
<title>Layer 1</title>
<path id="path4704" marker-end="none" marker-start="none" marker-mid="none" fill="#377029" d="M272.548,46.403v143.388
	l28.303-36.312h-0.023C300.804,153.479,279.502,72.888,272.548,46.403z"/>
<path id="path2341" marker-end="none" marker-start="none" marker-mid="none" fill="#377029" d="M272.319,190.148l140.453-42.772
	l-94.622,59.948L272.319,190.148z"/>
<path id="path2345" marker-end="none" marker-start="none" marker-mid="none" fill="#377029" d="M359.143,310.444l-86.524-120.179
	l-0.317,49.535L359.143,310.444z"/>
<path id="path2349" marker-end="none" marker-start="none" marker-mid="none" fill="#377029" d="M272.319,190.148L184.79,310.444
	l41.158-103.777L272.319,190.148L272.319,190.148z"/>
<path id="path2353" marker-end="none" marker-start="none" marker-mid="none" fill="#377029" d="M272.548,190.409l-141.333-43.711
	l112.432,6.817L272.548,190.409L272.548,190.409L272.548,190.409z"/>
<polygon fill="none" stroke="#377029" stroke-width="6" stroke-miterlimit="10" points="272.303,239.8 358.183,309.11 
	318.014,207.129 413.106,147.219 300.917,153.479 272.329,46.395 243.647,153.515 131.182,146.745 225.948,206.667 184.818,310.264 
	"/>
</svg>
