<?xml version="1.0" standalone="no"?>
<!DOCTYPE svg PUBLIC "-//W3C//DTD SVG 1.1//EN" "http://www.w3.org/Graphics/SVG/1.1/DTD/svg11.dtd" >
<svg xmlns="http://www.w3.org/2000/svg">
<metadata>
This is a custom SVG font generated by IcoMoon.
0
</metadata>
<defs>
<font id="icomoon" horiz-adv-x="512" >
<font-face units-per-em="512" ascent="480" descent="-32" />
<missing-glyph horiz-adv-x="512" />
<glyph unicode="&#x61;" d="M 256.00-29.44c 139.971,0.00, 253.44,113.464, 253.44,253.435S 395.971,477.44, 256.00,477.44S 2.56,363.965, 2.56,223.995S 116.029-29.44, 256.00-29.44z M 136.704,190.863
		l 0.195,0.179c 1.311,1.638, 94.008,131.707, 95.601,132.859c 7.142,6.098, 13.763,12.785, 23.675,12.785c 9.836,0.00, 14.561-5.12, 23.583-12.631
		c 1.464-1.08, 94.572-131.374, 95.887-133.012l 0.302-0.179l 0.01-0.036c 3.599-4.608, 5.791-10.388, 5.791-16.681
		c0.00-15.017-12.145-27.162-27.136-27.162c-5.612,0.00-10.808,1.69-15.135,4.593l-0.358-0.184L 256.353,267.156L 173.43,151.398l-0.174,0.184
		c-4.326-2.903-9.523-4.593-15.135-4.593c-14.996,0.00-27.151,12.145-27.151,27.162c0.00,6.292, 2.161,12.068, 5.76,16.681L 136.704,190.863z" />
<glyph unicode="&#x62;" d="M 2.56,224.00c0.00-139.971, 113.464-253.44, 253.435-253.44S 509.44,84.029, 509.44,224.00S 395.965,477.44, 255.995,477.44S 2.56,363.971, 2.56,224.00z M 222.863,343.296
		l 0.179-0.195c 1.638-1.311, 131.707-94.008, 132.859-95.601c 6.098-7.142, 12.785-13.763, 12.785-23.675c0.00-9.836-5.12-14.561-12.631-23.583
		c-1.08-1.464-131.374-94.572-133.012-95.887l-0.179-0.302l-0.036-0.01c-4.608-3.599-10.388-5.791-16.681-5.791
		c-15.017,0.00-27.162,12.145-27.162,27.136c0.00,5.612, 1.69,10.808, 4.593,15.135l-0.184,0.358l 115.753,82.76L 183.398,306.57l 0.184,0.174
		c-2.903,4.326-4.593,9.523-4.593,15.135c0.00,14.996, 12.145,27.151, 27.162,27.151c 6.292,0.00, 12.068-2.161, 16.681-5.76L 222.863,343.296z" />
<glyph unicode="&#x63;" d="M 509.44,224.00c0.00,139.971-113.464,253.44-253.435,253.44S 2.56,363.971, 2.56,224.00s 113.475-253.44, 253.445-253.44S 509.44,84.029, 509.44,224.00z M 289.137,104.704
		l-0.179,0.195C 287.314,106.209, 157.251,198.912, 156.093,200.499c-6.098,7.142-12.785,13.763-12.785,23.675c0.00,9.836, 5.12,14.561, 12.631,23.583
		c 1.08,1.464, 131.374,94.572, 133.012,95.887l 0.179,0.302l 0.036,0.01c 4.608,3.599, 10.388,5.791, 16.681,5.791
		c 15.017,0.00, 27.162-12.145, 27.162-27.136c0.00-5.612-1.69-10.808-4.593-15.135l 0.184-0.358L 212.844,224.353L 328.602,141.43l-0.184-0.174
		c 2.903-4.326, 4.593-9.523, 4.593-15.135c0.00-14.996-12.145-27.151-27.162-27.151c-6.292,0.00-12.068,2.161-16.681,5.76L 289.137,104.704z" />
<glyph unicode="&#x64;" d="M 256.00,477.44C 116.029,477.44, 2.56,363.976, 2.56,224.005S 116.029-29.44, 256.00-29.44s 253.44,113.475, 253.44,253.445S 395.971,477.44, 256.00,477.44z M 375.296,257.137
		l-0.195-0.179C 373.791,255.314, 281.088,125.251, 279.501,124.093c-7.142-6.098-13.763-12.785-23.675-12.785c-9.836,0.00-14.561,5.12-23.583,12.631
		c-1.464,1.08-94.572,131.374-95.887,133.012l-0.302,0.179l-0.01,0.036c-3.599,4.608-5.791,10.388-5.791,16.681
		c0.00,15.017, 12.145,27.162, 27.136,27.162c 5.612,0.00, 10.808-1.69, 15.135-4.593l 0.358,0.184l 82.76-115.753L 338.57,296.602l 0.174-0.184
		c 4.326,2.903, 9.523,4.593, 15.135,4.593c 14.996,0.00, 27.151-12.145, 27.151-27.162c0.00-6.292-2.161-12.068-5.76-16.681L 375.296,257.137z" />
<glyph unicode="&#x41;" d="M 9.876,142.331L 9.876,142.331l 0.394,0.251C 11.899,144.558, 225.449,335.309, 227.277,336.65
	c 11.09,8.909, 16.983,15.043, 29.112,15.043c 12.227,0.00, 20.444-8.023, 29.256-15.35c 1.93-1.28, 215.025-191.836, 216.612-193.766l 0.302-0.251l0.00,0.00
	c 4.403-5.468, 7.076-12.421, 7.076-19.922c0.00-17.894-14.996-32.369-33.562-32.369c-6.881,0.00-13.317,2.002-18.662,5.463l-0.20-0.225L 264.699,273.183
	c0.00,0.00-3.912,4.90-8.264,4.90c-4.408,0.00-8.018-4.598-8.018-4.598L 55.363,95.278l-0.394,0.225c-5.345-3.466-11.786-5.468-18.668-5.468
	c-18.509,0.00-33.562,14.531-33.562,32.374C 2.744,129.91, 5.468,136.858, 9.876,142.331" />
<glyph unicode="&#x42;" d="M 177.649,467.174L 177.649,467.174l 0.251-0.394C 179.881,465.152, 370.632,251.602, 371.968,249.774
	c 8.909-11.09, 15.043-16.983, 15.043-29.112c0.00-12.227-8.023-20.444-15.35-29.256c-1.28-1.93-191.836-215.025-193.761-216.612l-0.251-0.302l0.00,0.00
	c-5.468-4.403-12.421-7.076-19.922-7.076c-17.894,0.00-32.374,14.996-32.374,33.562c0.00,6.881, 2.002,13.317, 5.468,18.662l-0.22,0.20
	l 177.905,192.507c0.00,0.00, 4.90,3.912, 4.90,8.264c0.00,4.408-4.598,8.018-4.598,8.018L 130.601,421.683l 0.225,0.394
	c-3.466,5.345-5.468,11.786-5.468,18.668c0.00,18.509, 14.531,33.562, 32.374,33.562C 165.228,474.307, 172.18,471.578, 177.649,467.174" />
<glyph unicode="&#x43;" d="M 502.497,299.397L 502.497,299.397l-0.394-0.251c-1.628-1.981-215.178-192.727-217.006-194.068
	c-11.09-8.909-16.983-15.043-29.107-15.043c-12.227,0.00-20.444,8.023-29.256,15.35c-1.93,1.28-215.03,191.836-216.612,193.761l-0.297,0.251l0.00,0.00
	c-4.403,5.468-7.076,12.421-7.076,19.922c0.00,17.894, 14.996,32.374, 33.562,32.374c 6.881,0.00, 13.317-2.002, 18.662-5.468l 0.20,0.22l 192.507-177.905
	c0.00,0.00, 3.912-4.90, 8.269-4.90c 4.408,0.00, 8.018,4.598, 8.018,4.598l 193.05,178.202l 0.394-0.22c 5.345,3.466, 11.786,5.468, 18.668,5.468
	c 18.509,0.00, 33.562-14.525, 33.562-32.374C 509.624,311.818, 506.90,304.865, 502.497,299.397" />
<glyph unicode="&#x44;" d="M 334.72-25.446L 334.72-25.446l-0.251,0.394c-1.981,1.628-192.732,215.178-194.068,217.006
	c-8.909,11.09-15.043,16.983-15.043,29.112c0.00,12.227, 8.023,20.444, 15.35,29.256c 1.28,1.93, 191.836,215.025, 193.766,216.612l 0.251,0.302l0.00,0.00
	c 5.468,4.403, 12.421,7.076, 19.922,7.076c 17.894,0.00, 32.369-14.996, 32.369-33.562c0.00-6.881-2.002-13.317-5.463-18.662l 0.225-0.20L 203.863,229.381
	c0.00,0.00-4.90-3.912-4.90-8.264c0.00-4.408, 4.598-8.018, 4.598-8.018l 178.207-193.05l-0.225-0.394c 3.466-5.345, 5.468-11.786, 5.468-18.668
	c0.00-18.509-14.531-33.562-32.374-33.562C 347.141-32.573, 340.188-29.85, 334.72-25.446" />
<glyph unicode="&#x65;" d="M 270.254,124.539l 0.026,169.242l 69.591-66.478l 0.189,0.087c 2.243-1.516, 4.92-2.371, 7.808-2.371
	c 7.741,0.00, 14.019,6.277, 14.019,13.998c0.00,3.282-1.121,6.236-2.99,8.617l-0.02,0.026l-0.148,0.102
	c-0.671,0.87-89.938,83.338-90.691,83.891c-4.639,3.871-7.101,6.528-12.165,6.528c-5.12,0.00-8.53-3.451-12.216-6.63
	c-0.799-0.589-89.871-82.949-90.542-83.789l-0.102-0.102l0.00-0.031 c-1.838-2.381-2.949-5.33-2.949-8.612c0.00-7.721, 6.252-13.998, 14.008-13.998
	c 2.918,0.00, 5.571,0.855, 7.818,2.365l 0.102-0.082l 69.11,66.079l-0.031-168.842c0.00,0.00-0.282-14.751, 15.35-14.751
	C 272.046,109.788, 270.254,124.539, 270.254,124.539M 2.56,223.995C 2.56,84.244, 116.255-29.44, 256.005-29.44C 395.761-29.44, 509.44,84.244, 509.44,223.995C 509.44,363.72, 395.781,477.44, 256.005,477.44
	C 116.255,477.43, 2.56,363.72, 2.56,223.995 M 477.041,223.995c0.00-121.897-99.128-221.03-221.03-221.03c-121.876,0.00-221.061,99.133-221.061,221.03
	c0.00,121.876, 99.185,221.061, 221.061,221.061C 377.912,445.041, 477.041,345.871, 477.041,223.995" />
<glyph unicode="&#x66;" d="M 156.539,209.71l 169.242-0.026L 259.302,140.093l 0.087-0.195c-1.516-2.243-2.371-4.92-2.371-7.808
	c0.00-7.736, 6.277-14.019, 13.998-14.019c 3.282,0.00, 6.236,1.121, 8.617,2.995l 0.026,0.015l 0.102,0.148c 0.87,0.671, 83.338,89.943, 83.891,90.691
	c 3.871,4.644, 6.528,7.107, 6.528,12.165c0.00,5.12-3.451,8.53-6.63,12.216c-0.589,0.799-82.949,89.871-83.789,90.542l-0.102,0.102l-0.031,0.00 
	c-2.381,1.838-5.33,2.949-8.612,2.949c-7.721,0.00-13.998-6.252-13.998-14.008c0.00-2.918, 0.855-5.571, 2.365-7.818l-0.082-0.102l 66.079-69.11
	l-168.842,0.031c0.00,0.00-14.746,0.282-14.746-15.35C 141.788,207.918, 156.539,209.71, 156.539,209.71M 2.56,223.995C 2.56,84.244, 116.255-29.44, 256.005-29.44C 395.761-29.44, 509.44,84.244, 509.44,223.995C 509.44,363.72, 395.781,477.44, 256.005,477.44
	C 116.255,477.43, 2.56,363.72, 2.56,223.995 M 477.041,223.995c0.00-121.897-99.128-221.03-221.03-221.03c-121.876,0.00-221.061,99.133-221.061,221.03
	c0.00,121.876, 99.185,221.061, 221.061,221.061C 377.912,445.041, 477.041,345.871, 477.041,223.995" />
<glyph unicode="&#x67;" d="M 241.705,323.425l-0.026-169.242L 172.088,220.667l-0.20-0.087c-2.237,1.51-4.915,2.371-7.808,2.371
	c-7.731,0.00-14.013-6.277-14.013-13.993c0.00-3.282, 1.116-6.236, 2.99-8.617l 0.01-0.026l 0.148-0.102c 0.671-0.87, 89.948-83.343, 90.691-83.896
	c 4.644-3.871, 7.101-6.523, 12.165-6.523c 5.12,0.00, 8.53,3.451, 12.216,6.625c 0.799,0.594, 89.871,82.949, 90.542,83.794l 0.102,0.102l0.00,0.026 
	c 1.838,2.381, 2.949,5.335, 2.949,8.617c0.00,7.721-6.252,13.993-14.008,13.993c-2.918,0.00-5.571-0.855-7.818-2.371l-0.102,0.087L 270.848,154.578
	l 0.031,168.847c0.00,0.00, 0.282,14.746-15.35,14.746C 239.918,338.171, 241.705,323.425, 241.705,323.425M 2.56,223.995C 2.56,84.244, 116.255-29.44, 256.005-29.44C 395.761-29.44, 509.44,84.244, 509.44,223.995C 509.44,363.72, 395.781,477.44, 256.005,477.44
	C 116.255,477.43, 2.56,363.72, 2.56,223.995 M 477.041,223.995c0.00-121.897-99.128-221.03-221.03-221.03c-121.876,0.00-221.061,99.133-221.061,221.03
	c0.00,121.876, 99.185,221.061, 221.061,221.061C 377.912,445.041, 477.041,345.871, 477.041,223.995" />
<glyph unicode="&#x68;" d="M 355.42,238.259L 186.179,238.285l 66.478,69.591l-0.087,0.189c 1.516,2.243, 2.371,4.92, 2.371,7.808
	c0.00,7.741-6.277,14.019-13.998,14.019c-3.282,0.00-6.236-1.121-8.617-2.99l-0.026-0.02l-0.102-0.148
	c-0.87-0.671-83.338-89.938-83.891-90.691c-3.871-4.639-6.528-7.101-6.528-12.165c0.00-5.12, 3.451-8.53, 6.63-12.216
	c 0.589-0.799, 82.949-89.871, 83.789-90.542l 0.102-0.102l 0.031,0.00 c 2.381-1.838, 5.33-2.949, 8.612-2.949c 7.721,0.00, 13.998,6.252, 13.998,14.008
	c0.00,2.918-0.855,5.571-2.365,7.818l 0.082,0.102L 186.578,209.111l 168.842-0.031c0.00,0.00, 14.751-0.282, 14.751,15.35
	C 370.171,240.046, 355.42,238.259, 355.42,238.259M 2.56,223.995C 2.56,84.244, 116.255-29.44, 256.005-29.44C 395.761-29.44, 509.44,84.244, 509.44,223.995C 509.44,363.72, 395.781,477.44, 256.005,477.44
	C 116.255,477.43, 2.56,363.72, 2.56,223.995 M 477.041,223.995c0.00-121.897-99.128-221.03-221.03-221.03c-121.876,0.00-221.061,99.133-221.061,221.03
	c0.00,121.876, 99.185,221.061, 221.061,221.061C 377.912,445.041, 477.041,345.871, 477.041,223.995" />
<glyph unicode="&#x45;" d="M 287.698,3.287l 0.026,375.634l 154.522-147.579l 0.41,0.20c 4.961-3.338, 10.916-5.263, 17.336-5.263c 17.167,0.00, 31.078,13.942, 31.078,31.073
	c0.00,7.281-2.478,13.891-6.615,19.128l-0.031,0.051l-0.328,0.22C 482.611,278.682, 284.421,461.742, 282.793,462.95
	c-10.307,8.602-15.759,14.50-27.003,14.50c-11.382,0.00-18.929-7.66-27.141-14.72C 226.862,461.409, 29.199,278.62, 27.709,276.751L 27.489,276.531l0.00-0.051 
	c-4.106-5.238-6.554-11.848-6.554-19.128c0.00-17.137, 13.885-31.073, 31.104-31.073c 6.451,0.00, 12.344,1.90, 17.331,5.263l 0.251-0.20L 222.976,378.04
	l-0.108-374.753c0.00,0.00-0.604-32.737, 34.053-32.737C 291.697-29.45, 287.698,3.287, 287.698,3.287" />
<glyph unicode="&#x46;" d="M 35.287,192.302l 375.634-0.026l-147.579-154.522l 0.20-0.41c-3.338-4.961-5.263-10.916-5.263-17.336c0.00-17.167, 13.942-31.078, 31.073-31.078
	c 7.281,0.00, 13.891,2.478, 19.128,6.615l 0.051,0.031l 0.22,0.328c 1.93,1.485, 184.991,199.675, 186.199,201.298
	c 8.602,10.307, 14.50,15.759, 14.50,27.003c0.00,11.382-7.66,18.929-14.72,27.141c-1.321,1.792-184.11,199.455-185.979,200.945L 308.531,452.516l-0.051,0.00 
	c-5.238,4.106-11.848,6.554-19.128,6.554c-17.137,0.00-31.073-13.885-31.073-31.104c0.00-6.451, 1.90-12.344, 5.263-17.331l-0.20-0.251L 410.04,257.024
	L 35.287,257.137c0.00,0.00-32.737,0.604-32.737-34.053C 2.555,188.303, 35.287,192.302, 35.287,192.302" />
<glyph unicode="&#x47;" d="M 224.302,444.713l-0.026-375.634l-154.522,147.579l-0.41-0.20c-4.961,3.338-10.916,5.263-17.336,5.263
	c-17.167,0.00-31.078-13.942-31.078-31.073c0.00-7.281, 2.478-13.891, 6.615-19.128l 0.031-0.051l 0.328-0.22C 29.389,169.318, 227.579-13.742, 229.207-14.95
	c 10.307-8.602, 15.759-14.50, 27.003-14.50c 11.382,0.00, 18.929,7.66, 27.141,14.72c 1.792,1.321, 199.455,184.11, 200.945,185.979l 0.22,0.22l0.00,0.051 
	c 4.106,5.238, 6.554,11.848, 6.554,19.128c0.00,17.137-13.885,31.073-31.104,31.073c-6.451,0.00-12.344-1.90-17.331-5.263l-0.251,0.20L 289.024,69.96
	l 0.108,374.753c0.00,0.00, 0.604,32.737-34.053,32.737C 220.303,477.445, 224.302,444.713, 224.302,444.713" />
<glyph unicode="&#x48;" d="M 476.713,255.698l-375.634,0.026l 147.579,154.522l-0.20,0.41c 3.338,4.961, 5.263,10.916, 5.263,17.336c0.00,17.167-13.942,31.078-31.073,31.078
	c-7.281,0.00-13.891-2.478-19.128-6.615l-0.051-0.031L 203.249,452.096C 201.318,450.611, 18.263,252.421, 17.055,250.793
	c-8.602-10.307-14.50-15.759-14.50-27.003c0.00-11.382, 7.66-18.929, 14.72-27.141c 1.321-1.792, 184.11-199.455, 185.979-200.945l 0.22-0.22l 0.051,0.00 
	c 5.238-4.106, 11.848-6.554, 19.128-6.554c 17.137,0.00, 31.073,13.885, 31.073,31.104c0.00,6.451-1.90,12.344-5.263,17.331l 0.20,0.251L 101.965,190.976
	l 374.753-0.108c0.00,0.00, 32.737-0.604, 32.737,34.058C 509.45,259.697, 476.713,255.698, 476.713,255.698" />
<glyph unicode="&#x22;" d="M 214.825-32.00L 2.56-32.00 L 2.56,117.601 c 1.172,60.298, 2.35,121.492, 60.329,172.416c 45.261,41.549, 97.423,49.843, 151.936,58.163l0.00-92.442 
	c-69.576-19.738-70.661-59.151-71.839-92.375l 71.839,0.00 L 214.825-32.00 z M 509.44-32.00L 298.322-32.00 L 298.322,117.601 c 1.208,60.298, 2.324,121.492, 59.187,172.416
	c 46.377,41.549, 98.601,49.843, 151.936,58.163l0.00-92.442 c-69.55-19.738-70.723-59.151-71.931-92.375L 509.44,163.364 L 509.44-32.00 z" />
<glyph unicode="&#x27;" d="M 509.44,408.945C 509.44,445.471, 480.236,477.44, 444.206,477.44L 67.82,477.44 C 31.785,477.44, 2.56,445.471, 2.56,408.945l0.00-374.615 
	C 2.56-2.156, 31.785-29.44, 67.82-29.44l 376.387,0.00 c 36.029,0.00, 65.234,27.284, 65.234,63.816L 509.44,408.945 z M 234.88,288.804
	C 171.52,274.898, 182.907,252.155, 182.185,224.00l 52.695,0.00 l0.00-147.84 L 87.04,76.16 L 87.04,191.391 c0.00,42.491, 8.376,85.699, 44.984,121.585
	c 28.57,29.292, 60.616,35.164, 102.856,41.047L 234.88,288.804 z M 424.96,288.804C 368.635,274.898, 368.983,252.155, 368.241,224.00L 424.96,224.00 l0.00-147.84 L 277.12,76.16 L 277.12,191.391 
	c0.00,42.491, 8.745,85.699, 44.631,121.585C 351.078,342.267, 396.805,348.14, 424.96,354.022L 424.96,288.804 z" />
<glyph unicode="&#x38;" d="M 230.18,462.802c 14.213-10.24, 37.407-10.24, 51.651,0.00l 12.78,9.175c 14.198,10.194, 32.266,5.709, 40.141-9.979l 7.071-14.08
	c 7.839-15.713, 28.462-26.604, 45.742-24.192l 15.529,2.166c 17.311,2.381, 31.232-10.035, 30.95-27.612l-0.246-15.764
	c-0.282-17.603, 12.913-36.844, 29.373-42.813l 14.71-5.386c 16.476-5.97, 23.05-23.465, 14.679-38.922l-7.537-13.829
	c-8.351-15.437-5.535-38.671, 6.267-51.666l 10.578-11.628c 11.791-12.964, 9.559-31.555-4.997-41.313l-13.025-8.776
	c-14.541-9.723-22.769-31.616-18.33-48.614l 4.019-15.268c 4.408-16.998-6.154-32.42-23.496-34.243l-15.606-1.669
	c-17.341-1.823-34.76-17.341-38.661-34.478l-3.523-15.375c-3.886-17.142-20.372-25.851-36.598-19.348l-14.602,5.816
	c-16.21,6.508-38.779,0.927-50.181-12.442l-10.179-11.971c-11.372-13.363-29.972-13.363-41.344,0.00l-10.179,11.971
	c-11.387,13.363-33.971,18.949-50.181,12.442l-14.587-5.816c-16.241-6.502-32.701,2.212-36.613,19.348l-3.512,15.375
	c-3.948,17.142-21.345,32.655-38.702,34.478l-15.621,1.669c-17.326,1.823-27.904,17.244-23.465,34.243l 3.994,15.268
	c 4.454,16.998-3.773,38.892-18.314,48.614l-13.041,8.776c-14.541,9.759-16.783,28.349-4.997,41.313l 10.552,11.628
	c 11.837,12.995, 14.633,36.229, 6.292,51.666l-7.532,13.829c-8.402,15.457-1.777,32.952, 14.648,38.922l 14.74,5.386
	c 16.445,5.97, 29.655,25.211, 29.373,42.813l-0.246,15.764c-0.307,17.572, 13.629,29.993, 30.935,27.612l 15.529-2.166
	c 17.295-2.396, 37.883,8.479, 45.742,24.192l 7.081,14.08c 7.875,15.683, 25.912,20.168, 40.172,9.979L 230.18,462.802z" />
<glyph unicode="&#x2a;" d="M 271.053,213.094L 271.053,153.702 l 75.064,0.00 L 346.117,231.255 l-25.585,0.00 c 0.404,13.21, 0.84,28.851, 25.585,36.68L 346.117,304.64 c-18.98-3.308-37.509-6.589-54.031-23.112
	C 271.877,261.33, 271.483,236.995, 271.053,213.094zM 165.883,213.094L 165.883,153.702 l 75.489,0.00 L 241.372,231.255 l-25.554,0.00 c 0.404,13.21, 0.804,28.851, 25.554,36.68L 241.372,304.64 c-19.384-3.308-37.96-6.589-54.016-23.112
	C 166.717,261.33, 166.313,236.995, 165.883,213.094zM 509.44,224.02c0.00,12.39-9.544,21.965-22.246,30.469c 10.086,11.51, 16.829,23.235, 13.594,35.205c-3.077,11.54-14.09,18.284-27.868,23.158
	c 6.385,13.128, 9.508,25.646, 3.599,36.024c-6.554,11.628-21.094,14.863-36.352,15.744c 3.338,15.575, 3.871,29.732-4.951,38.579
	c-4.884,4.92-11.694,7.286-20.792,7.286c-5.258,0.00-11.044-0.916-17.044-2.181c-0.865,15.59-4.116,29.082-14.74,35.19
	c-3.517,2.038-7.593,3.082-12.063,3.082c-7.567,0.00-15.764-2.908-24.381-7.163c-4.705,14.172-11.187,25.667-22.60,28.82
	c-1.951,0.538-3.948,0.804-6.001,0.804c-10.148,0.00-20.05-6.502-30.07-15.498c-8.76,13.486-18.611,23.88-31.524,23.88
	c-12.411,0.00-21.985-9.559-30.49-22.277c-9.513,8.325-19.231,14.418-29.082,14.418c-2.089,0.00-4.132-0.282-6.124-0.804
	c-11.556-3.092-18.304-14.09-23.158-27.858c-8.243,4.004-16.225,6.728-23.588,6.728c-4.608,0.00-8.801-1.05-12.467-3.154
	c-11.244-6.308-14.694-20.234-15.672-36.291c-6.292,1.362-12.375,2.319-17.884,2.319c-9.068,0.00-15.872-2.381-20.741-7.286
	c-8.678-8.678-8.32-22.508-5.12-37.791c-15.498-0.804-28.974-3.988-35.205-14.756c-5.908-10.271-2.458-23.02, 4.147-36.444
	c-14.198-4.70-25.697-11.187-28.867-22.60c-3.323-12.052, 4.122-24.115, 14.725-36.055C 12.964,246.804, 2.56,236.948, 2.56,224.02
	c0.00-12.411, 9.549-22.001, 22.252-30.49c-10.056-11.494-16.809-23.235-13.604-35.205c 3.103-11.556, 14.116-18.299, 27.868-23.158
	c-6.374-13.128-9.498-25.646-3.604-36.055c 6.589-11.617, 21.10-14.863, 36.352-15.729c-3.343-15.596-3.85-29.752, 4.931-38.564
	c 4.905-4.905, 11.694-7.27, 20.762-7.27c 5.258,0.00, 11.075,0.896, 17.091,2.166c 0.85-15.606, 4.132-29.082, 14.74-35.205
	c 3.543-2.058, 7.593-3.092, 12.063-3.092c 7.578,0.00, 15.78,2.924, 24.376,7.178c 4.716-14.188, 11.203-25.682, 22.615-28.851
	c 1.935-0.527, 3.948-0.804, 5.985-0.804c 10.132,0.00, 20.035,6.508, 30.09,15.498c 8.755-13.476, 18.591-23.854, 31.488-23.854
	c 12.406,0.00, 22.001,9.559, 30.505,22.262c 9.528-8.305, 19.215-14.372, 29.082-14.372l0.00,0.00c 2.074,0.00, 4.147,0.251, 6.124,0.773
	c 11.54,3.108, 18.253,14.106, 23.148,27.889c 8.259-4.004, 16.241-6.758, 23.603-6.758c 4.603,0.00, 8.801,1.05, 12.467,3.154
	c 11.228,6.354, 14.679,20.265, 15.642,36.352c 6.292-1.362, 12.375-2.319, 17.864-2.319c 9.078,0.00, 15.872,2.381, 20.777,7.27
	c 8.658,8.663, 8.305,22.508, 5.089,37.775c 15.514,0.804, 28.984,3.973, 35.22,14.792c 5.924,10.286, 2.458,23.045-4.132,36.454
	c 14.198,4.705, 25.682,11.187, 28.836,22.584c 3.338,12.022-4.132,24.115-14.746,36.06C 499.016,201.236, 509.44,211.098, 509.44,224.02z M 498.181,224.02
	c0.00-8.356-8.893-15.98-20.50-23.25c-2.801,2.831-5.647,5.647-8.52,8.443c-4.675,4.567-9.359,9.155-13.583,13.691
	c 4.04,4.173, 8.479,8.417, 12.872,12.636c 3.702,3.528, 7.393,7.071, 10.941,10.66C 490.163,239.268, 498.181,231.997, 498.181,224.02z
	 M 449.019,150.467c 1.951-3.236, 3.896-6.482, 5.786-9.702c-3.62-0.911-7.301-1.797-10.988-2.673c-5.688-1.347-11.274-2.688-16.609-4.147
	c-1.239,7.537-1.423,14.188, 0.584,18.949c 1.823,4.388, 6.359,8.673, 12.237,12.856C 442.829,160.748, 445.88,155.643, 449.019,150.467z
	 M 417.372,157.194c-3.082-7.439-2.816-16.568-1.019-26.624c-9.62-3.384-17.731-7.67-22.661-14.024c-4.536-5.791-6.605-13.896-7.537-23.204
	c-9.277-0.947-17.603-3.123-23.788-7.859c-6.108-4.70-10.255-12.559-13.563-21.949c-10.107,1.674-19.261,1.905-25.974-0.881
	c-7.363-3.062-13.578-9.928-19.395-18.56c-9.359,4.654-18.161,7.578-26.051,6.605c-7.552-0.947-14.94-5.187-22.364-11.156
	c-7.24,6.021-14.418,10.337-21.734,11.29c-1.172,0.154-2.401,0.251-3.635,0.251c-6.84,0.00-14.157-2.335-21.811-5.878
	c-5.601,8.105-11.587,14.51-18.657,17.449c-3.855,1.582-8.228,2.35-13.46,2.35c-4.111,0.00-8.566-0.584-13.133-1.388
	c-3.389,9.651-7.675,17.756-14.029,22.738c-5.816,4.547-14.188,6.497-23.327,7.409c-0.963,9.539-3.092,17.833-7.767,23.895
	c-4.675,6.067-12.406,10.179-21.688,13.491c 1.684,9.841, 1.889,18.749-1.147,26.051c-3.077,7.393-9.928,13.594-18.56,19.395
	c 4.639,9.313, 7.567,18.115, 6.589,26.035c-0.896,7.567-5.151,14.961-11.121,22.40c 6.016,7.24, 10.348,14.413, 11.295,21.729
	c 1.039,7.844-1.469,16.399-5.647,25.431c 8.105,5.617, 14.505,11.607, 17.464,18.657c 3.082,7.46, 2.816,16.584, 1.004,26.639
	c 9.636,3.384, 17.725,7.67, 22.676,14.013c 4.516,5.77, 6.589,13.891, 7.532,23.199c 9.283,0.963, 17.618,3.108, 23.777,7.859
	c 6.129,4.70, 10.271,12.524, 13.583,21.929c 10.102-1.654, 19.241-1.884, 25.943,0.916c 7.373,3.046, 13.594,9.917, 19.41,18.56
	c 9.375-4.669, 18.176-7.593, 26.035-6.605c 7.567,0.932, 14.925,5.187, 22.364,11.156c 7.24-6.021, 14.403-10.348, 21.734-11.29
	c 7.706-1.039, 16.307,1.464, 25.40,5.673c 5.601-8.136, 11.617-14.541, 18.683-17.48c 6.84-2.847, 16.195-2.55, 26.563-0.788
	c 3.389-9.743, 7.69-17.925, 14.075-22.922c 5.908-4.593, 14.095-6.687, 23.311-7.593c 0.973-9.472, 3.123-17.679, 7.752-23.731
	c 4.675-6.067, 12.442-10.179, 21.719-13.491c-1.684-9.82-1.884-18.729, 1.132-26.051c 3.062-7.363, 9.917-13.578, 18.545-19.364
	c-4.639-9.324-7.567-18.115-6.574-26.051c 0.932-7.547, 5.171-14.956, 11.141-22.38c-6.036-7.24-10.348-14.433-11.325-21.734
	c-1.019-7.839, 1.485-16.394, 5.663-25.431C 426.732,170.266, 420.296,164.265, 417.372,157.194z M 423.357,102.943
	c 0.916-3.108, 1.812-6.236, 2.662-9.308c-3.231,0.031-6.467,0.061-9.728,0.123c-6.246,0.133-12.575,0.292-18.729,0.169
	c 0.788,6.62, 2.243,12.186, 4.997,15.698c 3.169,4.081, 9.052,7.219, 16.21,9.851C 420.142,114.115, 421.729,108.59, 423.357,102.943z
	 M 385.567,64.348c 0.067-3.369, 0.108-6.758, 0.123-10.102c-2.877,0.758-5.755,1.567-8.617,2.417c-5.709,1.654-11.494,3.246-17.142,4.608
	c 2.519,6.82, 5.489,12.39, 9.277,15.293c 3.82,2.939, 9.728,4.424, 16.323,5.228C 385.444,76.17, 385.475,70.354, 385.567,64.348z M 338.109,23.70
	c-3.901,2.289-7.859,4.669-11.771,7.117c-4.393,2.739-8.74,5.432-12.995,7.921c 4.485,6.528, 9.078,11.556, 13.793,13.522
	c 4.255,1.797, 10.783,1.638, 18.268,0.481c-1.388-5.059-2.662-10.348-3.958-15.729C 340.372,32.522, 339.287,28.063, 338.109,23.70z
	 M 284.155,10.598c-2.847,2.862-5.658,5.801-8.474,8.74c-4.116,4.332-8.156,8.535-12.191,12.467c 5.417,4.147, 10.578,7.117, 15.278,7.706
	c 5.171,0.584, 11.633-1.551, 18.673-4.982c-2.458-4.27-4.936-8.755-7.393-13.307C 288.102,17.669, 286.136,14.111, 284.155,10.598z M 226.877,12.344
	c-1.654,2.939-3.282,5.908-4.905,8.893c-2.688,4.966-5.381,9.825-8.074,14.418c 6.656,2.949, 12.795,4.716, 17.915,4.019
	c 4.454-0.589, 9.421-3.543, 14.633-7.721c-4.393-4.132-8.791-8.602-13.307-13.21C 231.066,16.584, 228.966,14.464, 226.877,12.344z M 170.061,36.183
	c-1.331,5.647-2.647,11.187-4.086,16.456c 7.767,1.254, 14.51,1.439, 18.903-0.399c 4.388-1.812, 8.658-6.359, 12.856-12.237
	c-4.972-2.785-10.071-5.852-15.252-8.991c-3.231-1.961-6.497-3.881-9.743-5.75C 171.822,28.867, 170.957,32.522, 170.061,36.183z
	 M 125.788,82.463c 6.513-0.773, 12.252-2.212, 15.841-4.997c 4.086-3.185, 7.224-9.068, 9.871-16.246c-5.473-1.388-11.044-2.949-16.553-4.547
	c-3.123-0.901-6.246-1.766-9.344-2.586c 0.031,3.19, 0.077,6.39, 0.138,9.605C 125.865,70.17, 125.911,76.416, 125.788,82.463z
	 M 93.399,120.054c 6.743-2.519, 12.252-5.458, 15.16-9.236c 2.908-3.773, 4.424-9.559, 5.258-16.348c-1.823,0.031-3.62,0.138-5.473,0.138
	c-3.896,0.00-7.951-0.082-11.971-0.154c-3.374-0.051-6.789-0.097-10.179-0.108c 0.804,2.862, 1.638,5.74, 2.473,8.617
	C 90.363,108.78, 91.991,114.499, 93.399,120.054z M 70.717,166.661c 6.528-4.47, 11.571-9.068, 13.537-13.793
	c 1.92-4.644, 1.797-11.059, 0.65-18.314c-5.12,1.403-10.47,2.703-15.918,4.019c-4.50,1.085-8.97,2.181-13.363,3.338
	c 2.324,3.917, 4.751,7.859, 7.178,11.791C 65.521,158.09, 68.244,162.422, 70.717,166.661z M 63.805,216.53
	c 4.157-5.396, 7.117-10.578, 7.70-15.263c 0.604-5.089-1.50-11.556-4.982-18.668c-4.255,2.473-8.724,4.90-13.271,7.373
	C 49.654,191.933, 46.08,193.90, 42.583,195.896c 2.862,2.816, 5.816,5.632, 8.755,8.443C 55.67,208.471, 59.878,212.526, 63.805,216.53z M 50.734,246.866
	c-2.15,2.089-4.285,4.188-6.40,6.292c 2.954,1.638, 5.939,3.282, 8.909,4.905c 4.915,2.673, 9.759,5.32, 14.321,7.997
	c 2.97-6.712, 4.767-12.902, 4.101-17.864c-0.589-4.439-3.543-9.405-7.721-14.618C 59.817,237.972, 55.347,242.381, 50.734,246.866z M 63.017,297.60
	c-1.966,3.236-3.912,6.487-5.801,9.702c 3.635,0.916, 7.301,1.797, 10.998,2.662c 5.693,1.362, 11.279,2.688, 16.614,4.147
	c 1.239-7.516, 1.408-14.172-0.558-18.944c-1.823-4.408-6.374-8.678-12.252-12.856C 69.233,287.314, 66.14,292.388, 63.017,297.60z
	 M 88.663,345.088c-0.896,3.108-1.812,6.221-2.662,9.324c 3.215-0.031, 6.436-0.061, 9.713-0.118c 6.252-0.154, 12.559-0.282, 18.749-0.184
	c-0.804-6.589-2.258-12.191-5.028-15.698c-3.139-4.101-9.016-7.209-16.195-9.841C 91.884,333.937, 90.286,339.476, 88.663,345.088z
	 M 126.438,383.683c-0.046,3.369-0.092,6.738-0.108,10.086c 2.862-0.748, 5.74-1.567, 8.602-2.401c 5.709-1.654, 11.494-3.251, 17.157-4.608
	c-2.54-6.82-5.509-12.375-9.277-15.293c-3.84-2.939-9.743-4.424-16.333-5.228C 126.577,371.866, 126.546,377.682, 126.438,383.683z
	 M 173.911,424.351c 3.932-2.304, 7.875-4.69, 11.791-7.132c 4.403-2.724, 8.74-5.417, 12.974-7.905c-4.485-6.528-9.068-11.587-13.793-13.537
	c-4.27-1.766-10.783-1.608-18.253-0.451c 1.377,5.059, 2.662,10.322, 3.958,15.713C 171.638,415.514, 172.749,420.004, 173.911,424.351z
	 M 227.85,437.422c 2.847-2.877, 5.688-5.786, 8.509-8.755c 4.111-4.316, 8.151-8.54, 12.17-12.472c-5.396-4.147-10.578-7.101-15.278-7.685
	c-5.228-0.573-11.679,1.562-18.668,4.966c 2.473,4.27, 4.915,8.755, 7.388,13.307C 223.918,430.367, 225.869,433.925, 227.85,437.422z M 285.143,435.692
	c 1.638-2.939, 3.282-5.924, 4.905-8.909c 2.688-4.951, 5.35-9.81, 8.059-14.403c-6.687-2.985-12.872-4.746-17.915-4.004
	c-4.439,0.589-9.405,3.543-14.602,7.706c 4.362,4.147, 8.786,8.602, 13.271,13.21C 280.94,431.452, 283.039,433.587, 285.143,435.692z M 341.944,411.848
	c 1.331-5.617, 2.662-11.151, 4.086-16.425c-7.767-1.254-14.51-1.454-18.903,0.353c-4.388,1.823-8.673,6.369-12.872,12.268
	c 5.012,2.77, 10.132,5.832, 15.314,8.991c 3.22,1.961, 6.467,3.896, 9.713,5.75C 340.198,419.164, 341.094,415.514, 341.944,411.848z
	 M 386.217,365.568c-6.497,0.773-12.252,2.212-15.841,4.997c-4.081,3.185-7.204,9.108-9.866,16.323c 5.458,1.316, 11.039,2.862, 16.548,4.47
	c 3.123,0.896, 6.236,1.766, 9.339,2.601c-0.031-3.205-0.077-6.42-0.148-9.626C 386.125,377.866, 386.094,371.615, 386.217,365.568z
	 M 418.642,327.997c-6.774,2.524-12.268,5.463-15.191,9.252c-2.877,3.743-4.393,9.498-5.228,16.246c 5.724-0.097, 11.602,0.00, 17.418,0.108
	c 3.40,0.046, 6.804,0.092, 10.173,0.108c-0.804-2.877-1.638-5.74-2.458-8.617C 421.668,339.261, 420.029,333.537, 418.642,327.997z
	 M 441.283,281.375c-6.513,4.47-11.54,9.052-13.522,13.783c-1.92,4.623-1.797,11.059-0.65,18.309c 5.105-1.403, 10.455-2.703, 15.898-4.004
	c 4.49-1.096, 9.006-2.196, 13.379-3.354c-2.304-3.901-4.746-7.844-7.188-11.771C 446.464,289.946, 443.776,285.614, 441.283,281.375z M 448.215,231.506
	c-4.173,5.402-7.148,10.563-7.721,15.263c-0.62,5.089, 1.516,11.556, 4.966,18.688c 4.285-2.458, 8.755-4.92, 13.307-7.393
	c 3.604-1.951, 7.173-3.932, 10.67-5.908c-2.877-2.816-5.801-5.647-8.755-8.458C 456.351,239.58, 452.147,235.525, 448.215,231.506z
	 M 440.325,199.823c 0.589,4.454, 3.574,9.405, 7.736,14.618c 4.147-4.393, 8.602-8.806, 13.21-13.276c 2.166-2.084, 4.301-4.188, 6.405-6.292
	c-2.97-1.638-5.924-3.297-8.909-4.905c-4.92-2.673-9.728-5.32-14.31-7.997C 441.472,188.692, 439.675,194.847, 440.325,199.823z M 489.923,286.792
	c 2.038-7.675-3.809-16.799-12.411-26.296c-4.362,2.534-8.847,5.038-13.332,7.485c-4.506,2.447-9.021,4.92-13.307,7.424
	c 2.473,4.285, 5.197,8.658, 7.89,12.995c 2.985,4.797, 5.97,9.62, 8.755,14.444C 478.981,298.982, 487.941,294.118, 489.923,286.792z
	 M 466.714,343.373c 3.743-6.625, 0.788-16.333-4.705-27.136c-5.35,1.485-10.854,2.847-16.328,4.178c-5.509,1.331-11.044,2.662-16.292,4.147
	c 1.388,5.658, 3.077,11.54, 4.767,17.388c 1.132,3.866, 2.243,7.736, 3.282,11.571C 451.00,352.952, 462.572,350.735, 466.714,343.373z
	 M 427.269,395.254c 5.571-5.601, 4.552-17.111, 1.469-30.305c-0.384,0.00-0.788,0.015-1.188,0.015c-3.973,0.00-8.028-0.061-12.078-0.133
	c-3.958-0.082-7.921-0.138-11.807-0.138c-2.053,0.00-4.147,0.061-6.252,0.138c-0.154,6.185-0.031,12.744, 0.097,19.256
	c 0.077,4.204, 0.138,8.387, 0.154,12.559C 410.936,399.447, 422.349,400.169, 427.269,395.254z M 377.032,433.772c 6.697-3.866, 8.74-14.909, 9.221-28.119
	c-4.086-1.101-8.228-2.273-12.314-3.466c-5.601-1.623-11.31-3.19-16.829-4.521c-1.485,5.417-2.862,11.11-4.224,16.783
	c-1.096,4.654-2.243,9.324-3.43,13.906C 360.724,434.048, 370.872,437.325, 377.032,433.772z M 320.568,457.405c 7.173-1.981, 11.863-11.402, 15.59-23.357
	c-4.086-2.319-8.228-4.828-12.436-7.393c-5.217-3.154-10.44-6.323-15.529-9.19c-2.785,4.705-5.54,9.713-8.243,14.71
	c-2.12,3.886-4.255,7.752-6.451,11.556C 303.519,452.905, 313.078,459.479, 320.568,457.405z M 256.005,466.191c 8.351,0.00, 15.959-8.893, 23.229-20.48
	c-2.785-2.785-5.601-5.617-8.443-8.535c-4.531-4.675-9.124-9.375-13.66-13.599c-4.188,4.04-8.428,8.458-12.621,12.872
	c-3.543,3.717-7.086,7.409-10.66,10.988C 240.763,458.179, 248.033,466.191, 256.005,466.191z M 193.244,457.928c 7.537,1.997, 16.691-3.866, 26.266-12.467
	c-2.519-4.332-4.997-8.822-7.419-13.292c-2.458-4.50-4.936-9.016-7.444-13.317c-4.265,2.504-8.632,5.228-12.989,7.921
	c-4.797,2.985-9.626,5.97-14.433,8.755C 181.043,446.996, 185.902,455.936, 193.244,457.928z M 136.648,434.698c 6.344,3.635, 16.179,0.645, 27.10-4.797
	c-1.454-5.294-2.78-10.772-4.111-16.215c-1.30-5.473-2.662-10.952-4.116-16.148c-5.693,1.336-11.633,2.954-17.449,4.644
	c-3.82,1.096-7.685,2.196-11.54,3.277C 127.135,419.118, 129.377,430.612, 136.648,434.698z M 84.767,395.254
	c 5.012,5.012, 16.753,4.157, 30.336,1.249c-0.015-4.332, 0.031-8.673, 0.108-13.041c 0.092-6.083, 0.169-12.191, 0.031-17.992
	c-2.043-0.046-4.086-0.133-6.083-0.133c-4.347,0.00-8.801,0.092-13.21,0.20c-4.285,0.077-8.571,0.138-12.82,0.154
	C 80.174,378.578, 79.288,389.745, 84.767,395.254z M 46.249,345.047c 3.958,6.82, 15.621,8.771, 28.124,9.252
	c 1.111-4.116, 2.258-8.228, 3.466-12.344c 1.638-5.632, 3.277-11.31, 4.639-16.799c-5.443-1.485-11.172-2.888-16.891-4.234
	c-4.70-1.116-9.405-2.258-14.044-3.487C 45.819,328.571, 42.522,338.596, 46.249,345.047z M 22.605,288.614c 1.981,7.173, 11.438,11.848, 23.398,15.575
	c 2.381-4.157, 4.859-8.305, 7.363-12.436c 3.154-5.217, 6.308-10.455, 9.129-15.575c-4.69-2.77-9.687-5.509-14.648-8.212
	c-3.881-2.12-7.752-4.285-11.556-6.451C 27.10,271.503, 20.516,281.006, 22.605,288.614z M 13.834,224.02c0.00,8.366, 8.888,15.959, 20.506,23.229
	c 2.78-2.816, 5.647-5.647, 8.535-8.443c 4.639-4.562, 9.344-9.155, 13.583-13.691c-4.04-4.173-8.479-8.428-12.872-12.621
	c-3.712-3.543-7.409-7.101-10.952-10.675C 21.832,208.794, 13.834,216.064, 13.834,224.02z M 22.103,161.28c-2.058,7.67, 3.789,16.778, 12.39,26.281
	c 4.362-2.524, 8.863-5.028, 13.348-7.455c 4.50-2.458, 9.016-4.936, 13.302-7.444c-2.488-4.28-5.212-8.632-7.921-12.974
	c-2.985-4.808-5.955-9.636-8.74-14.449C 33.039,149.059, 24.084,153.902, 22.103,161.28z M 45.292,104.663c-3.743,6.62-0.758,16.333, 4.70,27.10
	c 5.35-1.454, 10.829-2.816, 16.333-4.147c 5.509-1.30, 11.044-2.662, 16.271-4.152c-1.393-5.658-3.077-11.535-4.797-17.388
	c-1.111-3.866-2.212-7.736-3.246-11.571C 61.02,95.089, 49.469,97.30, 45.292,104.663z M 84.767,52.782
	c-5.596,5.601-4.562,17.111-1.485,30.29c 0.374,0.00, 0.773-0.015, 1.147-0.015c 3.994,0.00, 8.074,0.077, 12.129,0.154
	c 3.958,0.061, 7.921,0.118, 11.786,0.118c 2.043,0.00, 4.157-0.061, 6.252-0.118c 0.154-6.205, 0.046-12.749-0.077-19.261
	c-0.092-4.209-0.138-8.402-0.169-12.544C 101.069,48.604, 89.656,47.892, 84.767,52.782z M 135.009,14.264
	c-6.712,3.866-8.755,14.894-9.267,28.104c 4.101,1.116, 8.243,2.273, 12.36,3.482c 5.596,1.623, 11.29,3.19, 16.814,4.506
	c 1.50-5.417, 2.862-11.126, 4.224-16.799c 1.096-4.654, 2.243-9.293, 3.43-13.86C 151.281,13.998, 141.133,10.721, 135.009,14.264z M 191.437-9.37
	c-7.173,1.981-11.848,11.402-15.56,23.342c 4.07,2.335, 8.228,4.874, 12.436,7.409c 5.202,3.154, 10.429,6.323, 15.498,9.175
	c 2.785-4.69, 5.54-9.702, 8.259-14.679c 2.12-3.886, 4.255-7.736, 6.436-11.54C 208.517-4.884, 198.938-11.474, 191.437-9.37z
	 M 256.005-18.156c-8.387,0.00-15.98,8.888-23.235,20.48c 2.816,2.785, 5.601,5.617, 8.458,8.535c 4.552,4.675, 9.139,9.375, 13.66,13.599
	c 4.188-4.04, 8.443-8.479, 12.652-12.887c 3.517-3.702, 7.055-7.393, 10.629-10.957C 271.227-10.143, 263.956-18.156, 256.005-18.156z
	 M 318.776-9.882c-7.537-2.104-16.707,3.773-26.266,12.421c 2.534,4.362, 4.997,8.832, 7.439,13.322c 2.458,4.50, 4.936,9.016, 7.424,13.302
	c 4.285-2.488, 8.643-5.212, 13.01-7.921c 4.797-2.985, 9.62-5.955, 14.413-8.724C 330.982,1.055, 326.134-7.90, 318.776-9.882z
	 M 375.373,13.307c-6.328-3.574-16.164-0.604-27.105,4.859c 1.469,5.289, 2.836,10.767, 4.132,16.21c 1.336,5.473, 2.668,10.952, 4.116,16.148
	c 5.693-1.331, 11.622-2.97, 17.434-4.644c 3.835-1.111, 7.69-2.227, 11.556-3.277C 384.886,28.913, 382.659,17.418, 375.373,13.307z M 427.269,52.782
	c-4.997-4.982-16.768-4.173-30.351-1.249c 0.015,4.316-0.015,8.658-0.092,13.025c-0.097,6.077-0.189,12.186-0.036,17.992
	c 2.043,0.046, 4.086,0.118, 6.093,0.118c 4.337,0.00, 8.755-0.092, 13.21-0.184c 4.27-0.077, 8.571-0.138, 12.81-0.154
	C 431.852,69.453, 432.732,58.255, 427.269,52.782z M 465.756,102.989c-3.917-6.835-15.59-8.771-28.119-9.252
	c-1.101,4.101-2.273,8.228-3.466,12.36c-1.623,5.632-3.251,11.31-4.608,16.783c 5.443,1.516, 11.172,2.908, 16.876,4.239
	c 4.705,1.111, 9.421,2.268, 14.029,3.497C 466.207,119.465, 469.484,109.46, 465.756,102.989z M 489.421,159.421
	c-2.012-7.173-11.443-11.848-23.414-15.56c-2.355,4.147-4.859,8.289-7.363,12.452c-3.154,5.217-6.282,10.445-9.124,15.549
	c 4.70,2.78, 9.667,5.519, 14.664,8.243c 3.866,2.115, 7.731,4.25, 11.556,6.415C 484.92,176.558, 491.51,167.03, 489.421,159.421z" />
<glyph unicode="&#x78;" d="M 311.357,223.995l 169.59,188.846c 10.491,11.633, 9.605,29.604-2.028,40.197l-19.011,17.029
		c-11.628,10.593-29.599,9.651-40.09-1.981L 256.02,285.573L 92.221,468.081c-10.547,11.587-28.488,12.477-40.146,1.981L 33.065,452.931
		c-11.607-10.491-12.518-28.462-2.028-40.095l 169.636-188.846L 31.037,35.149c-10.491-11.587-9.58-29.604, 2.028-40.10l 18.959-17.126
		c 11.607-10.593, 29.599-9.605, 40.146,1.981l 163.743,182.559l 163.85-182.559c 10.491-11.587, 28.508-12.472, 40.095-1.981l 19.005,17.126
		c 11.581,10.496, 12.524,28.513, 2.028,40.10L 311.357,223.995z" />
<glyph unicode="&#x2f;" d="M 256.00,477.44C 116.029,477.44, 2.56,363.971, 2.56,224.00c0.00-139.965, 113.469-253.44, 253.44-253.44c 139.976,0.00, 253.44,113.469, 253.44,253.44
		C 509.44,363.971, 395.976,477.44, 256.00,477.44z M 66.883,224.00C 66.883,328.448, 151.557,413.123, 256.00,413.123c 44.017,0.00, 84.485-15.078, 116.613-40.294L 107.172,107.392
		C 81.961,139.52, 66.883,179.978, 66.883,224.00z M 256.00,34.877c-38.369,0.00-74.045,11.459-103.859,31.089l 261.883,261.888
		c 19.635-29.814, 31.089-65.495, 31.089-103.864C 445.117,119.552, 360.443,34.877, 256.00,34.877z" />
<glyph unicode="&#x6c;" d="M 379.197,270.756L 379.197,359.619 c0.00,0.00-2.145,117.821-124.273,117.821c-122.122,0.00-122.122-124.257-122.122-124.257l0.00-82.33 l-51.948-9.923l0.00-259.425 
	L 254.802-29.44l 176.338,30.904L 431.14,260.961 L 379.197,270.756z M 254.925,430.321c 83.528,0.00, 83.528-77.133, 83.528-77.133l0.00-74.767 l-83.656,15.80
	l-74.875-14.341L 179.922,353.183 C 179.927,353.183, 171.402,430.321, 254.925,430.321z M 405.448,23.066l-150.62-26.404l-148.25,26.373L 106.578,239.672 l 148.25,28.396
	l 150.62-28.421L 405.448,23.066 zM 291.43,63.928l-19.436,76.104c 8.218,5.279, 13.686,14.474, 13.686,24.965c0.00,16.43-13.297,29.696-29.681,29.696
	c-16.399,0.00-29.706-13.266-29.706-29.696c0.00-10.266, 5.238-19.308, 13.179-24.632l-18.918-76.426L 291.43,63.939 L 291.43,63.928 z" />
<glyph unicode="&#x34;" d="M 301.706,239.037L 210.294,239.037 c-15.324,0.00-27.786,12.483-27.786,27.786L 182.508,358.246 c-0.02,15.329, 12.442,27.791, 27.786,27.791l 91.412,0.00 
		c 15.304,0.00, 27.786-12.462, 27.786-27.791l0.00-91.407 C 329.508,251.515, 317.03,239.037, 301.706,239.037z M 210.294,376.125
		c-9.866,0.00-17.894-8.028-17.894-17.879l0.00-91.407 c0.00-9.871, 8.028-17.879, 17.894-17.879l 91.412,0.00 c 9.866,0.00, 17.879,8.008, 17.879,17.879L 319.585,358.246 
		c0.00,9.851-8.013,17.879-17.879,17.879L 210.294,376.125 zM 301.706,61.967L 210.294,61.967 c-15.324,0.00-27.786,12.467-27.786,27.791L 182.508,181.161 c0.00,15.304, 12.462,27.786, 27.786,27.786l 91.412,0.00 
		c 15.324,0.00, 27.807-12.483, 27.807-27.786L 329.513,89.754 C 329.508,74.409, 317.03,61.967, 301.706,61.967z M 210.294,199.04
		c-9.866,0.00-17.894-8.008-17.894-17.879L 192.399,89.754 c0.00-9.851, 8.028-17.879, 17.894-17.879l 91.412,0.00 c 9.866,0.00, 17.879,8.028, 17.879,17.879L 319.585,181.161 
		c0.00,9.871-8.013,17.879-17.879,17.879L 210.294,199.04 zM 481.654,61.967L 390.246,61.967 c-15.304,0.00-27.786,12.467-27.786,27.791L 362.46,181.161 c0.00,15.304, 12.483,27.786, 27.786,27.786l 91.412,0.00 
		c 15.304,0.00, 27.786-12.483, 27.786-27.786L 509.445,89.754 C 509.44,74.409, 496.957,61.967, 481.654,61.967z M 390.246,199.04c-9.866,0.00-17.894-8.008-17.894-17.879
		L 372.352,89.754 c0.00-9.851, 8.028-17.879, 17.894-17.879l 91.372,0.00 c 9.871,0.00, 17.90,8.028, 17.90,17.879L 499.517,181.161 c0.00,9.871-8.028,17.879-17.90,17.879L 390.246,199.04 zM 121.754,61.967L 30.346,61.967 c-15.324,0.00-27.786,12.447-27.786,27.791L 2.56,181.161 c0.00,15.304, 12.462,27.786, 27.786,27.786L 121.754,208.947 
		c 15.324,0.00, 27.786-12.483, 27.786-27.786L 149.54,89.754 C 149.555,74.409, 137.098,61.967, 121.754,61.967z M 30.346,199.04c-9.866,0.00-17.879-8.008-17.879-17.879
		L 12.467,89.754 c0.00-9.851, 8.008-17.879, 17.879-17.879L 121.754,71.875 c 9.866,0.00, 17.879,8.028, 17.879,17.879L 139.633,181.161 c0.00,9.871-8.013,17.879-17.879,17.879L 30.346,199.04 zM 469.268,135.455l-57.139-36.178L 412.129,171.622 L 469.268,135.455zM 99.871,171.622l0.00-72.346 l-57.139,36.178L 99.871,171.622zM 219.837,162.12l 72.351,0.00 L 256.00,104.98L 219.837,162.12zM 292.183,283.986L 219.837,283.986 L 256.00,341.105L 292.183,283.986z" />
<glyph unicode="&#x23;" d="M 325.13,365.158c0.00-14.141-10.491-25.958-24.658-25.958L 211.507,339.20 c-14.172,0.00-24.637,11.822-24.637,25.958L 186.87,454.154 c0.00,14.141, 10.465,23.286, 24.637,23.286
	l 88.965,0.00 c 14.172,0.00, 24.658-9.144, 24.658-23.286L 325.13,365.158 zM 509.44,368.358c0.00-14.141-11.469-29.158-25.585-29.158L 398.034,339.20 c-14.141,0.00-26.86,15.022-26.86,29.158L 371.174,454.154 
	c0.00,14.141, 12.718,23.286, 26.86,23.286l 85.821,0.00 c 14.116,0.00, 25.585-9.144, 25.585-23.286L 509.44,368.358 zM 140.80,364.785c0.00-14.116-11.443-25.585-25.585-25.585L 28.145,339.20 c-14.141,0.00-25.585,11.469-25.585,25.585L 2.56,451.855 C 2.56,465.946, 14.003,477.44, 28.145,477.44
	l 87.071,0.00 c 14.141,0.00, 25.585-11.494, 25.585-25.585L 140.80,364.785 zM 325.13,181.852c0.00-14.141-10.491-26.982-24.658-26.982L 211.507,154.87 c-14.172,0.00-24.637,12.841-24.637,26.982L 186.87,270.822 
	c0.00,14.141, 10.465,22.287, 24.637,22.287l 88.965,0.00 c 14.172,0.00, 24.658-8.146, 24.658-22.287L 325.13,181.852 zM 509.44,180.475c0.00-14.141-11.469-25.605-25.585-25.605L 396.785,154.87 c-14.141,0.00-25.61,11.464-25.61,25.605L 371.174,267.474 
	c0.00,14.167, 11.469,25.631, 25.61,25.631l 87.071,0.00 c 14.116,0.00, 25.585-11.489, 25.585-25.631L 509.44,180.475 zM 140.80,180.475c0.00-14.141-11.443-25.605-25.585-25.605L 28.145,154.87 c-14.141,0.00-25.585,11.464-25.585,25.605L 2.56,267.474 
	c0.00,14.167, 11.443,25.631, 25.585,25.631l 87.071,0.00 c 14.141,0.00, 25.585-11.489, 25.585-25.631L 140.80,180.475 zM 325.13-1.536c0.00-14.09-10.491-27.904-24.658-27.904L 211.507-29.44 c-14.172,0.00-24.637,13.814-24.637,27.904L 186.87,87.485 
	c0.00,14.167, 10.465,21.34, 24.637,21.34l 88.965,0.00 c 14.172,0.00, 24.658-7.173, 24.658-21.34L 325.13-1.536 zM 509.44-1.536c0.00-14.141-11.469-27.904-25.585-27.904L 398.034-29.44 c-14.141,0.00-26.86,13.763-26.86,27.904L 371.174,84.291 c0.00,14.167, 12.718,24.535, 26.86,24.535
	l 85.821,0.00 c 14.116,0.00, 25.585-10.368, 25.585-24.535L 509.44-1.536 zM 140.80-3.804c0.00-14.167-11.443-25.636-25.585-25.636L 28.145-29.44 c-14.141,0.00-25.585,11.469-25.585,25.636L 2.56,83.19 
	c0.00,14.167, 11.443,25.636, 25.585,25.636l 87.071,0.00 c 14.141,0.00, 25.585-11.469, 25.585-25.636L 140.80-3.804 z" />
<glyph unicode="&#x2e;" d="M 3.231,225.782A253.44,253.44 180.00 1,0 510.111,225.782A253.44,253.44 180.00 1,0 3.231,225.782z" />
<glyph unicode="&#x39;" d="M 275.553,182.088L 275.553,275.768 c0.00,10.803-8.745,19.548-19.553,19.548c-10.803,0.00-19.548-8.786-19.548-19.548l0.00-100.485 
	c0.00-2.888, 0.66-5.53, 1.731-7.967c 0.911-2.801, 2.309-5.524, 4.582-7.752l 59.361-59.402c 7.67-7.675, 20.045-7.675, 27.633,0.00
	c 7.675,7.67, 7.675,20.045,0.00,27.674L 275.553,182.088zM 289.823,390.446L 289.823,438.292 l 48.102,0.00 c 10.803,0.00, 19.548,8.745, 19.548,19.548c0.00,10.808-8.745,19.594-19.548,19.594L 174.162,477.435 
	c-10.808,0.00-19.553-8.786-19.553-19.594c0.00-10.803, 8.745-19.548, 19.553-19.548l 48.015,0.00 l0.00-47.811 C 121.564,374.277, 44.549,287.237, 44.549,182.011
	C 44.549,65.229, 139.218-29.44, 256.00-29.44c 116.818,0.00, 211.451,94.669, 211.451,211.451C 467.451,287.237, 390.477,374.277, 289.823,390.446 M 256.00,25.134
	c-86.625,0.00-156.836,70.246-156.836,156.877c0.00,86.62, 70.252,156.872, 156.836,156.872c 86.625,0.00, 156.913-70.252, 156.913-156.872
	C 412.913,95.38, 342.625,25.134, 256.00,25.134" />
<glyph unicode="&#x7a;" d="M 498.729,33.884L 376.494,156.109c 21.939,32.609, 34.749,71.869, 34.749,114.13c0.00,113.07-91.658,204.733-204.739,204.733
		c-113.065,0.00-204.728-91.663-204.728-204.733c0.00-113.075, 91.663-204.733, 204.728-204.733c 46.346,0.00, 89.078,15.416, 123.392,41.38L 450.811-14.029
		c 13.235-13.23, 34.688-13.225, 47.918,0.00C 511.969-0.799, 511.959,20.659, 498.729,33.884z M 53.146,270.239c0.00,84.695, 68.675,153.359, 153.364,153.359
		c 84.695,0.00, 153.37-68.664, 153.37-153.359c0.00-84.70-68.669-153.364-153.37-153.364C 121.82,116.874, 53.146,185.539, 53.146,270.239zM 273.981,293.315l-40.515-0.015l-0.015,40.499c-0.01,12.355-10.025,22.349-22.364,22.339c-12.349-0.005-22.344-10.02-22.333-22.364
	l 0.026-40.515l-40.504-0.02c-12.344,0.00-22.359-10.02-22.339-22.349c 0.005-12.349, 10.015-22.354, 22.364-22.339l 40.509,0.015l 0.015-40.494
	c0.00-12.355, 10.025-22.344, 22.369-22.339c 12.344,0.00, 22.339,10.025, 22.339,22.359l-0.031,40.504l 40.489,0.015c 12.37,0.01, 22.354,10.03, 22.354,22.359
	C 296.335,283.325, 286.326,293.33, 273.981,293.315z" />
<glyph unicode="&#x73;" d="M 245.77,477.44c 91.786,0.466, 55.537-111.022, 117.96-136.684
	c 15.027-6.185, 36.255-0.568, 54.656-3.569c 40.525-6.615, 83.789-8.678, 90.214-50.028c 10.752-69.13-85.279-92.82-96.282-137.58
	c-11.996-48.732, 63.611-149.622-11.284-173.292c-63.662-20.163-94.981,47.478-141.399,55.357c-52.695,8.98-88.028-94.249-158.73-50.022
	c-56.924,35.62, 16.236,118.047,0.00,172.416C 87.972,197.356, 13.829,208.23, 3.748,266.609c-10.004,57.938, 45.389,63.826, 86.743,70.574
	c 25.656,4.183, 53.601-4.183, 69.402,8.924c 33.577,27.889, 29.978,95.386, 65.065,122.399C 231.89,471.48, 238.828,474.47, 245.77,477.44z" /></font>
</defs>
</svg>
